{
.appVersion = "1246";
DisplayStrings = (
"THE QUICK BROWN FOX JUMPS\012OVER THE LAZY DOG\012\012he quick brown fox jumps\012over the lazy dog\0120123456789\012\012\012AMAZINGLY FEW DISCOTHEQUES \012PROVIDE JUKEBOXES\012\012\012P/Rcaron ÍLI/Scaron  /Zcaron LU/Tcaron OU/Ccaron KÝ K/Uring/Ncaron  ÚP/Ecaron L /Dcaron ÁBELSKÉ ÓDY.\012\012Hyvän orun sngen pieneksi hyödyksi jäi suomen kirjime.\012\012Ç me fi peur de fêer noë à, sur cee i/idotless îe bizrroïde où une mère e s môme essien de me uer vec un gâeu à  cigüe brûé. \012\012QUEDA GAZPACHO, FIBRA, LÁTEX, JAMÓN, KIWI Y VIÑAS. \012\012/Scedilla i/scedilla i/quoteright de büyük çöp y/idotless/gbreve/idotless nr/idotless ! \012\012YXSKAFTBUD, GE VÅR WC-ZONMÖ IQ-HJÄLP. \012\012Qued gzpcho, fibr, áex, jmón, kiwi y viñs.\012\012Hi/scaron nic/ccaron in brec vzgj po/zcaron e pod fikusom.  \012\012HI/Scaron NI/Ccaron IN BRATEC VZGAJA POL/Zcaron E POD FIKUSOM. ",
"abcdefghijklmnopqrstuvwxyz\012ABCDEFGHIJKLMNOPQRSTUVWXYZ\0120123456789\012!@#$%^&*()&",
"JUKEBOXES\012TATAnone\012mourbhno\012experiment\012hnm\012AMAZINGLY\012Tt\012Ww",
"LEAGUE MONO\012league mono",
"AaBbCcDdEeFfGgHhIiJjKkLlMmNn\012OoPpQqRrSsTtUuVvWwXxYyZz\012"
);
copyright = "Copyright © 2018 by Tyler Finck. All rights reserved.";
customParameters = (
{
name = Axes;
value = (
{
Name = Weight;
Tag = wght;
},
{
Name = Width;
Tag = wdth;
}
);
},
{
name = "Enforce Compatibility Check";
value = 1;
},
{
name = panose;
value = (
2,
11,
0,
9,
3,
0,
0,
0,
0,
3
);
},
{
name = note;
value = "this is an experimental work in progress, please be kind.";
},
{
name = "Variable Font Family Name";
value = "League Mono Variable";
}
);
date = "2019-07-14 10:54:34 +0000";
designer = "Tyler Finck";
designerURL = "https://www.tylerfinck.com";
disablesNiceNames = 1;
familyName = "League Mono";
featurePrefixes = (
{
automatic = 1;

glyphs = (
{
glyphname = A;
lastChange = "2018-05-30 20:56:13 +0000";
layers = (
{
anchors = (
{
name = bottom;
position = "{300, 0}";
},
{
name = ogonek;
position = "{506, 0}";
},
{
name = top;
position = "{300, 700}";
}
);
layerId = "5521DC30-183F-421A-91F3-644B5E24AFE6";
paths = (
{
closed = 1;
nodes = (
"129 124 LINE",
"471 124 LINE",
"471 236 LINE",
"129 236 LINE"
);
},
{
closed = 1;
nodes = (
"578 0 LINE",
"446 700 LINE",
"154 700 LINE",
"22 0 LINE",
"177 0 LINE",
"275 588 LINE",
"325 588 LINE",
"423 0 LINE"
);
}
);
width = 600;
},
{
anchors = (
{
name = bottom;
position = "{300, 0}";
},
{
name = ogonek;
position = "{508, 0}";
},
{
name = top;
position = "{300, 700}";
}
);
layerId = "BE68D89F-AB3F-4BDF-B332-ED50D7C47704";
paths = (
{
closed = 1;
nodes = (
"149 204 LINE",
"451 204 LINE",
"451 236 LINE",
"149 236 LINE"
);
},
{
closed = 1;
nodes = (
"528 0 LINE",
"371 700 LINE",
"229 700 LINE",
"72 0 LINE",
"107 0 LINE",
"257 668 LINE",
"343 668 LINE",
"493 0 LINE"
);
}
);
width = 600;
},
{
anchors = (
{
name = bottom;
position = "{226, 0}";
},
{
name = ogonek;
position = "{355, 0}";
},
{
name = top;
position = "{226, 700}";
}
);
layerId = "2E286313-D5BF-4FB4-A4B7-BD9BC13B574E";
paths = (
{
closed = 1;
nodes = (
"125 168 LINE",
"327 168 LINE",
"327 200 LINE",
"125 200 LINE"
);
},
{
closed = 1;
nodes = (
"373 0 LINE",
"275 700 LINE",
"177 700 LINE",
"79 0 LINE",
"113 0 LINE",
"205 668 LINE",
"247 668 LINE",
"339 0 LINE"
);
}
);
width = 450;
},
{
anchors = (
{
name = bottom;
position = "{525, 0}";
},
{
name = ogonek;
position = "{889, 0}";
},
{
name = top;
position = "{525, 700}";
}
);
layerId = "E338D14E-1DA5-418D-88BC-8956EEA80AB9";
paths = (
{
closed = 1;
nodes = (
"261 224 LINE",
"789 224 LINE",
"789 256 LINE",
"261 256 LINE"
);
},
{
closed = 1;
nodes = (
"914 0 LINE",
"639 700 LINE",
"411 700 LINE",
"136 0 LINE",
"177 0 LINE",
"439 668 LINE",
"611 668 LINE",
"873 0 LINE"
);
}
);
width = 1050;
}
);
leftKerningGroup = A;
rightKerningGroup = A;
unicode = 0041;
},
{
glyphname = AE;
lastChange = "2018-05-30 20:57:27 +0000";
layers = (
{
layerId = "5521DC30-183F-421A-91F3-644B5E24AFE6";
paths = (
{
closed = 1;
nodes = (
"438 0 LINE",
"438 700 LINE",
"285 700 LINE",
"285 0 LINE"
);
},
{
closed = 1;
nodes = (
"347 0 LINE",
"597 0 LINE",
"597 112 LINE",
"347 112 LINE"
);
},
{
closed = 1;
nodes = (
"347 288 LINE",
"565 288 LINE",
"565 400 LINE",
"347 400 LINE"
);
},
{
closed = 1;
nodes = (
"347 588 LINE",
"597 588 LINE",
"597 700 LINE",
"347 700 LINE"
);
},
{
closed = 1;
nodes = (
"-21 0 LINE",
"144 0 LINE",
"345 700 LINE",
"193 700 LINE"
);
},
{
closed = 1;
nodes = (
"208 588 LINE",
"325 588 LINE",
"343 700 LINE",
"225 700 LINE"
);
},
{
closed = 1;
nodes = (
"163 164 LINE",
"325 164 LINE",
"342 276 LINE",
"180 276 LINE"
);
}
);
width = 600;
},
{
layerId = "BE68D89F-AB3F-4BDF-B332-ED50D7C47704";
paths = (
{
closed = 1;
nodes = (
"348 0 LINE",
"348 700 LINE",
"315 700 LINE",
"315 0 LINE"
);
},
{
closed = 1;
nodes = (
"347 0 LINE",
"579 0 LINE",
"579 32 LINE",
"347 32 LINE"
);
},
{
closed = 1;
nodes = (
"347 328 LINE",
"525 328 LINE",
"525 360 LINE",
"347 360 LINE"
);
},
{
closed = 1;
nodes = (
"347 668 LINE",
"579 668 LINE",
"579 700 LINE",
"347 700 LINE"
);
},
{
closed = 1;
nodes = (
"29 0 LINE",
"64 0 LINE",
"278 700 LINE",
"243 700 LINE"
);
},
{
closed = 1;
nodes = (
"248 668 LINE",
"325 668 LINE",
"343 700 LINE",
"265 700 LINE"
);
},
{
closed = 1;
nodes = (
"123 244 LINE",
"335 244 LINE",
"339 276 LINE",
"140 276 LINE"
);
}
);
width = 600;
},
{
layerId = "2E286313-D5BF-4FB4-A4B7-BD9BC13B574E";
paths = (
{
closed = 1;
nodes = (
"290 0 LINE",
"290 700 LINE",
"255 700 LINE",
"255 0 LINE"
);
},
{
closed = 1;
nodes = (
"279 0 LINE",
"434 0 LINE",
"434 32 LINE",
"279 32 LINE"
);
},
{
closed = 1;
nodes = (
"279 328 LINE",
"414 328 LINE",
"414 360 LINE",
"279 360 LINE"
);
},
{
closed = 1;
nodes = (
"279 668 LINE",
"434 668 LINE",
"434 700 LINE",
"279 700 LINE"
);
},
{
closed = 1;
nodes = (
"22 0 LINE",
"58 0 LINE",
"209 700 LINE",
"172 700 LINE"
);
},
{
closed = 1;
nodes = (
"179 668 LINE",
"263 668 LINE",
"276 700 LINE",
"191 700 LINE"
);
},
{
closed = 1;
nodes = (
"97 244 LINE",
"270 244 LINE",
"273 276 LINE",
"110 276 LINE"
);
}
);
width = 450;
},
{
layerId = "E338D14E-1DA5-418D-88BC-8956EEA80AB9";
paths = (
{
closed = 1;
nodes = (
"606 0 LINE",
"606 700 LINE",
"571 700 LINE",
"571 0 LINE"
);
},
{
closed = 1;
nodes = (
"604 0 LINE",
"1013 0 LINE",
"1013 32 LINE",
"604 32 LINE"
);
},
{
closed = 1;
nodes = (
"604 328 LINE",
"919 328 LINE",
"919 360 LINE",
"604 360 LINE"
);
},
{
closed = 1;
nodes = (
"604 668 LINE",
"1013 668 LINE",
"1013 700 LINE",
"604 700 LINE"
);
},
{
closed = 1;
nodes = (
"71 0 LINE",
"112 0 LINE",
"487 700 LINE",
"445 700 LINE"
);
},
{
closed = 1;
nodes = (
"437 668 LINE",
"569 668 LINE",
"600 700 LINE",
"466 700 LINE"
);
},
{
closed = 1;
nodes = (
"200 244 LINE",
"586 244 LINE",
"593 276 LINE",
"230 276 LINE"
);
}
);
width = 1050;
}
);
unicode = 00C6;
},
{
glyphname = B;
lastChange = "2019-07-14 11:11:11 +0000";
layers = (
{
anchors = (
{
name = bottom;
position = "{300, 0}";
},
{
name = top;
position = "{300, 700}";
}
);
layerId = "5521DC30-183F-421A-91F3-644B5E24AFE6";
paths = (
{
closed = 1;
nodes = (
"426 371 OFFCURVE",
"533 386 OFFCURVE",
"533 529 CURVE SMOOTH",
"533 690 OFFCURVE",
"390 700 OFFCURVE",
"306 700 CURVE SMOOTH",
"75 700 LINE",
"75 0 LINE",
"367 0 LINE SMOOTH",
"486 0 OFFCURVE",
"559 66 OFFCURVE",
"559 200 CURVE SMOOTH",
"559 356 OFFCURVE",
"426 371 OFFCURVE",
"426 371 CURVE SMOOTH"
);
},
{
closed = 1;
nodes = (
"294 588 LINE SMOOTH",
"356 588 OFFCURVE",
"384 570 OFFCURVE",
"384 506 CURVE SMOOTH",
"384 442 OFFCURVE",
"358 417 OFFCURVE",
"298 417 CURVE SMOOTH",
"228 417 LINE",
"228 588 LINE"
);
},
{
closed = 1;
nodes = (
"228 112 LINE",
"228 305 LINE",
"316 305 LINE SMOOTH",
"373 305 OFFCURVE",
"405 278 OFFCURVE",
"405 211 CURVE SMOOTH",
"405 144 OFFCURVE",
"386 112 OFFCURVE",
"316 112 CURVE SMOOTH"
);
}
);
width = 600;
},
{
anchors = (
{
name = bottom;
position = "{300, 0}";
},
{
name = top;
position = "{300, 700}";
}
);
layerId = "BE68D89F-AB3F-4BDF-B332-ED50D7C47704";
paths = (
{
closed = 1;
nodes = (
"414 369 OFFCURVE",
"496 406 OFFCURVE",
"496 529 CURVE SMOOTH",
"496 680 OFFCURVE",
"398 700 OFFCURVE",
"304 700 CURVE SMOOTH",
"120 700 LINE",
"120 0 LINE",
"345 0 LINE SMOOTH",
"467 0 OFFCURVE",
"514 69 OFFCURVE",
"514 193 CURVE SMOOTH",
"514 329 OFFCURVE",
"414 369 OFFCURVE",
"414 369 CURVE SMOOTH"
);
},
{
closed = 1;
nodes = (
"330 668 LINE SMOOTH",
"398 668 OFFCURVE",
"460 633 OFFCURVE",
"460 529 CURVE SMOOTH",
"460 445 OFFCURVE",
"408 377 OFFCURVE",
"348 377 CURVE SMOOTH",
"153 377 LINE",
"153 668 LINE"
);
},
{
closed = 1;
nodes = (
"153 32 LINE",
"153 345 LINE",
"368 345 LINE SMOOTH",
"425 345 OFFCURVE",
"480 280 OFFCURVE",
"480 193 CURVE SMOOTH",
"480 81 OFFCURVE",
"436 32 OFFCURVE",
"348 32 CURVE SMOOTH"
);
}
);
width = 600;
},
{
anchors = (
{
name = bottom;
position = "{210, 0}";
},
{
name = top;
position = "{210, 700}";
}
);
layerId = "2E286313-D5BF-4FB4-A4B7-BD9BC13B574E";
paths = (
{
closed = 1;
nodes = (
"292 369 OFFCURVE",
"367 396 OFFCURVE",
"367 529 CURVE SMOOTH",
"367 690 OFFCURVE",
"276 700 OFFCURVE",
"202 700 CURVE SMOOTH",
"105 700 LINE",
"105 0 LINE",
"237 0 LINE SMOOTH",
"346 0 OFFCURVE",
"382 76 OFFCURVE",
"382 200 CURVE SMOOTH",
"382 346 OFFCURVE",
"292 369 OFFCURVE",
"292 369 CURVE SMOOTH"
);
},
{
closed = 1;
nodes = (
"228 668 LINE SMOOTH",
"276 668 OFFCURVE",
"331 643 OFFCURVE",
"331 529 CURVE SMOOTH",
"331 435 OFFCURVE",
"286 377 OFFCURVE",
"226 377 CURVE SMOOTH",
"138 377 LINE",
"138 668 LINE"
);
},
{
closed = 1;
nodes = (
"138 32 LINE",
"138 345 LINE",
"246 345 LINE SMOOTH",
"303 345 OFFCURVE",
"348 297 OFFCURVE",
"348 200 CURVE SMOOTH",
"348 88 OFFCURVE",
"315 32 OFFCURVE",
"240 32 CURVE SMOOTH"
);
}
);
width = 450;
},
{
anchors = (
{
name = bottom;
position = "{525, 0}";
},
{
name = top;
position = "{525, 700}";
}
);
layerId = "E338D14E-1DA5-418D-88BC-8956EEA80AB9";
paths = (
{
closed = 1;
nodes = (
"750 372 OFFCURVE",
"845 423 OFFCURVE",
"845 532 CURVE SMOOTH",
"845 663 OFFCURVE",
"759 700 OFFCURVE",
"592 700 CURVE SMOOTH",
"223 700 LINE",
"223 0 LINE",
"604 0 LINE SMOOTH",
"812 0 OFFCURVE",
"881 85 OFFCURVE",
"881 200 CURVE SMOOTH",
"881 340 OFFCURVE",
"751 365 OFFCURVE",
"727 366 CURVE"
);
},
{
closed = 1;
nodes = (
"588 668 LINE SMOOTH",
"759 668 OFFCURVE",
"807 626 OFFCURVE",
"807 532 CURVE SMOOTH",
"807 448 OFFCURVE",
"734 377 OFFCURVE",
"629 377 CURVE SMOOTH",
"258 377 LINE",
"258 668 LINE"
);
},
{
closed = 1;
nodes = (
"258 32 LINE",
"258 345 LINE",
"654 345 LINE SMOOTH",
"754 345 OFFCURVE",
"843 307 OFFCURVE",
"843 200 CURVE SMOOTH",
"843 88 OFFCURVE",
"758 32 OFFCURVE",
"609 32 CURVE SMOOTH"
);
}
);
width = 1050;
}
);
leftKerningGroup = H;
rightKerningGroup = B;
unicode = 0042;
},
{
glyphname = C;
lastChange = "2019-07-14 11:15:59 +0000";
layers = (
{
anchors = (
{
name = bottom;
position = "{320, 0}";
},
{
name = top;
position = "{320, 700}";
}
);
layerId = "5521DC30-183F-421A-91F3-644B5E24AFE6";
paths = (
{
closed = 1;
nodes = (
"433 208 LINE",
"423 183 OFFCURVE",
"390 107 OFFCURVE",
"319 107 CURVE SMOOTH",
"246 107 OFFCURVE",
"192 169 OFFCURVE",
"192 348 CURVE SMOOTH",
"192 526 OFFCURVE",
"246 588 OFFCURVE",
"319 588 CURVE SMOOTH",
"383 588 OFFCURVE",
"419 529 OFFCURVE",
"433 490 CURVE",
"567 565 LINE",
"537 645 OFFCURVE",
"451 706 OFFCURVE",
"319 706 CURVE SMOOTH",
"152 706 OFFCURVE",
"34 610 OFFCURVE",
"34 348 CURVE SMOOTH",
"34 85 OFFCURVE",
"152 -11 OFFCURVE",
"319 -11 CURVE SMOOTH",
"431 -11 OFFCURVE",
"534 39 OFFCURVE",
"573 137 CURVE"
);
}
);
width = 600;
},
{
anchors = (
{
name = bottom;
position = "{319, 0}";
},
{
name = top;
position = "{319, 700}";
}
);
layerId = "BE68D89F-AB3F-4BDF-B332-ED50D7C47704";
paths = (
{
closed = 1;
nodes = (
"491 106 LINE",
"463 61 OFFCURVE",
"417 22 OFFCURVE",
"329 22 CURVE SMOOTH",
"203 22 OFFCURVE",
"121 145 OFFCURVE",
"121 348 CURVE SMOOTH",
"121 551 OFFCURVE",
"207 673 OFFCURVE",
"333 673 CURVE SMOOTH",
"420 673 OFFCURVE",
"468 627 OFFCURVE",
"489 579 CURVE",
"520 595 LINE",
"494 651 OFFCURVE",
"431 706 OFFCURVE",
"333 706 CURVE SMOOTH",
"180 706 OFFCURVE",
"86 573 OFFCURVE",
"86 348 CURVE SMOOTH",
"86 123 OFFCURVE",
"176 -11 OFFCURVE",
"329 -11 CURVE SMOOTH",
"431 -11 OFFCURVE",
"489 36 OFFCURVE",
"520 89 CURVE"
);
}
);
width = 600;
},
{
anchors = (
{
name = bottom;
position = "{229, 0}";
},
{
name = top;
position = "{229, 700}";
}
);
layerId = "2E286313-D5BF-4FB4-A4B7-BD9BC13B574E";
paths = (
{
closed = 1;
nodes = (
"350 106 LINE",
"333 74 OFFCURVE",
"297 22 OFFCURVE",
"233 22 CURVE SMOOTH",
"157 22 OFFCURVE",
"91 125 OFFCURVE",
"91 348 CURVE SMOOTH",
"91 571 OFFCURVE",
"157 673 OFFCURVE",
"233 673 CURVE SMOOTH",
"297 673 OFFCURVE",
"333 621 OFFCURVE",
"350 579 CURVE",
"380 595 LINE",
"358 642 OFFCURVE",
"321 706 OFFCURVE",
"233 706 CURVE SMOOTH",
"130 706 OFFCURVE",
"56 593 OFFCURVE",
"56 348 CURVE SMOOTH",
"56 103 OFFCURVE",
"126 -11 OFFCURVE",
"229 -11 CURVE SMOOTH",
"321 -11 OFFCURVE",
"360 52 OFFCURVE",
"380 89 CURVE"
);
}
);
width = 450;
},
{
anchors = (
{
name = bottom;
position = "{558, 0}";
},
{
name = top;
position = "{558, 700}";
}
);
layerId = "E338D14E-1DA5-418D-88BC-8956EEA80AB9";
paths = (
{
closed = 1;
nodes = (
"863 123 LINE",
"814 70 OFFCURVE",
"716 22 OFFCURVE",
"563 22 CURVE SMOOTH",
"332 22 OFFCURVE",
"181 145 OFFCURVE",
"181 348 CURVE SMOOTH",
"181 551 OFFCURVE",
"339 673 OFFCURVE",
"570 673 CURVE SMOOTH",
"725 673 OFFCURVE",
"807 623 OFFCURVE",
"863 562 CURVE",
"891 587 LINE",
"826 653 OFFCURVE",
"737 706 OFFCURVE",
"565 706 CURVE SMOOTH",
"318 706 OFFCURVE",
"143 573 OFFCURVE",
"143 348 CURVE SMOOTH",
"143 123 OFFCURVE",
"311 -11 OFFCURVE",
"558 -11 CURVE SMOOTH",
"727 -11 OFFCURVE",
"828 37 OFFCURVE",
"891 97 CURVE"
);
}
);
width = 1050;
}
);
leftKerningGroup = O;
rightKerningGroup = C;
unicode = 0043;
},
{
glyphname = D;
lastChange = "2019-07-14 11:18:14 +0000";
layers = (
{
anchors = (
{
name = bottom;
position = "{270, 0}";
},
{
name = center;
position = "{129, 350}";
},
{
name = top;
position = "{270, 700}";
}
);
layerId = "5521DC30-183F-421A-91F3-644B5E24AFE6";
paths = (
{
closed = 1;
nodes = (
"58 700 LINE",
"58 0 LINE",
"275 0 LINE SMOOTH",
"380 0 OFFCURVE",
"562 20 OFFCURVE",
"562 350 CURVE SMOOTH",
"562 680 OFFCURVE",
"380 700 OFFCURVE",
"275 700 CURVE SMOOTH"
);
},
{
closed = 1;
nodes = (
"211 112 LINE",
"211 588 LINE",
"278 588 LINE SMOOTH",
"370 588 OFFCURVE",
"405 506 OFFCURVE",
"405 350 CURVE SMOOTH",
"405 194 OFFCURVE",
"370 112 OFFCURVE",
"278 112 CURVE SMOOTH"
);
}
);
width = 600;
},
{
anchors = (
{
name = bottom;
position = "{300, 0}";
},
{
name = center;
position = "{166, 350}";
},
{
name = top;
position = "{300, 700}";
}
);
layerId = "BE68D89F-AB3F-4BDF-B332-ED50D7C47704";
paths = (
{
closed = 1;
nodes = (
"133 700 LINE",
"133 0 LINE",
"280 0 LINE SMOOTH",
"375 0 OFFCURVE",
"527 0 OFFCURVE",
"527 350 CURVE SMOOTH",
"527 700 OFFCURVE",
"375 700 OFFCURVE",
"280 700 CURVE SMOOTH"
);
},
{
closed = 1;
nodes = (
"166 32 LINE",
"166 668 LINE",
"303 668 LINE SMOOTH",
"425 668 OFFCURVE",
"492 596 OFFCURVE",
"492 350 CURVE SMOOTH",
"492 104 OFFCURVE",
"425 32 OFFCURVE",
"303 32 CURVE SMOOTH"
);
}
);
width = 600;
},
{
anchors = (
{
name = bottom;
position = "{187, 0}";
},
{
name = center;
position = "{98, 350}";
},
{
name = top;
position = "{212, 700}";
}
);
layerId = "2E286313-D5BF-4FB4-A4B7-BD9BC13B574E";
paths = (
{
closed = 1;
nodes = (
"85 700 LINE",
"85 0 LINE",
"192 0 LINE SMOOTH",
"277 0 OFFCURVE",
"369 50 OFFCURVE",
"369 350 CURVE SMOOTH",
"369 650 OFFCURVE",
"277 700 OFFCURVE",
"192 700 CURVE SMOOTH"
);
},
{
closed = 1;
nodes = (
"118 32 LINE",
"118 668 LINE",
"185 668 LINE SMOOTH",
"277 668 OFFCURVE",
"334 586 OFFCURVE",
"334 350 CURVE SMOOTH",
"334 114 OFFCURVE",
"277 32 OFFCURVE",
"185 32 CURVE SMOOTH"
);
}
);
width = 450;
},
{
anchors = (
{
name = bottom;
position = "{525, 0}";
},
{
name = center;
position = "{291, 350}";
},
{
name = top;
position = "{525, 700}";
}
);
layerId = "E338D14E-1DA5-418D-88BC-8956EEA80AB9";
paths = (
{
closed = 1;
nodes = (
"233 700 LINE",
"233 0 LINE",
"520 0 LINE SMOOTH",
"813 0 OFFCURVE",
"922 90 OFFCURVE",
"922 350 CURVE SMOOTH",
"922 610 OFFCURVE",
"813 700 OFFCURVE",
"520 700 CURVE SMOOTH"
);
},
{
closed = 1;
nodes = (
"268 32 LINE",
"268 668 LINE",
"520 668 LINE SMOOTH",
"807 668 OFFCURVE",
"886 576 OFFCURVE",
"886 350 CURVE SMOOTH",
"886 124 OFFCURVE",
"807 32 OFFCURVE",
"520 32 CURVE SMOOTH"
);
}
);
width = 1050;
}
);
leftKerningGroup = H;
rightKerningGroup = O;
unicode = 0044;
},
{
glyphname = E;
lastChange = "2019-07-14 11:19:33 +0000";
layers = (
{
anchors = (
{
name = bottom;
position = "{320, 0}";
},
{
name = ogonek;
position = "{450, 0}";
},
{
name = top;
position = "{320, 700}";
},
{
name = topleft;
position = "{20, 700}";
}
);
layerId = "5521DC30-183F-421A-91F3-644B5E24AFE6";
paths = (
{
closed = 1;
nodes = (
"536 700 LINE",
"92 700 LINE",
"92 0 LINE",
"536 0 LINE",
"536 112 LINE",
"245 112 LINE",
"245 288 LINE",
"482 288 LINE",
"482 400 LINE",
"245 400 LINE",
"245 588 LINE",
"536 588 LINE"
);
}
);
width = 600;
},
{
anchors = (
{
name = bottom;
position = "{320, 0}";
},
{
name = ogonek;
position = "{428, 0}";
},
{
name = top;
position = "{320, 700}";
},
{
name = topleft;
position = "{20, 700}";
}
);
layerId = "BE68D89F-AB3F-4BDF-B332-ED50D7C47704";
paths = (
{
closed = 1;
nodes = (
"498 700 LINE",
"124 700 LINE",
"124 0 LINE",
"498 0 LINE",
"498 32 LINE",
"157 32 LINE",
"157 328 LINE",
"444 328 LINE",
"444 360 LINE",
"157 360 LINE",
"157 668 LINE",
"498 668 LINE"
);
}
);
width = 600;
},
{
anchors = (
{
name = bottom;
position = "{220, 0}";
},
{
name = ogonek;
position = "{328, 0}";
},
{
name = top;
position = "{270, 700}";
},
{
name = topleft;
position = "{50, 700}";
}
);
layerId = "2E286313-D5BF-4FB4-A4B7-BD9BC13B574E";
paths = (
{
closed = 1;
nodes = (
"348 700 LINE",
"104 700 LINE",
"104 0 LINE",
"348 0 LINE",
"348 32 LINE",
"137 32 LINE",
"137 328 LINE",
"304 328 LINE",
"304 360 LINE",
"137 360 LINE",
"137 668 LINE",
"348 668 LINE"
);
}
);
width = 450;
},
{
anchors = (
{
name = bottom;
position = "{560, 0}";
},
{
name = ogonek;
position = "{749, 0}";
},
{
name = top;
position = "{560, 700}";
},
{
name = topleft;
position = "{35, 700}";
}
);
layerId = "E338D14E-1DA5-418D-88BC-8956EEA80AB9";
paths = (
{
closed = 1;
nodes = (
"872 700 LINE",
"217 700 LINE",
"217 0 LINE",
"872 0 LINE",
"872 32 LINE",
"252 32 LINE",
"252 328 LINE",
"797 328 LINE",
"797 360 LINE",
"252 360 LINE",
"252 668 LINE",
"872 668 LINE"
);
}
);
width = 1050;
}
);
leftKerningGroup = H;
rightKerningGroup = E;
unicode = 0045;
},
{
glyphname = F;
lastChange = "2018-05-30 20:58:23 +0000";
layers = (
{
anchors = (
{
name = bottom;
position = "{310, 0}";
},
{
name = top;
position = "{310, 700}";
}
);
layerId = "5521DC30-183F-421A-91F3-644B5E24AFE6";
paths = (
{
closed = 1;
nodes = (
"555 700 LINE",
"121 700 LINE",
"121 0 LINE",
"274 0 LINE",
"274 283 LINE",
"515 283 LINE",
"515 395 LINE",
"274 395 LINE",
"274 588 LINE",
"555 588 LINE"
);
}
);
width = 600;
},
{
anchors = (
{
name = bottom;
position = "{310, 0}";
},
{
name = top;
position = "{310, 700}";
}
);
layerId = "BE68D89F-AB3F-4BDF-B332-ED50D7C47704";
paths = (
{
closed = 1;
nodes = (
"535 700 LINE",
"161 700 LINE",
"161 0 LINE",
"194 0 LINE",
"194 328 LINE",
"495 328 LINE",
"495 360 LINE",
"194 360 LINE",
"194 668 LINE",
"535 668 LINE"
);
}
);
width = 600;
},
{
anchors = (
{
name = bottom;
position = "{258, 0}";
},
{
name = top;
position = "{258, 700}";
}
);
layerId = "2E286313-D5BF-4FB4-A4B7-BD9BC13B574E";
paths = (
{
closed = 1;
nodes = (
"380 700 LINE",
"126 700 LINE",
"126 0 LINE",
"159 0 LINE",
"159 328 LINE",
"340 328 LINE",
"340 360 LINE",
"159 360 LINE",
"159 668 LINE",
"380 668 LINE"
);
}
);
width = 450;
},
{
anchors = (
{
name = bottom;
position = "{545, 0}";
},
{
name = top;
position = "{545, 700}";
}
);
layerId = "E338D14E-1DA5-418D-88BC-8956EEA80AB9";
paths = (
{
closed = 1;
nodes = (
"939 700 LINE",
"284 700 LINE",
"284 0 LINE",
"319 0 LINE",
"319 328 LINE",
"869 328 LINE",
"869 360 LINE",
"319 360 LINE",
"319 668 LINE",
"939 668 LINE"
);
}
);
width = 1050;
}
);
leftKerningGroup = H;
rightKerningGroup = F;
unicode = 0046;
},
{
glyphname = G;
lastChange = "2019-07-14 11:31:49 +0000";
layers = (
{
anchors = (
{
name = bottom;
position = "{322, 0}";
},
{
name = top;
position = "{322, 700}";
}
);
layerId = "5521DC30-183F-421A-91F3-644B5E24AFE6";
paths = (
{
closed = 1;
nodes = (
"304 350 LINE",
"304 238 LINE",
"417 238 LINE",
"417 146 LINE",
"404 127 OFFCURVE",
"368 107 OFFCURVE",
"318 107 CURVE SMOOTH",
"252 107 OFFCURVE",
"186 165 OFFCURVE",
"186 348 CURVE SMOOTH",
"186 531 OFFCURVE",
"254 588 OFFCURVE",
"317 588 CURVE SMOOTH",
"389 588 OFFCURVE",
"423 520 OFFCURVE",
"433 491 CURVE",
"568 564 LINE",
"520 654 OFFCURVE",
"458 706 OFFCURVE",
"318 706 CURVE SMOOTH",
"181 706 OFFCURVE",
"30 615 OFFCURVE",
"30 348 CURVE SMOOTH",
"30 80 OFFCURVE",
"181 -11 OFFCURVE",
"318 -11 CURVE SMOOTH",
"439 -11 OFFCURVE",
"527 48 OFFCURVE",
"566 114 CURVE",
"566 350 LINE"
);
}
);
width = 600;
},
{
anchors = (
{
name = bottom;
position = "{320, 0}";
},
{
name = top;
position = "{320, 700}";
}
);
layerId = "BE68D89F-AB3F-4BDF-B332-ED50D7C47704";
paths = (
{
closed = 1;
nodes = (
"324 341 LINE",
"324 309 LINE",
"493 309 LINE",
"493 110 LINE",
"463 69 OFFCURVE",
"417 22 OFFCURVE",
"317 22 CURVE SMOOTH",
"191 22 OFFCURVE",
"109 135 OFFCURVE",
"109 348 CURVE SMOOTH",
"109 561 OFFCURVE",
"195 673 OFFCURVE",
"321 673 CURVE SMOOTH",
"406 673 OFFCURVE",
"446 639 OFFCURVE",
"478 578 CURVE",
"508 595 LINE",
"471 664 OFFCURVE",
"419 706 OFFCURVE",
"321 706 CURVE SMOOTH",
"168 706 OFFCURVE",
"74 583 OFFCURVE",
"74 348 CURVE SMOOTH",
"74 113 OFFCURVE",
"164 -11 OFFCURVE",
"317 -11 CURVE SMOOTH",
"439 -11 OFFCURVE",
"498 56 OFFCURVE",
"526 95 CURVE",
"526 341 LINE"
);
}
);
width = 600;
},
{
anchors = (
{
name = bottom;
position = "{250, 0}";
},
{
name = top;
position = "{250, 700}";
}
);
layerId = "2E286313-D5BF-4FB4-A4B7-BD9BC13B574E";
paths = (
{
closed = 1;
nodes = (
"234 345 LINE",
"234 313 LINE",
"363 313 LINE",
"363 107 LINE",
"346 76 OFFCURVE",
"317 22 OFFCURVE",
"241 22 CURVE SMOOTH",
"155 22 OFFCURVE",
"100 135 OFFCURVE",
"100 348 CURVE SMOOTH",
"100 561 OFFCURVE",
"170 673 OFFCURVE",
"246 673 CURVE SMOOTH",
"316 673 OFFCURVE",
"343 611 OFFCURVE",
"354 578 CURVE",
"383 595 LINE",
"366 651 OFFCURVE",
"322 706 OFFCURVE",
"246 706 CURVE SMOOTH",
"143 706 OFFCURVE",
"65 583 OFFCURVE",
"65 348 CURVE SMOOTH",
"65 113 OFFCURVE",
"128 -11 OFFCURVE",
"241 -11 CURVE SMOOTH",
"339 -11 OFFCURVE",
"384 64 OFFCURVE",
"396 95 CURVE",
"396 345 LINE"
);
}
);
width = 450;
},
{
anchors = (
{
name = bottom;
position = "{560, 0}";
},
{
name = top;
position = "{560, 700}";
}
);
layerId = "E338D14E-1DA5-418D-88BC-8956EEA80AB9";
paths = (
{
closed = 1;
nodes = (
"527 345 LINE",
"527 313 LINE",
"884 313 LINE",
"884 104 LINE",
"824 60 OFFCURVE",
"736 22 OFFCURVE",
"555 22 CURVE SMOOTH",
"324 22 OFFCURVE",
"185 125 OFFCURVE",
"185 348 CURVE SMOOTH",
"185 571 OFFCURVE",
"341 673 OFFCURVE",
"572 673 CURVE SMOOTH",
"721 673 OFFCURVE",
"809 634 OFFCURVE",
"865 573 CURVE",
"899 595 LINE",
"834 664 OFFCURVE",
"743 706 OFFCURVE",
"572 706 CURVE SMOOTH",
"322 706 OFFCURVE",
"147 603 OFFCURVE",
"147 348 CURVE SMOOTH",
"147 93 OFFCURVE",
"305 -11 OFFCURVE",
"555 -11 CURVE SMOOTH",
"768 -11 OFFCURVE",
"864 44 OFFCURVE",
"919 85 CURVE",
"919 345 LINE"
);
}
);
width = 1050;
}
);
leftKerningGroup = O;
rightKerningGroup = G;
unicode = 0047;
},
{
glyphname = G.ss01;
lastChange = "2018-03-16 12:56:42 +0000";
layers = (
{
layerId = "5521DC30-183F-421A-91F3-644B5E24AFE6";
paths = (
{
closed = 1;
nodes = (
"474 -11 OFFCURVE",
"569 90 OFFCURVE",
"569 303 CURVE",
"427 333 LINE",
"427 155 OFFCURVE",
"390 112 OFFCURVE",
"317 112 CURVE SMOOTH",
"244 112 OFFCURVE",
"195 145 OFFCURVE",
"195 348 CURVE SMOOTH",
"195 551 OFFCURVE",
"239 583 OFFCURVE",
"312 583 CURVE SMOOTH",
"366 583 OFFCURVE",
"394 548 OFFCURVE",
"422 488 CURVE",
"560 565 LINE",
"512 665 OFFCURVE",
"423 706 OFFCURVE",
"312 706 CURVE SMOOTH",
"155 706 OFFCURVE",
"37 635 OFFCURVE",
"37 348 CURVE SMOOTH",
"37 60 OFFCURVE",
"160 -11 OFFCURVE",
"317 -11 CURVE SMOOTH"
);
},
{
closed = 1;
nodes = (
"569 283 LINE",
"569 405 LINE",
"311 405 LINE",
"311 283 LINE"
);
}
);
width = 600;
},
{
layerId = "BE68D89F-AB3F-4BDF-B332-ED50D7C47704";
paths = (
{
closed = 1;
nodes = (
"471 -11 OFFCURVE",
"524 125 OFFCURVE",
"524 328 CURVE",
"492 328 LINE",
"492 90 OFFCURVE",
"417 22 OFFCURVE",
"317 22 CURVE SMOOTH",
"195 22 OFFCURVE",
"120 125 OFFCURVE",
"120 348 CURVE SMOOTH",
"120 571 OFFCURVE",
"195 673 OFFCURVE",
"322 673 CURVE SMOOTH",
"403 673 OFFCURVE",
"441 645 OFFCURVE",
"469 593 CURVE",
"502 612 LINE",
"468 666 OFFCURVE",
"419 706 OFFCURVE",
"322 706 CURVE SMOOTH",
"205 706 OFFCURVE",
"85 635 OFFCURVE",
"85 348 CURVE SMOOTH",
"85 60 OFFCURVE",
"200 -11 OFFCURVE",
"317 -11 CURVE SMOOTH"
);
},
{
closed = 1;
nodes = (
"524 328 LINE",
"524 360 LINE",
"326 360 LINE",
"326 328 LINE"
);
}
);
width = 600;
},
{
layerId = "2E286313-D5BF-4FB4-A4B7-BD9BC13B574E";
paths = (
{
closed = 1;
nodes = (
"353 -11 OFFCURVE",
"383 125 OFFCURVE",
"383 328 CURVE",
"349 328 LINE",
"349 90 OFFCURVE",
"313 22 OFFCURVE",
"238 22 CURVE SMOOTH",
"146 22 OFFCURVE",
"110 125 OFFCURVE",
"110 348 CURVE SMOOTH",
"110 571 OFFCURVE",
"146 673 OFFCURVE",
"242 673 CURVE SMOOTH",
"302 673 OFFCURVE",
"331 645 OFFCURVE",
"352 593 CURVE",
"377 612 LINE",
"351 666 OFFCURVE",
"314 706 OFFCURVE",
"242 706 CURVE SMOOTH",
"154 706 OFFCURVE",
"74 635 OFFCURVE",
"74 348 CURVE SMOOTH",
"74 60 OFFCURVE",
"150 -11 OFFCURVE",
"238 -11 CURVE SMOOTH"
);
},
{
closed = 1;
nodes = (
"383 328 LINE",
"383 360 LINE",
"245 360 LINE",
"245 328 LINE"
);
}
);
width = 450;
},
{
layerId = "E338D14E-1DA5-418D-88BC-8956EEA80AB9";
paths = (
{
closed = 1;
nodes = (
"814 -11 OFFCURVE",
"917 125 OFFCURVE",
"917 328 CURVE",
"878 328 LINE",
"878 90 OFFCURVE",
"723 22 OFFCURVE",
"555 22 CURVE SMOOTH",
"345 22 OFFCURVE",
"191 120 OFFCURVE",
"191 348 CURVE SMOOTH",
"191 576 OFFCURVE",
"345 673 OFFCURVE",
"564 673 CURVE SMOOTH",
"698 673 OFFCURVE",
"793 636 OFFCURVE",
"842 584 CURVE",
"879 612 LINE",
"819 666 OFFCURVE",
"724 706 OFFCURVE",
"564 706 CURVE SMOOTH",
"374 706 OFFCURVE",
"149 635 OFFCURVE",
"149 348 CURVE SMOOTH",
"149 60 OFFCURVE",
"366 -11 OFFCURVE",
"555 -11 CURVE SMOOTH"
);
},
{
closed = 1;
nodes = (
"917 328 LINE",
"917 360 LINE",
"571 360 LINE",
"571 328 LINE"
);
}
);
width = 1050;
}
);
},
{
glyphname = H;
lastChange = "2018-05-30 20:59:12 +0000";
layers = (
{
anchors = (
{
name = bottom;
position = "{300, 0}";
},
{
name = center;
position = "{300, 545}";
},
{
name = top;
position = "{300, 700}";
},
{
name = topleft;
position = "{20, 700}";
}
);
layerId = "5521DC30-183F-421A-91F3-644B5E24AFE6";
paths = (
{
closed = 1;
nodes = (
"386 420 LINE",
"213 420 LINE",
"213 700 LINE",
"60 700 LINE",
"60 0 LINE",
"213 0 LINE",
"213 308 LINE",
"386 308 LINE",
"386 0 LINE",
"539 0 LINE",
"539 700 LINE",
"386 700 LINE"
);
}
);
width = 600;
},
{
anchors = (
{
name = bottom;
position = "{300, 0}";
},
{
name = center;
position = "{300, 557}";
},
{
name = top;
position = "{300, 700}";
},
{
name = topleft;
position = "{20, 700}";
}
);
layerId = "BE68D89F-AB3F-4BDF-B332-ED50D7C47704";
paths = (
{
closed = 1;
nodes = (
"446 380 LINE",
"153 380 LINE",
"153 700 LINE",
"120 700 LINE",
"120 0 LINE",
"153 0 LINE",
"153 348 LINE",
"446 348 LINE",
"446 0 LINE",
"479 0 LINE",
"479 700 LINE",
"446 700 LINE"
);
}
);
width = 600;
},
{
anchors = (
{
name = bottom;
position = "{230, 0}";
},
{
name = center;
position = "{230, 531}";
},
{
name = top;
position = "{230, 700}";
},
{
name = topleft;
position = "{10, 700}";
}
);
layerId = "2E286313-D5BF-4FB4-A4B7-BD9BC13B574E";
paths = (
{
closed = 1;
nodes = (
"326 380 LINE",
"133 380 LINE",
"133 700 LINE",
"100 700 LINE",
"100 0 LINE",
"133 0 LINE",
"133 348 LINE",
"326 348 LINE",
"326 0 LINE",
"359 0 LINE",
"359 700 LINE",
"326 700 LINE"
);
}
);
width = 450;
},
{
anchors = (
{
name = bottom;
position = "{525, 0}";
},
{
name = center;
position = "{525, 566}";
},
{
name = top;
position = "{525, 700}";
},
{
name = topleft;
position = "{35, 700}";
}
);
layerId = "E338D14E-1DA5-418D-88BC-8956EEA80AB9";
paths = (
{
closed = 1;
nodes = (
"804 380 LINE",
"245 380 LINE",
"245 700 LINE",
"210 700 LINE",
"210 0 LINE",
"245 0 LINE",
"245 348 LINE",
"804 348 LINE",
"804 0 LINE",
"838 0 LINE",
"838 700 LINE",
"804 700 LINE"
);
}
);
width = 1050;
}
);
leftKerningGroup = H;
rightKerningGroup = H;
unicode = 0048;
},
{
glyphname = I;
lastChange = "2018-05-30 20:59:19 +0000";
layers = (
{
anchors = (
{
name = bottom;
position = "{300, 0}";
},
{
name = ogonek;
position = "{299, 0}";
},
{
name = top;
position = "{300, 700}";
},
{
name = topleft;
position = "{20, 700}";
}
);
layerId = "5521DC30-183F-421A-91F3-644B5E24AFE6";
paths = (
{
closed = 1;
nodes = (
"505 700 LINE",
"93 700 LINE",
"93 588 LINE",
"222 588 LINE",
"222 112 LINE",
"93 112 LINE",
"93 0 LINE",
"505 0 LINE",
"505 112 LINE",
"375 112 LINE",
"375 588 LINE",
"505 588 LINE"
);
}
);
width = 600;
},
{
anchors = (
{
name = bottom;
position = "{300, 0}";
},
{
name = ogonek;
position = "{303, 0}";
},
{
name = top;
position = "{300, 700}";
},
{
name = topleft;
position = "{20, 700}";
}
);
layerId = "BE68D89F-AB3F-4BDF-B332-ED50D7C47704";
paths = (
{
closed = 1;
nodes = (
"485 700 LINE",
"113 700 LINE",
"113 668 LINE",
"282 668 LINE",
"282 32 LINE",
"113 32 LINE",
"113 0 LINE",
"485 0 LINE",
"485 32 LINE",
"315 32 LINE",
"315 668 LINE",
"485 668 LINE"
);
}
);
width = 600;
},
{
anchors = (
{
name = bottom;
position = "{220, 0}";
},
{
name = ogonek;
position = "{221, 0}";
},
{
name = top;
position = "{219, 700}";
},
{
name = topleft;
position = "{48, 700}";
}
);
layerId = "2E286313-D5BF-4FB4-A4B7-BD9BC13B574E";
paths = (
{
closed = 1;
nodes = (
"345 700 LINE",
"93 700 LINE",
"93 668 LINE",
"202 668 LINE",
"202 32 LINE",
"93 32 LINE",
"93 0 LINE",
"345 0 LINE",
"345 32 LINE",
"235 32 LINE",
"235 668 LINE",
"345 668 LINE"
);
}
);
width = 450;
},
{
anchors = (
{
name = bottom;
position = "{525, 0}";
},
{
name = ogonek;
position = "{530, 0}";
},
{
name = top;
position = "{525, 700}";
},
{
name = topleft;
position = "{35, 700}";
}
);
layerId = "E338D14E-1DA5-418D-88BC-8956EEA80AB9";
paths = (
{
closed = 1;
nodes = (
"849 700 LINE",
"198 700 LINE",
"198 668 LINE",
"506 668 LINE",
"506 32 LINE",
"198 32 LINE",
"198 0 LINE",
"849 0 LINE",
"849 32 LINE",
"540 32 LINE",
"540 668 LINE",
"849 668 LINE"
);
}
);
width = 1050;
}
);
leftKerningGroup = H;
rightKerningGroup = H;
unicode = 0049;
},
{
glyphname = J;
lastChange = "2019-07-14 11:49:08 +0000";
layers = (
{
anchors = (
{
name = bottom;
position = "{300, 0}";
},
{
name = top;
position = "{300, 700}";
}
);
layerId = "5521DC30-183F-421A-91F3-644B5E24AFE6";
paths = (
{
closed = 1;
nodes = (
"113 700 LINE",
"113 588 LINE",
"333 588 LINE",
"333 196 LINE SMOOTH",
"333 136 OFFCURVE",
"286 109 OFFCURVE",
"238 109 CURVE SMOOTH",
"191 109 OFFCURVE",
"145 140 OFFCURVE",
"129 155 CURVE",
"56 43 LINE",
"88 20 OFFCURVE",
"146 -9 OFFCURVE",
"245 -9 CURVE SMOOTH",
"371 -9 OFFCURVE",
"486 53 OFFCURVE",
"486 171 CURVE SMOOTH",
"486 700 LINE"
);
}
);
width = 600;
},
{
anchors = (
{
name = bottom;
position = "{300, 0}";
},
{
name = top;
position = "{300, 700}";
}
);
layerId = "BE68D89F-AB3F-4BDF-B332-ED50D7C47704";
paths = (
{
closed = 1;
nodes = (
"143 700 LINE",
"143 668 LINE",
"403 668 LINE",
"403 191 LINE SMOOTH",
"403 75 OFFCURVE",
"346 24 OFFCURVE",
"238 24 CURVE SMOOTH",
"201 24 OFFCURVE",
"159 31 OFFCURVE",
"126 49 CURVE",
"105 19 LINE",
"143 3 OFFCURVE",
"181 -9 OFFCURVE",
"245 -9 CURVE SMOOTH",
"361 -9 OFFCURVE",
"436 53 OFFCURVE",
"436 171 CURVE SMOOTH",
"436 700 LINE"
);
}
);
width = 600;
},
{
anchors = (
{
name = bottom;
position = "{182, 0}";
},
{
name = top;
position = "{230, 700}";
}
);
layerId = "2E286313-D5BF-4FB4-A4B7-BD9BC13B574E";
paths = (
{
closed = 1;
nodes = (
"133 700 LINE",
"133 668 LINE",
"273 668 LINE",
"273 191 LINE SMOOTH",
"273 75 OFFCURVE",
"252 24 OFFCURVE",
"174 24 CURVE SMOOTH",
"140 24 OFFCURVE",
"116 41 OFFCURVE",
"106 53 CURVE",
"82 26 LINE",
"97 12 OFFCURVE",
"121 -9 OFFCURVE",
"175 -9 CURVE SMOOTH",
"271 -9 OFFCURVE",
"306 53 OFFCURVE",
"306 171 CURVE SMOOTH",
"306 700 LINE"
);
}
);
width = 450;
},
{
anchors = (
{
name = bottom;
position = "{470, 0}";
},
{
name = top;
position = "{496, 700}";
}
);
layerId = "E338D14E-1DA5-418D-88BC-8956EEA80AB9";
paths = (
{
closed = 1;
nodes = (
"240 700 LINE",
"240 668 LINE",
"726 668 LINE",
"726 267 LINE SMOOTH",
"726 70 OFFCURVE",
"615 24 OFFCURVE",
"457 24 CURVE SMOOTH",
"294 24 OFFCURVE",
"231 81 OFFCURVE",
"209 111 CURVE",
"178 84 LINE",
"206 50 OFFCURVE",
"287 -9 OFFCURVE",
"459 -9 CURVE SMOOTH",
"632 -9 OFFCURVE",
"763 52 OFFCURVE",
"763 251 CURVE SMOOTH",
"763 700 LINE"
);
}
);
width = 1050;
}
);
leftKerningGroup = J;
rightKerningGroup = J;
unicode = 004A;
},
{
glyphname = K;
lastChange = "2019-07-14 12:01:10 +0000";
layers = (
{
anchors = (
{
name = bottom;
position = "{320, 0}";
},
{
name = top;
position = "{320, 700}";
}
);
layerId = "5521DC30-183F-421A-91F3-644B5E24AFE6";
paths = (
{
closed = 1;
nodes = (
"623 0 LINE",
"373 359 LINE",
"606 700 LINE",
"419 700 LINE",
"236 415 LINE",
"216 415 LINE",
"216 700 LINE",
"63 700 LINE",
"63 0 LINE",
"216 0 LINE",
"216 303 LINE",
"236 303 LINE",
"436 0 LINE"
);
}
);
width = 600;
},
{
anchors = (
{
name = bottom;
position = "{300, 0}";
},
{
name = top;
position = "{300, 700}";
}
);
layerId = "BE68D89F-AB3F-4BDF-B332-ED50D7C47704";
paths = (
{
closed = 1;
nodes = (
"533 0 LINE",
"275 358 LINE",
"516 700 LINE",
"474 700 LINE",
"245 375 LINE",
"166 375 LINE",
"166 700 LINE",
"133 700 LINE",
"133 0 LINE",
"166 0 LINE",
"166 343 LINE",
"244 343 LINE",
"491 0 LINE"
);
}
);
width = 600;
},
{
anchors = (
{
name = bottom;
position = "{240, 0}";
},
{
name = top;
position = "{240, 700}";
}
);
layerId = "2E286313-D5BF-4FB4-A4B7-BD9BC13B574E";
paths = (
{
closed = 1;
nodes = (
"387 0 LINE",
"231 356 LINE",
"370 700 LINE",
"334 700 LINE",
"206 375 LINE",
"166 375 LINE",
"166 700 LINE",
"133 700 LINE",
"133 0 LINE",
"166 0 LINE",
"166 343 LINE",
"201 343 LINE",
"351 0 LINE"
);
}
);
width = 450;
},
{
anchors = (
{
name = bottom;
position = "{545, 0}";
},
{
name = top;
position = "{545, 700}";
}
);
layerId = "E338D14E-1DA5-418D-88BC-8956EEA80AB9";
paths = (
{
closed = 1;
nodes = (
"879 0 LINE",
"478 358 LINE",
"850 700 LINE",
"799 700 LINE",
"448 375 LINE",
"311 375 LINE",
"311 700 LINE",
"277 700 LINE",
"277 0 LINE",
"311 0 LINE",
"311 343 LINE",
"442 343 LINE",
"828 0 LINE"
);
}
);
width = 1050;
}
);
leftKerningGroup = H;
rightKerningGroup = K;
unicode = 004B;
},
{
glyphname = L;
lastChange = "2018-05-30 20:59:54 +0000";
layers = (
{
anchors = (
{
name = bottom;
position = "{340, 0}";
},
{
name = center;
position = "{202, 350}";
},
{
name = top;
position = "{320, 700}";
},
{
name = topright;
position = "{463, 700}";
}
);
layerId = "5521DC30-183F-421A-91F3-644B5E24AFE6";
paths = (
{
closed = 1;
nodes = (
"263 700 LINE",
"110 700 LINE",
"110 0 LINE",
"554 0 LINE",
"554 112 LINE",
"263 112 LINE"
);
}
);
width = 600;
},
{
anchors = (
{
name = bottom;
position = "{300, 0}";
},
{
name = center;
position = "{188, 333}";
},
{
name = top;
position = "{300, 700}";
},
{
name = topright;
position = "{475, 700}";
}
);
layerId = "BE68D89F-AB3F-4BDF-B332-ED50D7C47704";
paths = (
{
closed = 1;
nodes = (
"166 700 LINE",
"133 700 LINE",
"133 0 LINE",
"507 0 LINE",
"507 32 LINE",
"166 32 LINE"
);
}
);
width = 600;
},
{
anchors = (
{
name = bottom;
position = "{250, 0}";
},
{
name = center;
position = "{138, 333}";
},
{
name = top;
position = "{250, 700}";
},
{
name = topright;
position = "{425, 700}";
}
);
layerId = "2E286313-D5BF-4FB4-A4B7-BD9BC13B574E";
paths = (
{
closed = 1;
nodes = (
"166 700 LINE",
"133 700 LINE",
"133 0 LINE",
"387 0 LINE",
"387 32 LINE",
"166 32 LINE"
);
}
);
width = 450;
},
{
anchors = (
{
name = bottom;
position = "{545, 0}";
},
{
name = center;
position = "{329, 333}";
},
{
name = top;
position = "{545, 700}";
},
{
name = topright;
position = "{851, 700}";
}
);
layerId = "E338D14E-1DA5-418D-88BC-8956EEA80AB9";
paths = (
{
closed = 1;
nodes = (
"289 700 LINE",
"253 700 LINE",
"253 0 LINE",
"895 0 LINE",
"895 32 LINE",
"289 32 LINE"
);
}
);
width = 1050;
}
);
leftKerningGroup = H;
rightKerningGroup = L;
unicode = 004C;
},
{
glyphname = Lslash;
lastChange = "2018-05-25 13:00:06 +0000";
layers = (
{
components = (
{
name = L;
transform = "{1, 0, 0, 1, 10, 0}";
}
);
layerId = "5521DC30-183F-421A-91F3-644B5E24AFE6";
paths = (
{
closed = 1;
nodes = (
"37 133 LINE",
"399 435 LINE",
"399 576 LINE",
"37 273 LINE"
);
}
);
width = 600;
},
{
components = (
{
name = L;
transform = "{1, 0, 0, 1, 20, 0}";
}
);
layerId = "BE68D89F-AB3F-4BDF-B332-ED50D7C47704";
paths = (
{
closed = 1;
nodes = (
"87 208 LINE",
"339 460 LINE",
"339 501 LINE",
"87 248 LINE"
);
}
);
width = 600;
},
{
components = (
{
name = L;
transform = "{1, 0, 0, 1, 20, 0}";
}
);
layerId = "2E286313-D5BF-4FB4-A4B7-BD9BC13B574E";
paths = (
{
closed = 1;
nodes = (
"47 208 LINE",
"299 460 LINE",
"299 501 LINE",
"47 248 LINE"
);
}
);
width = 450;
},
{
components = (
{
name = L;
transform = "{1, 0, 0, 1, 72, 0}";
}
);
layerId = "E338D14E-1DA5-418D-88BC-8956EEA80AB9";
paths = (
{
closed = 1;
nodes = (
"212 208 LINE",
"464 460 LINE",
"464 501 LINE",
"212 248 LINE"
);
}
);
width = 1050;
}
);
unicode = 0141;
},
{
glyphname = M;
lastChange = "2019-07-14 12:02:28 +0000";
layers = (
{
anchors = (
{
name = bottom;
position = "{300, 0}";
},
{
name = top;
position = "{300, 700}";
}
);
layerId = "5521DC30-183F-421A-91F3-644B5E24AFE6";
paths = (
{
closed = 1;
nodes = (
"358 88 LINE",
"443 500 LINE",
"457 700 LINE",
"389 700 LINE",
"307 362 LINE",
"284 88 LINE"
);
},
{
closed = 1;
nodes = (
"153 0 LINE",
"161 700 LINE",
"34 700 LINE",
"10 0 LINE"
);
},
{
closed = 1;
nodes = (
"316 88 LINE",
"295 362 LINE",
"211 700 LINE",
"143 700 LINE",
"157 500 LINE",
"242 88 LINE"
);
},
{
closed = 1;
nodes = (
"590 0 LINE",
"566 700 LINE",
"439 700 LINE",
"447 0 LINE"
);
}
);
width = 600;
},
{
anchors = (
{
name = bottom;
position = "{300, 0}";
},
{
name = top;
position = "{300, 700}";
}
);
layerId = "BE68D89F-AB3F-4BDF-B332-ED50D7C47704";
paths = (
{
closed = 1;
nodes = (
"320 40 LINE",
"475 632 LINE",
"480 700 LINE",
"459 700 LINE",
"317 156 LINE",
"288 40 LINE"
);
},
{
closed = 1;
nodes = (
"96 0 LINE",
"132 700 LINE",
"101 700 LINE",
"62 0 LINE"
);
},
{
closed = 1;
nodes = (
"311 40 LINE",
"281 156 LINE",
"141 700 LINE",
"122 700 LINE",
"125 632 LINE",
"279 40 LINE"
);
},
{
closed = 1;
nodes = (
"538 0 LINE",
"499 700 LINE",
"468 700 LINE",
"504 0 LINE"
);
}
);
width = 600;
},
{
anchors = (
{
name = bottom;
position = "{230, 0}";
},
{
name = top;
position = "{230, 700}";
}
);
layerId = "2E286313-D5BF-4FB4-A4B7-BD9BC13B574E";
paths = (
{
closed = 1;
nodes = (
"246 70 LINE",
"349 672 LINE",
"349 700 LINE",
"319 700 LINE",
"229 145 LINE",
"216 70 LINE"
);
},
{
closed = 1;
nodes = (
"96 0 LINE",
"112 700 LINE",
"81 700 LINE",
"62 0 LINE"
);
},
{
closed = 1;
nodes = (
"244 70 LINE",
"230 145 LINE",
"141 700 LINE",
"111 700 LINE",
"111 672 LINE",
"213 70 LINE"
);
},
{
closed = 1;
nodes = (
"398 0 LINE",
"379 700 LINE",
"348 700 LINE",
"364 0 LINE"
);
}
);
width = 450;
},
{
anchors = (
{
name = bottom;
position = "{525, 0}";
},
{
name = top;
position = "{525, 700}";
}
);
layerId = "E338D14E-1DA5-418D-88BC-8956EEA80AB9";
paths = (
{
closed = 1;
nodes = (
"554 40 LINE",
"825 639 LINE",
"834 700 LINE",
"813 700 LINE",
"529 74 LINE",
"514 40 LINE"
);
},
{
closed = 1;
nodes = (
"160 0 LINE",
"233 700 LINE",
"197 700 LINE",
"123 0 LINE"
);
},
{
closed = 1;
nodes = (
"534 40 LINE",
"519 74 LINE",
"237 700 LINE",
"220 700 LINE",
"225 639 LINE",
"494 40 LINE"
);
},
{
closed = 1;
nodes = (
"928 0 LINE",
"853 700 LINE",
"818 700 LINE",
"891 0 LINE"
);
}
);
width = 1050;
}
);
leftKerningGroup = M;
rightKerningGroup = M;
unicode = 004D;
},
{
glyphname = N;
lastChange = "2019-07-14 12:07:49 +0000";
layers = (
{
anchors = (
{
name = bottom;
position = "{300, 0}";
},
{
name = top;
position = "{300, 700}";
}
);
layerId = "5521DC30-183F-421A-91F3-644B5E24AFE6";
paths = (
{
closed = 1;
nodes = (
"376 230 LINE",
"250 700 LINE",
"69 700 LINE",
"69 0 LINE",
"222 0 LINE",
"222 464 LINE",
"346 0 LINE",
"529 0 LINE",
"529 700 LINE",
"376 700 LINE"
);
}
);
width = 600;
},
{
anchors = (
{
name = bottom;
position = "{300, 0}";
},
{
name = top;
position = "{300, 700}";
}
);
layerId = "BE68D89F-AB3F-4BDF-B332-ED50D7C47704";
paths = (
{
closed = 1;
nodes = (
"458 64 LINE",
"149 700 LINE",
"111 700 LINE",
"111 0 LINE",
"144 0 LINE",
"144 634 LINE",
"453 0 LINE",
"491 0 LINE",
"491 700 LINE",
"458 700 LINE"
);
}
);
width = 600;
},
{
anchors = (
{
name = bottom;
position = "{230, 0}";
},
{
name = top;
position = "{230, 700}";
}
);
layerId = "2E286313-D5BF-4FB4-A4B7-BD9BC13B574E";
paths = (
{
closed = 1;
nodes = (
"348 85 LINE",
"117 700 LINE",
"81 700 LINE",
"81 0 LINE",
"114 0 LINE",
"114 617 LINE",
"345 0 LINE",
"381 0 LINE",
"381 700 LINE",
"348 700 LINE"
);
}
);
width = 450;
},
{
anchors = (
{
name = bottom;
position = "{525, 0}";
},
{
name = top;
position = "{525, 700}";
}
);
layerId = "E338D14E-1DA5-418D-88BC-8956EEA80AB9";
paths = (
{
closed = 1;
nodes = (
"832 47 LINE",
"221 700 LINE",
"189 700 LINE",
"189 0 LINE",
"222 0 LINE",
"222 652 LINE",
"833 0 LINE",
"864 0 LINE",
"864 700 LINE",
"832 700 LINE"
);
}
);
width = 1050;
}
);
leftKerningGroup = H;
rightKerningGroup = H;
unicode = 004E;
},
{
glyphname = Eng;
lastChange = "2018-05-30 21:01:25 +0000";
layers = (
{
layerId = "5521DC30-183F-421A-91F3-644B5E24AFE6";
paths = (
{
closed = 1;
nodes = (
"398 320 LINE",
"204 700 LINE",
"51 700 LINE",
"51 0 LINE",
"204 0 LINE",
"204 421 LINE",
"420 0 LINE",
"420 -46 OFFCURVE",
"391 -69 OFFCURVE",
"333 -69 CURVE SMOOTH",
"292 -69 OFFCURVE",
"244 -62 OFFCURVE",
"228 -56 CURVE",
"196 -179 LINE",
"220 -185 OFFCURVE",
"288 -192 OFFCURVE",
"340 -192 CURVE SMOOTH",
"456 -192 OFFCURVE",
"551 -140 OFFCURVE",
"551 -12 CURVE SMOOTH",
"551 700 LINE",
"398 700 LINE"
);
}
);
width = 600;
},
{
layerId = "BE68D89F-AB3F-4BDF-B332-ED50D7C47704";
paths = (
{
closed = 1;
nodes = (
"458 74 LINE",
"157 700 LINE",
"111 700 LINE",
"111 0 LINE",
"144 0 LINE",
"144 652 LINE",
"458 0 LINE",
"458 -136 OFFCURVE",
"401 -159 OFFCURVE",
"313 -159 CURVE SMOOTH",
"272 -159 OFFCURVE",
"221 -149 OFFCURVE",
"205 -145 CURVE",
"196 -178 LINE",
"220 -184 OFFCURVE",
"268 -192 OFFCURVE",
"320 -192 CURVE SMOOTH",
"436 -192 OFFCURVE",
"491 -125 OFFCURVE",
"491 -7 CURVE SMOOTH",
"491 700 LINE",
"458 700 LINE"
);
}
);
width = 600;
},
{
layerId = "2E286313-D5BF-4FB4-A4B7-BD9BC13B574E";
paths = (
{
closed = 1;
nodes = (
"338 100 LINE",
"114 700 LINE",
"81 700 LINE",
"81 0 LINE",
"114 0 LINE",
"114 602 LINE",
"338 0 LINE",
"338 -136 OFFCURVE",
"304 -159 OFFCURVE",
"238 -159 CURVE SMOOTH",
"207 -159 OFFCURVE",
"169 -149 OFFCURVE",
"157 -145 CURVE",
"150 -178 LINE",
"168 -184 OFFCURVE",
"204 -192 OFFCURVE",
"243 -192 CURVE SMOOTH",
"330 -192 OFFCURVE",
"371 -125 OFFCURVE",
"371 -7 CURVE SMOOTH",
"371 700 LINE",
"338 700 LINE"
);
}
);
width = 450;
},
{
layerId = "E338D14E-1DA5-418D-88BC-8956EEA80AB9";
paths = (
{
closed = 1;
nodes = (
"812 51 LINE",
"242 700 LINE",
"209 700 LINE",
"209 0 LINE",
"242 0 LINE",
"242 648 LINE",
"812 0 LINE",
"812 -136 OFFCURVE",
"709 -159 OFFCURVE",
"621 -159 CURVE SMOOTH",
"560 -159 OFFCURVE",
"454 -139 OFFCURVE",
"438 -135 CURVE",
"429 -168 LINE",
"453 -174 OFFCURVE",
"551 -192 OFFCURVE",
"623 -192 CURVE SMOOTH",
"739 -192 OFFCURVE",
"844 -153 OFFCURVE",
"844 -7 CURVE SMOOTH",
"844 700 LINE",
"812 700 LINE"
);
}
);
width = 1050;
}
);
unicode = 014A;
},
{
glyphname = O;
lastChange = "2019-07-14 12:09:35 +0000";
layers = (
{
anchors = (
{
name = bottom;
position = "{297, 0}";
},
{
name = center;
position = "{300, 350}";
},
{
name = ogonek;
position = "{310, -2}";
},
{
name = top;
position = "{300, 700}";
},
{
name = topleft;
position = "{20, 700}";
},
{
name = topright;
position = "{580, 700}";
}
);
layerId = "5521DC30-183F-421A-91F3-644B5E24AFE6";
paths = (
{
closed = 1;
nodes = (
"456 -11 OFFCURVE",
"574 90 OFFCURVE",
"574 348 CURVE SMOOTH",
"574 605 OFFCURVE",
"456 706 OFFCURVE",
"300 706 CURVE SMOOTH",
"143 706 OFFCURVE",
"25 605 OFFCURVE",
"25 348 CURVE SMOOTH",
"25 90 OFFCURVE",
"143 -11 OFFCURVE",
"300 -11 CURVE SMOOTH"
);
},
{
closed = 1;
nodes = (
"217 107 OFFCURVE",
"183 194 OFFCURVE",
"183 348 CURVE SMOOTH",
"183 501 OFFCURVE",
"217 588 OFFCURVE",
"300 588 CURVE SMOOTH",
"382 588 OFFCURVE",
"416 501 OFFCURVE",
"416 348 CURVE SMOOTH",
"416 194 OFFCURVE",
"382 107 OFFCURVE",
"300 107 CURVE SMOOTH"
);
}
);
width = 600;
},
{
anchors = (
{
name = bottom;
position = "{296, 0}";
},
{
name = center;
position = "{300, 350}";
},
{
name = ogonek;
position = "{310, -2}";
},
{
name = top;
position = "{300, 700}";
},
{
name = topleft;
position = "{20, 700}";
},
{
name = topright;
position = "{580, 700}";
}
);
layerId = "BE68D89F-AB3F-4BDF-B332-ED50D7C47704";
paths = (
{
closed = 1;
nodes = (
"416 -11 OFFCURVE",
"534 80 OFFCURVE",
"534 348 CURVE SMOOTH",
"534 615 OFFCURVE",
"416 706 OFFCURVE",
"300 706 CURVE SMOOTH",
"183 706 OFFCURVE",
"65 615 OFFCURVE",
"65 348 CURVE SMOOTH",
"65 80 OFFCURVE",
"183 -11 OFFCURVE",
"300 -11 CURVE SMOOTH"
);
},
{
closed = 1;
nodes = (
"197 22 OFFCURVE",
"103 109 OFFCURVE",
"103 348 CURVE SMOOTH",
"103 586 OFFCURVE",
"197 673 OFFCURVE",
"300 673 CURVE SMOOTH",
"402 673 OFFCURVE",
"496 586 OFFCURVE",
"496 348 CURVE SMOOTH",
"496 109 OFFCURVE",
"402 22 OFFCURVE",
"300 22 CURVE SMOOTH"
);
}
);
width = 600;
},
{
anchors = (
{
name = bottom;
position = "{228, 0}";
},
{
name = center;
position = "{239, 350}";
},
{
name = ogonek;
position = "{239, 0}";
},
{
name = top;
position = "{239, 700}";
},
{
name = topleft;
position = "{60, 700}";
},
{
name = topright;
position = "{409, 700}";
}
);
layerId = "2E286313-D5BF-4FB4-A4B7-BD9BC13B574E";
paths = (
{
closed = 1;
nodes = (
"304 -11 OFFCURVE",
"388 50 OFFCURVE",
"388 348 CURVE SMOOTH",
"388 645 OFFCURVE",
"304 706 OFFCURVE",
"228 706 CURVE SMOOTH",
"151 706 OFFCURVE",
"67 645 OFFCURVE",
"67 348 CURVE SMOOTH",
"67 50 OFFCURVE",
"151 -11 OFFCURVE",
"228 -11 CURVE SMOOTH"
);
},
{
closed = 1;
nodes = (
"175 22 OFFCURVE",
"101 79 OFFCURVE",
"101 348 CURVE SMOOTH",
"101 616 OFFCURVE",
"175 673 OFFCURVE",
"228 673 CURVE SMOOTH",
"280 673 OFFCURVE",
"354 616 OFFCURVE",
"354 348 CURVE SMOOTH",
"354 79 OFFCURVE",
"280 22 OFFCURVE",
"228 22 CURVE SMOOTH"
);
}
);
width = 450;
},
{
anchors = (
{
name = bottom;
position = "{518, 0}";
},
{
name = center;
position = "{525, 350}";
},
{
name = ogonek;
position = "{543, -2}";
},
{
name = top;
position = "{525, 700}";
},
{
name = topleft;
position = "{35, 700}";
},
{
name = topright;
position = "{1015, 700}";
}
);
layerId = "E338D14E-1DA5-418D-88BC-8956EEA80AB9";
paths = (
{
closed = 1;
nodes = (
"719 -11 OFFCURVE",
"933 90 OFFCURVE",
"933 348 CURVE SMOOTH",
"933 605 OFFCURVE",
"719 706 OFFCURVE",
"526 706 CURVE SMOOTH",
"331 706 OFFCURVE",
"117 605 OFFCURVE",
"117 348 CURVE SMOOTH",
"117 90 OFFCURVE",
"331 -11 OFFCURVE",
"526 -11 CURVE SMOOTH"
);
},
{
closed = 1;
nodes = (
"356 22 OFFCURVE",
"155 119 OFFCURVE",
"155 348 CURVE SMOOTH",
"155 576 OFFCURVE",
"356 673 OFFCURVE",
"526 673 CURVE SMOOTH",
"694 673 OFFCURVE",
"895 576 OFFCURVE",
"895 348 CURVE SMOOTH",
"895 119 OFFCURVE",
"694 22 OFFCURVE",
"526 22 CURVE SMOOTH"
);
}
);
width = 1050;
}
);
leftKerningGroup = O;
rightKerningGroup = O;
unicode = 004F;
},
{
glyphname = OE;
lastChange = "2018-05-31 12:38:55 +0000";
layers = (
{
anchors = (
{
name = bottom;
position = "{300, 0}";
},
{
name = top;
position = "{300, 700}";
}
);
layerId = "5521DC30-183F-421A-91F3-644B5E24AFE6";
paths = (
{
closed = 1;
nodes = (
"263 -11 OFFCURVE",
"296 -3 OFFCURVE",
"325 19 CURVE",
"269 138 LINE",
"254 120 OFFCURVE",
"245 112 OFFCURVE",
"227 112 CURVE SMOOTH",
"184 112 OFFCURVE",
"160 144 OFFCURVE",
"160 348 CURVE SMOOTH",
"160 551 OFFCURVE",
"184 583 OFFCURVE",
"227 583 CURVE SMOOTH",
"246 583 OFFCURVE",
"254 576 OFFCURVE",
"269 556 CURVE",
"334 669 LINE",
"303 696 OFFCURVE",
"266 706 OFFCURVE",
"227 706 CURVE SMOOTH",
"120 706 OFFCURVE",
"2 655 OFFCURVE",
"2 348 CURVE SMOOTH",
"2 40 OFFCURVE",
"120 -11 OFFCURVE",
"227 -11 CURVE SMOOTH"
);
},
{
closed = 1;
nodes = (
"582 700 LINE",
"259 700 LINE",
"259 0 LINE",
"582 0 LINE",
"582 122 LINE",
"423 122 LINE",
"423 283 LINE",
"558 283 LINE",
"558 405 LINE",
"423 405 LINE",
"423 578 LINE",
"582 578 LINE"
);
}
);
width = 600;
},
{
anchors = (
{
name = bottom;
position = "{300, 0}";
},
{
name = top;
position = "{300, 700}";
}
);
layerId = "BE68D89F-AB3F-4BDF-B332-ED50D7C47704";
paths = (
{
closed = 1;
nodes = (
"256 -11 OFFCURVE",
"285 -8 OFFCURVE",
"307 0 CURVE",
"302 34 LINE",
"280 25 OFFCURVE",
"257 22 OFFCURVE",
"232 22 CURVE SMOOTH",
"159 22 OFFCURVE",
"75 79 OFFCURVE",
"75 348 CURVE SMOOTH",
"75 616 OFFCURVE",
"159 673 OFFCURVE",
"232 673 CURVE SMOOTH",
"257 673 OFFCURVE",
"280 670 OFFCURVE",
"302 661 CURVE",
"299 700 LINE",
"278 704 OFFCURVE",
"256 706 OFFCURVE",
"232 706 CURVE SMOOTH",
"145 706 OFFCURVE",
"37 645 OFFCURVE",
"37 348 CURVE SMOOTH",
"37 50 OFFCURVE",
"145 -11 OFFCURVE",
"232 -11 CURVE SMOOTH"
);
},
{
closed = 1;
nodes = (
"562 700 LINE",
"299 700 LINE",
"299 0 LINE",
"562 0 LINE",
"562 32 LINE",
"332 32 LINE",
"332 328 LINE",
"538 328 LINE",
"538 360 LINE",
"332 360 LINE",
"332 668 LINE",
"562 668 LINE"
);
}
);
width = 600;
},
{
anchors = (
{
name = bottom;
position = "{225, 0}";
},
{
name = top;
position = "{225, 700}";
}
);
layerId = "2E286313-D5BF-4FB4-A4B7-BD9BC13B574E";
paths = (
{
closed = 1;
nodes = (
"201 -11 OFFCURVE",
"223 -8 OFFCURVE",
"239 0 CURVE",
"236 34 LINE",
"219 25 OFFCURVE",
"202 22 OFFCURVE",
"183 22 CURVE SMOOTH",
"128 22 OFFCURVE",
"66 79 OFFCURVE",
"66 348 CURVE SMOOTH",
"66 616 OFFCURVE",
"128 673 OFFCURVE",
"183 673 CURVE SMOOTH",
"202 673 OFFCURVE",
"219 670 OFFCURVE",
"236 661 CURVE",
"233 700 LINE",
"218 704 OFFCURVE",
"201 706 OFFCURVE",
"183 706 CURVE SMOOTH",
"118 706 OFFCURVE",
"28 645 OFFCURVE",
"28 348 CURVE SMOOTH",
"28 50 OFFCURVE",
"118 -11 OFFCURVE",
"183 -11 CURVE SMOOTH"
);
},
{
closed = 1;
nodes = (
"431 700 LINE",
"233 700 LINE",
"233 0 LINE",
"431 0 LINE",
"431 32 LINE",
"268 32 LINE",
"268 328 LINE",
"422 328 LINE",
"422 360 LINE",
"268 360 LINE",
"268 668 LINE",
"431 668 LINE"
);
}
);
width = 450;
},
{
anchors = (
{
name = bottom;
position = "{525, 0}";
},
{
name = top;
position = "{525, 700}";
}
);
layerId = "E338D14E-1DA5-418D-88BC-8956EEA80AB9";
paths = (
{
closed = 1;
nodes = (
"448 -11 OFFCURVE",
"499 -8 OFFCURVE",
"537 0 CURVE",
"529 34 LINE",
"490 25 OFFCURVE",
"450 22 OFFCURVE",
"406 22 CURVE SMOOTH",
"278 22 OFFCURVE",
"119 79 OFFCURVE",
"119 348 CURVE SMOOTH",
"119 616 OFFCURVE",
"278 673 OFFCURVE",
"406 673 CURVE SMOOTH",
"450 673 OFFCURVE",
"490 670 OFFCURVE",
"529 661 CURVE",
"523 700 LINE",
"484 706 OFFCURVE",
"448 706 OFFCURVE",
"406 706 CURVE SMOOTH",
"254 706 OFFCURVE",
"80 645 OFFCURVE",
"80 348 CURVE SMOOTH",
"80 50 OFFCURVE",
"254 -11 OFFCURVE",
"406 -11 CURVE SMOOTH"
);
},
{
closed = 1;
nodes = (
"984 700 LINE",
"523 700 LINE",
"523 0 LINE",
"984 0 LINE",
"984 32 LINE",
"557 32 LINE",
"557 328 LINE",
"942 328 LINE",
"942 360 LINE",
"557 360 LINE",
"557 668 LINE",
"984 668 LINE"
);
}
);
width = 1050;
}
);
unicode = 0152;
},
{
glyphname = P;
lastChange = "2019-07-14 12:11:28 +0000";
layers = (
{
anchors = (
{
name = bottom;
position = "{280, 0}";
},
{
name = top;
position = "{280, 700}";
}
);
layerId = "5521DC30-183F-421A-91F3-644B5E24AFE6";
paths = (
{
closed = 1;
nodes = (
"305 588 LINE SMOOTH",
"350 588 OFFCURVE",
"396 556 OFFCURVE",
"396 472 CURVE SMOOTH",
"396 373 OFFCURVE",
"350 347 OFFCURVE",
"305 347 CURVE SMOOTH",
"234 347 LINE",
"234 588 LINE"
);
},
{
closed = 1;
nodes = (
"386 235 OFFCURVE",
"551 263 OFFCURVE",
"551 479 CURVE SMOOTH",
"551 680 OFFCURVE",
"386 700 OFFCURVE",
"302 700 CURVE SMOOTH",
"81 700 LINE",
"81 0 LINE",
"234 0 LINE",
"234 235 LINE",
"302 235 LINE SMOOTH"
);
}
);
width = 600;
},
{
anchors = (
{
name = bottom;
position = "{300, 0}";
},
{
name = top;
position = "{300, 700}";
}
);
layerId = "BE68D89F-AB3F-4BDF-B332-ED50D7C47704";
paths = (
{
closed = 1;
nodes = (
"325 668 LINE SMOOTH",
"390 668 OFFCURVE",
"496 653 OFFCURVE",
"496 479 CURVE SMOOTH",
"496 305 OFFCURVE",
"390 282 OFFCURVE",
"325 282 CURVE SMOOTH",
"164 282 LINE",
"164 668 LINE"
);
},
{
closed = 1;
nodes = (
"396 250 OFFCURVE",
"530 278 OFFCURVE",
"530 479 CURVE SMOOTH",
"530 680 OFFCURVE",
"396 700 OFFCURVE",
"312 700 CURVE SMOOTH",
"131 700 LINE",
"131 0 LINE",
"164 0 LINE",
"164 250 LINE",
"312 250 LINE SMOOTH"
);
}
);
width = 600;
},
{
anchors = (
{
name = bottom;
position = "{143, 0}";
},
{
name = top;
position = "{143, 700}";
}
);
layerId = "2E286313-D5BF-4FB4-A4B7-BD9BC13B574E";
paths = (
{
closed = 1;
nodes = (
"231 668 LINE SMOOTH",
"282 668 OFFCURVE",
"351 643 OFFCURVE",
"351 479 CURVE SMOOTH",
"351 315 OFFCURVE",
"282 282 OFFCURVE",
"231 282 CURVE SMOOTH",
"138 282 LINE",
"138 668 LINE"
);
},
{
closed = 1;
nodes = (
"285 250 OFFCURVE",
"387 288 OFFCURVE",
"387 479 CURVE SMOOTH",
"387 670 OFFCURVE",
"285 700 OFFCURVE",
"229 700 CURVE SMOOTH",
"103 700 LINE",
"103 0 LINE",
"138 0 LINE",
"138 250 LINE",
"229 250 LINE SMOOTH"
);
}
);
width = 450;
},
{
anchors = (
{
name = bottom;
position = "{525, 0}";
},
{
name = top;
position = "{525, 700}";
}
);
layerId = "E338D14E-1DA5-418D-88BC-8956EEA80AB9";
paths = (
{
closed = 1;
nodes = (
"586 668 LINE SMOOTH",
"700 668 OFFCURVE",
"868 663 OFFCURVE",
"868 479 CURVE SMOOTH",
"868 295 OFFCURVE",
"700 282 OFFCURVE",
"586 282 CURVE SMOOTH",
"277 282 LINE",
"277 668 LINE"
);
},
{
closed = 1;
nodes = (
"711 250 OFFCURVE",
"906 268 OFFCURVE",
"906 479 CURVE SMOOTH",
"906 690 OFFCURVE",
"711 700 OFFCURVE",
"564 700 CURVE SMOOTH",
"244 700 LINE",
"244 0 LINE",
"277 0 LINE",
"277 250 LINE",
"564 250 LINE SMOOTH"
);
}
);
width = 1050;
}
);
leftKerningGroup = H;
rightKerningGroup = P;
unicode = 0050;
},
{
glyphname = Thorn;
lastChange = "2018-05-30 21:02:01 +0000";
layers = (
{
anchors = (
{
name = bottom;
position = "{300, 0}";
},
{
name = top;
position = "{300, 700}";
}
);
layerId = "5521DC30-183F-421A-91F3-644B5E24AFE6";
paths = (
{
closed = 1;
nodes = (
"234 588 LINE",
"234 700 LINE",
"81 700 LINE",
"81 0 LINE",
"234 0 LINE",
"234 128 LINE",
"282 128 LINE SMOOTH",
"366 128 OFFCURVE",
"530 146 OFFCURVE",
"530 367 CURVE SMOOTH",
"530 578 OFFCURVE",
"366 588 OFFCURVE",
"282 588 CURVE SMOOTH"
);
},
{
closed = 1;
nodes = (
"234 240 LINE",
"234 476 LINE",
"275 476 LINE SMOOTH",
"340 476 OFFCURVE",
"376 471 OFFCURVE",
"376 367 CURVE SMOOTH",
"376 253 OFFCURVE",
"340 240 OFFCURVE",
"275 240 CURVE SMOOTH"
);
}
);
width = 600;
},
{
anchors = (
{
name = bottom;
position = "{300, 0}";
},
{
name = top;
position = "{300, 700}";
}
);
layerId = "BE68D89F-AB3F-4BDF-B332-ED50D7C47704";
paths = (
{
closed = 1;
nodes = (
"164 588 LINE",
"164 700 LINE",
"131 700 LINE",
"131 0 LINE",
"164 0 LINE",
"164 128 LINE",
"282 128 LINE SMOOTH",
"366 128 OFFCURVE",
"480 146 OFFCURVE",
"480 367 CURVE SMOOTH",
"480 578 OFFCURVE",
"366 588 OFFCURVE",
"282 588 CURVE SMOOTH"
);
},
{
closed = 1;
nodes = (
"164 160 LINE",
"164 556 LINE",
"295 556 LINE SMOOTH",
"360 556 OFFCURVE",
"446 551 OFFCURVE",
"446 367 CURVE SMOOTH",
"446 173 OFFCURVE",
"360 160 OFFCURVE",
"295 160 CURVE SMOOTH"
);
}
);
width = 600;
},
{
anchors = (
{
name = bottom;
position = "{225, 0}";
},
{
name = top;
position = "{225, 700}";
}
);
layerId = "2E286313-D5BF-4FB4-A4B7-BD9BC13B574E";
paths = (
{
closed = 1;
nodes = (
"133 588 LINE",
"133 700 LINE",
"98 700 LINE",
"98 0 LINE",
"133 0 LINE",
"133 128 LINE",
"222 128 LINE SMOOTH",
"285 128 OFFCURVE",
"380 146 OFFCURVE",
"380 367 CURVE SMOOTH",
"380 578 OFFCURVE",
"285 588 OFFCURVE",
"222 588 CURVE SMOOTH"
);
},
{
closed = 1;
nodes = (
"133 160 LINE",
"133 556 LINE",
"231 556 LINE SMOOTH",
"280 556 OFFCURVE",
"345 551 OFFCURVE",
"345 367 CURVE SMOOTH",
"345 173 OFFCURVE",
"280 160 OFFCURVE",
"231 160 CURVE SMOOTH"
);
}
);
width = 450;
},
{
anchors = (
{
name = bottom;
position = "{525, 0}";
},
{
name = top;
position = "{525, 700}";
}
);
layerId = "E338D14E-1DA5-418D-88BC-8956EEA80AB9";
paths = (
{
closed = 1;
nodes = (
"267 588 LINE",
"267 700 LINE",
"234 700 LINE",
"234 0 LINE",
"267 0 LINE",
"267 128 LINE",
"494 128 LINE SMOOTH",
"641 128 OFFCURVE",
"839 146 OFFCURVE",
"839 367 CURVE SMOOTH",
"839 578 OFFCURVE",
"641 588 OFFCURVE",
"494 588 CURVE SMOOTH"
);
},
{
closed = 1;
nodes = (
"267 160 LINE",
"267 556 LINE",
"516 556 LINE SMOOTH",
"630 556 OFFCURVE",
"801 551 OFFCURVE",
"801 367 CURVE SMOOTH",
"801 173 OFFCURVE",
"630 160 OFFCURVE",
"516 160 CURVE SMOOTH"
);
}
);
width = 1050;
}
);
unicode = 00DE;
},
{
glyphname = Q;
lastChange = "2019-07-14 12:13:39 +0000";
layers = (
{
anchors = (
{
name = bottom;
position = "{300, 0}";
},
{
name = top;
position = "{300, 700}";
}
);
components = (
{
name = O;
}
);
layerId = "5521DC30-183F-421A-91F3-644B5E24AFE6";
paths = (
{
closed = 1;
nodes = (
"590 -9 LINE",
"426 156 LINE",
"322 51 LINE",
"484 -110 LINE"
);
}
);
width = 600;
},
{
anchors = (
{
name = bottom;
position = "{300, 0}";
},
{
name = top;
position = "{300, 700}";
}
);
components = (
{
name = O;
}
);
layerId = "BE68D89F-AB3F-4BDF-B332-ED50D7C47704";
paths = (
{
closed = 1;
nodes = (
"530 -26 LINE",
"435 69 LINE",
"409 42 LINE",
"503 -52 LINE"
);
}
);
width = 600;
},
{
anchors = (
{
name = bottom;
position = "{300, 0}";
},
{
name = top;
position = "{300, 700}";
}
);
components = (
{
name = O;
}
);
layerId = "2E286313-D5BF-4FB4-A4B7-BD9BC13B574E";
paths = (
{
closed = 1;
nodes = (
"407 -26 LINE",
"327 54 LINE",
"301 27 LINE",
"380 -52 LINE"
);
}
);
width = 450;
},
{
anchors = (
{
name = bottom;
position = "{525, 0}";
},
{
name = top;
position = "{525, 700}";
}
);
components = (
{
name = O;
}
);
layerId = "E338D14E-1DA5-418D-88BC-8956EEA80AB9";
paths = (
{
closed = 1;
nodes = (
"887 -72 LINE",
"744 65 LINE",
"716 35 LINE",
"857 -100 LINE"
);
}
);
width = 1050;
}
);
unicode = 0051;
},
{
glyphname = Q.ss01;
lastChange = "2018-05-22 18:15:30 +0000";
layers = (
{
anchors = (
{
name = bottom;
position = "{300, 0}";
},
{
name = top;
position = "{300, 700}";
}
);
layerId = "5521DC30-183F-421A-91F3-644B5E24AFE6";
paths = (
{
closed = 1;
nodes = (
"463 -11 OFFCURVE",
"571 60 OFFCURVE",
"571 348 CURVE SMOOTH",
"571 635 OFFCURVE",
"463 706 OFFCURVE",
"297 706 CURVE SMOOTH",
"130 706 OFFCURVE",
"22 635 OFFCURVE",
"22 348 CURVE SMOOTH",
"22 60 OFFCURVE",
"130 -11 OFFCURVE",
"297 -11 CURVE SMOOTH"
);
},
{
closed = 1;
nodes = (
"608 -66 LINE",
"598 44 OFFCURVE",
"507 141 OFFCURVE",
"327 109 CURVE",
"351 -8 LINE",
"436 8 OFFCURVE",
"484 -76 OFFCURVE",
"499 -162 CURVE"
);
},
{
closed = 1;
nodes = (
"224 107 OFFCURVE",
"180 164 OFFCURVE",
"180 348 CURVE SMOOTH",
"180 531 OFFCURVE",
"224 588 OFFCURVE",
"297 588 CURVE SMOOTH",
"369 588 OFFCURVE",
"413 531 OFFCURVE",
"413 348 CURVE SMOOTH",
"413 164 OFFCURVE",
"369 107 OFFCURVE",
"297 107 CURVE SMOOTH"
);
}
);
width = 600;
},
{
anchors = (
{
name = bottom;
position = "{300, 0}";
},
{
name = top;
position = "{300, 700}";
}
);
layerId = "BE68D89F-AB3F-4BDF-B332-ED50D7C47704";
paths = (
{
closed = 1;
nodes = (
"413 -11 OFFCURVE",
"521 50 OFFCURVE",
"521 348 CURVE SMOOTH",
"521 645 OFFCURVE",
"413 706 OFFCURVE",
"297 706 CURVE SMOOTH",
"180 706 OFFCURVE",
"72 645 OFFCURVE",
"72 348 CURVE SMOOTH",
"72 50 OFFCURVE",
"180 -11 OFFCURVE",
"297 -11 CURVE SMOOTH"
);
},
{
closed = 1;
nodes = (
"550 -63 LINE",
"540 -3 OFFCURVE",
"435 47 OFFCURVE",
"345 24 CURVE",
"354 -5 LINE",
"429 16 OFFCURVE",
"513 -23 OFFCURVE",
"522 -88 CURVE"
);
},
{
closed = 1;
nodes = (
"194 22 OFFCURVE",
"110 79 OFFCURVE",
"110 348 CURVE SMOOTH",
"110 616 OFFCURVE",
"194 673 OFFCURVE",
"297 673 CURVE SMOOTH",
"399 673 OFFCURVE",
"483 616 OFFCURVE",
"483 348 CURVE SMOOTH",
"483 79 OFFCURVE",
"399 22 OFFCURVE",
"297 22 CURVE SMOOTH"
);
}
);
width = 600;
},
{
anchors = (
{
name = bottom;
position = "{225, 0}";
},
{
name = top;
position = "{225, 700}";
}
);
layerId = "2E286313-D5BF-4FB4-A4B7-BD9BC13B574E";
paths = (
{
closed = 1;
nodes = (
"310 -11 OFFCURVE",
"391 50 OFFCURVE",
"391 348 CURVE SMOOTH",
"391 645 OFFCURVE",
"310 706 OFFCURVE",
"223 706 CURVE SMOOTH",
"135 706 OFFCURVE",
"54 645 OFFCURVE",
"54 348 CURVE SMOOTH",
"54 50 OFFCURVE",
"135 -11 OFFCURVE",
"223 -11 CURVE SMOOTH"
);
},
{
closed = 1;
nodes = (
"422 -66 LINE",
"414 -6 OFFCURVE",
"341 55 OFFCURVE",
"259 24 CURVE",
"266 -5 LINE",
"322 16 OFFCURVE",
"385 -23 OFFCURVE",
"392 -88 CURVE"
);
},
{
closed = 1;
nodes = (
"146 22 OFFCURVE",
"92 79 OFFCURVE",
"92 348 CURVE SMOOTH",
"92 616 OFFCURVE",
"146 673 OFFCURVE",
"223 673 CURVE SMOOTH",
"299 673 OFFCURVE",
"353 616 OFFCURVE",
"353 348 CURVE SMOOTH",
"353 79 OFFCURVE",
"299 22 OFFCURVE",
"223 22 CURVE SMOOTH"
);
}
);
width = 450;
},
{
anchors = (
{
name = bottom;
position = "{527, 0}";
},
{
name = top;
position = "{527, 700}";
}
);
layerId = "E338D14E-1DA5-418D-88BC-8956EEA80AB9";
paths = (
{
closed = 1;
nodes = (
"713 -11 OFFCURVE",
"902 60 OFFCURVE",
"902 348 CURVE SMOOTH",
"902 635 OFFCURVE",
"713 706 OFFCURVE",
"520 706 CURVE SMOOTH",
"325 706 OFFCURVE",
"136 635 OFFCURVE",
"136 348 CURVE SMOOTH",
"136 60 OFFCURVE",
"325 -11 OFFCURVE",
"520 -11 CURVE SMOOTH"
);
},
{
closed = 1;
nodes = (
"829 -73 LINE",
"808 16 OFFCURVE",
"684 47 OFFCURVE",
"594 24 CURVE",
"603 -5 LINE",
"678 16 OFFCURVE",
"778 -14 OFFCURVE",
"801 -98 CURVE"
);
},
{
closed = 1;
nodes = (
"340 22 OFFCURVE",
"174 89 OFFCURVE",
"174 348 CURVE SMOOTH",
"174 606 OFFCURVE",
"340 673 OFFCURVE",
"520 673 CURVE SMOOTH",
"698 673 OFFCURVE",
"864 606 OFFCURVE",
"864 348 CURVE SMOOTH",
"864 89 OFFCURVE",
"698 22 OFFCURVE",
"520 22 CURVE SMOOTH"
);
}
);
width = 1050;
}
);
leftKerningGroup = O;
rightKerningGroup = O;
},
{
glyphname = R;
lastChange = "2019-07-14 12:15:33 +0000";
layers = (
{
anchors = (
{
name = bottom;
position = "{300, 0}";
},
{
name = top;
position = "{300, 700}";
}
);
layerId = "5521DC30-183F-421A-91F3-644B5E24AFE6";
paths = (
{
closed = 1;
nodes = (
"316 588 LINE SMOOTH",
"376 588 OFFCURVE",
"416 561 OFFCURVE",
"416 497 CURVE SMOOTH",
"416 420 OFFCURVE",
"376 392 OFFCURVE",
"316 392 CURVE SMOOTH",
"235 392 LINE",
"235 588 LINE"
);
},
{
closed = 1;
nodes = (
"420 280 OFFCURVE",
"561 305 OFFCURVE",
"561 499 CURVE SMOOTH",
"561 683 OFFCURVE",
"420 700 OFFCURVE",
"336 700 CURVE SMOOTH",
"82 700 LINE",
"82 0 LINE",
"235 0 LINE",
"235 280 LINE",
"336 280 LINE SMOOTH"
);
},
{
closed = 1;
nodes = (
"566 0 LINE",
"442 318 LINE",
"289 313 LINE",
"400 0 LINE"
);
}
);
width = 600;
},
{
anchors = (
{
name = bottom;
position = "{300, 0}";
},
{
name = top;
position = "{300, 700}";
}
);
layerId = "BE68D89F-AB3F-4BDF-B332-ED50D7C47704";
paths = (
{
closed = 1;
nodes = (
"356 668 LINE SMOOTH",
"421 668 OFFCURVE",
"487 623 OFFCURVE",
"487 514 CURVE SMOOTH",
"487 404 OFFCURVE",
"426 352 OFFCURVE",
"361 352 CURVE SMOOTH",
"155 352 LINE",
"155 668 LINE"
);
},
{
closed = 1;
nodes = (
"447 320 OFFCURVE",
"521 385 OFFCURVE",
"521 514 CURVE SMOOTH",
"521 653 OFFCURVE",
"430 700 OFFCURVE",
"346 700 CURVE SMOOTH",
"122 700 LINE",
"122 0 LINE",
"155 0 LINE",
"155 320 LINE",
"363 320 LINE SMOOTH"
);
},
{
closed = 1;
nodes = (
"513 0 LINE",
"379 333 LINE",
"343 333 LINE",
"476 0 LINE"
);
}
);
width = 600;
},
{
anchors = (
{
name = bottom;
position = "{200, 0}";
},
{
name = top;
position = "{200, 700}";
}
);
layerId = "2E286313-D5BF-4FB4-A4B7-BD9BC13B574E";
paths = (
{
closed = 1;
nodes = (
"238 668 LINE SMOOTH",
"303 668 OFFCURVE",
"329 603 OFFCURVE",
"329 494 CURVE SMOOTH",
"329 384 OFFCURVE",
"306 312 OFFCURVE",
"241 312 CURVE SMOOTH",
"145 312 LINE",
"145 668 LINE"
);
},
{
closed = 1;
nodes = (
"306 280 OFFCURVE",
"363 344 OFFCURVE",
"363 494 CURVE SMOOTH",
"363 643 OFFCURVE",
"312 700 OFFCURVE",
"236 700 CURVE SMOOTH",
"112 700 LINE",
"112 0 LINE",
"145 0 LINE",
"145 280 LINE",
"263 280 LINE SMOOTH"
);
},
{
closed = 1;
nodes = (
"363 0 LINE",
"282 313 LINE",
"255 293 LINE",
"327 0 LINE"
);
}
);
width = 450;
},
{
anchors = (
{
name = bottom;
position = "{525, 0}";
},
{
name = top;
position = "{525, 700}";
}
);
layerId = "E338D14E-1DA5-418D-88BC-8956EEA80AB9";
paths = (
{
closed = 1;
nodes = (
"673 668 LINE SMOOTH",
"787 668 OFFCURVE",
"865 633 OFFCURVE",
"865 514 CURVE SMOOTH",
"865 394 OFFCURVE",
"790 352 OFFCURVE",
"682 352 CURVE SMOOTH",
"260 352 LINE",
"260 668 LINE"
);
},
{
closed = 1;
nodes = (
"808 320 OFFCURVE",
"903 375 OFFCURVE",
"903 514 CURVE SMOOTH",
"903 663 OFFCURVE",
"798 700 OFFCURVE",
"651 700 CURVE SMOOTH",
"224 700 LINE",
"224 0 LINE",
"260 0 LINE",
"260 320 LINE",
"671 320 LINE SMOOTH"
);
},
{
closed = 1;
nodes = (
"891 0 LINE",
"692 333 LINE",
"650 333 LINE",
"849 0 LINE"
);
}
);
width = 1050;
}
);
leftKerningGroup = H;
rightKerningGroup = R;
unicode = 0052;
},
{
glyphname = S;
lastChange = "2019-07-14 12:18:21 +0000";
layers = (
{
anchors = (
{
name = bottom;
position = "{294, -1}";
},
{
name = top;
position = "{300, 700}";
}
);
layerId = "5521DC30-183F-421A-91F3-644B5E24AFE6";
paths = (
{
closed = 1;
nodes = (
"249 449 OFFCURVE",
"208 479 OFFCURVE",
"208 520 CURVE SMOOTH",
"208 563 OFFCURVE",
"246 588 OFFCURVE",
"303 588 CURVE SMOOTH",
"357 588 OFFCURVE",
"410 553 OFFCURVE",
"433 500 CURVE",
"554 565 LINE",
"518 657 OFFCURVE",
"413 706 OFFCURVE",
"303 706 CURVE SMOOTH",
"181 706 OFFCURVE",
"49 655 OFFCURVE",
"49 521 CURVE SMOOTH",
"49 368 OFFCURVE",
"213 318 OFFCURVE",
"283 297 CURVE SMOOTH",
"349 277 OFFCURVE",
"404 243 OFFCURVE",
"404 190 CURVE SMOOTH",
"404 132 OFFCURVE",
"353 107 OFFCURVE",
"293 107 CURVE SMOOTH",
"224 107 OFFCURVE",
"178 147 OFFCURVE",
"155 197 CURVE",
"24 132 LINE",
"70 37 OFFCURVE",
"160 -11 OFFCURVE",
"293 -11 CURVE SMOOTH",
"434 -11 OFFCURVE",
"562 44 OFFCURVE",
"562 202 CURVE SMOOTH",
"562 349 OFFCURVE",
"409 400 OFFCURVE",
"325 426 CURVE SMOOTH"
);
}
);
width = 600;
},
{
anchors = (
{
name = bottom;
position = "{306, 0}";
},
{
name = top;
position = "{300, 700}";
}
);
layerId = "BE68D89F-AB3F-4BDF-B332-ED50D7C47704";
paths = (
{
closed = 1;
nodes = (
"191 441 OFFCURVE",
"140 485 OFFCURVE",
"140 553 CURVE SMOOTH",
"140 630 OFFCURVE",
"206 673 OFFCURVE",
"302 673 CURVE SMOOTH",
"396 673 OFFCURVE",
"445 642 OFFCURVE",
"476 577 CURVE",
"509 594 LINE",
"473 666 OFFCURVE",
"406 706 OFFCURVE",
"302 706 CURVE SMOOTH",
"181 706 OFFCURVE",
"103 650 OFFCURVE",
"103 550 CURVE SMOOTH",
"103 465 OFFCURVE",
"168 411 OFFCURVE",
"293 358 CURVE SMOOTH",
"429 300 OFFCURVE",
"496 248 OFFCURVE",
"496 167 CURVE SMOOTH",
"496 85 OFFCURVE",
"434 22 OFFCURVE",
"306 22 CURVE SMOOTH",
"203 22 OFFCURVE",
"143 53 OFFCURVE",
"106 122 CURVE",
"70 104 LINE",
"113 27 OFFCURVE",
"187 -11 OFFCURVE",
"306 -11 CURVE SMOOTH",
"451 -11 OFFCURVE",
"532 61 OFFCURVE",
"532 170 CURVE SMOOTH",
"532 268 OFFCURVE",
"462 321 OFFCURVE",
"293 396 CURVE SMOOTH"
);
}
);
width = 600;
},
{
anchors = (
{
name = bottom;
position = "{235, 0}";
},
{
name = top;
position = "{241, 700}";
}
);
layerId = "2E286313-D5BF-4FB4-A4B7-BD9BC13B574E";
paths = (
{
closed = 1;
nodes = (
"169 431 OFFCURVE",
"129 493 OFFCURVE",
"129 563 CURVE SMOOTH",
"129 631 OFFCURVE",
"179 673 OFFCURVE",
"236 673 CURVE SMOOTH",
"314 673 OFFCURVE",
"342 609 OFFCURVE",
"350 557 CURVE",
"382 571 LINE",
"372 629 OFFCURVE",
"324 706 OFFCURVE",
"236 706 CURVE SMOOTH",
"159 706 OFFCURVE",
"95 645 OFFCURVE",
"95 561 CURVE SMOOTH",
"95 475 OFFCURVE",
"136 413 OFFCURVE",
"223 356 CURVE SMOOTH",
"325 289 OFFCURVE",
"362 237 OFFCURVE",
"362 156 CURVE SMOOTH",
"362 90 OFFCURVE",
"321 22 OFFCURVE",
"235 22 CURVE SMOOTH",
"165 22 OFFCURVE",
"127 81 OFFCURVE",
"115 132 CURVE",
"83 114 LINE",
"100 55 OFFCURVE",
"151 -11 OFFCURVE",
"235 -11 CURVE SMOOTH",
"319 -11 OFFCURVE",
"397 57 OFFCURVE",
"397 165 CURVE SMOOTH",
"397 271 OFFCURVE",
"318 334 OFFCURVE",
"237 387 CURVE SMOOTH"
);
}
);
width = 450;
},
{
anchors = (
{
name = bottom;
position = "{536, 0}";
},
{
name = top;
position = "{525, 700}";
}
);
layerId = "E338D14E-1DA5-418D-88BC-8956EEA80AB9";
paths = (
{
closed = 1;
nodes = (
"339 436 OFFCURVE",
"213 475 OFFCURVE",
"213 553 CURVE SMOOTH",
"213 630 OFFCURVE",
"361 673 OFFCURVE",
"529 673 CURVE SMOOTH",
"697 673 OFFCURVE",
"804 637 OFFCURVE",
"858 572 CURVE",
"891 594 LINE",
"828 666 OFFCURVE",
"711 706 OFFCURVE",
"529 706 CURVE SMOOTH",
"317 706 OFFCURVE",
"173 650 OFFCURVE",
"173 550 CURVE SMOOTH",
"173 455 OFFCURVE",
"298 409 OFFCURVE",
"517 363 CURVE SMOOTH",
"757 312 OFFCURVE",
"893 259 OFFCURVE",
"893 168 CURVE SMOOTH",
"893 86 OFFCURVE",
"760 22 OFFCURVE",
"536 22 CURVE SMOOTH",
"353 22 OFFCURVE",
"233 71 OFFCURVE",
"180 127 CURVE",
"143 104 LINE",
"207 40 OFFCURVE",
"329 -11 OFFCURVE",
"536 -11 CURVE SMOOTH",
"789 -11 OFFCURVE",
"931 61 OFFCURVE",
"931 170 CURVE SMOOTH",
"931 278 OFFCURVE",
"818 337 OFFCURVE",
"518 399 CURVE SMOOTH"
);
}
);
width = 1050;
}
);
leftKerningGroup = S;
rightKerningGroup = S;
unicode = 0053;
},
{
glyphname = T;
lastChange = "2018-05-30 21:03:14 +0000";
layers = (
{
anchors = (
{
name = bottom;
position = "{300, 0}";
},
{
name = center;
position = "{300, 350}";
},
{
name = top;
position = "{300, 700}";
}
);
layerId = "5521DC30-183F-421A-91F3-644B5E24AFE6";
paths = (
{
closed = 1;
nodes = (
"53 700 LINE",
"53 588 LINE",
"222 588 LINE",
"222 0 LINE",
"375 0 LINE",
"375 588 LINE",
"545 588 LINE",
"545 700 LINE"
);
}
);
width = 600;
},
{
anchors = (
{
name = bottom;
position = "{300, 0}";
},
{
name = center;
position = "{300, 350}";
},
{
name = top;
position = "{300, 700}";
}
);
layerId = "BE68D89F-AB3F-4BDF-B332-ED50D7C47704";
paths = (
{
closed = 1;
nodes = (
"73 700 LINE",
"73 668 LINE",
"282 668 LINE",
"282 0 LINE",
"315 0 LINE",
"315 668 LINE",
"525 668 LINE",
"525 700 LINE"
);
}
);
width = 600;
},
{
anchors = (
{
name = bottom;
position = "{226, 0}";
},
{
name = center;
position = "{226, 350}";
},
{
name = top;
position = "{226, 700}";
}
);
layerId = "2E286313-D5BF-4FB4-A4B7-BD9BC13B574E";
paths = (
{
closed = 1;
nodes = (
"59 700 LINE",
"59 668 LINE",
"208 668 LINE",
"208 0 LINE",
"241 0 LINE",
"241 668 LINE",
"391 668 LINE",
"391 700 LINE"
);
}
);
width = 450;
},
{
anchors = (
{
name = bottom;
position = "{525, 0}";
},
{
name = center;
position = "{525, 350}";
},
{
name = top;
position = "{525, 700}";
}
);
layerId = "E338D14E-1DA5-418D-88BC-8956EEA80AB9";
paths = (
{
closed = 1;
nodes = (
"140 700 LINE",
"140 668 LINE",
"506 668 LINE",
"506 0 LINE",
"539 0 LINE",
"539 668 LINE",
"907 668 LINE",
"907 700 LINE"
);
}
);
width = 1050;
}
);
leftKerningGroup = T;
rightKerningGroup = T;
unicode = 0054;
},
{
glyphname = U;
lastChange = "2019-07-14 12:21:39 +0000";
layers = (
{
anchors = (
{
name = bottom;
position = "{300, 0}";
},
{
name = ogonek;
position = "{326, 0}";
},
{
name = top;
position = "{300, 700}";
},
{
name = topright;
position = "{580, 700}";
}
);
layerId = "5521DC30-183F-421A-91F3-644B5E24AFE6";
paths = (
{
closed = 1;
nodes = (
"433 -11 OFFCURVE",
"550 35 OFFCURVE",
"550 268 CURVE SMOOTH",
"550 268 OFFCURVE",
"550 700 OFFCURVE",
"550 700 CURVE SMOOTH",
"397 700 LINE SMOOTH",
"397 700 OFFCURVE",
"397 268 OFFCURVE",
"397 268 CURVE SMOOTH",
"397 139 OFFCURVE",
"359 107 OFFCURVE",
"301 107 CURVE SMOOTH",
"244 107 OFFCURVE",
"204 139 OFFCURVE",
"204 268 CURVE SMOOTH",
"204 268 OFFCURVE",
"204 700 OFFCURVE",
"204 700 CURVE SMOOTH",
"51 700 LINE SMOOTH",
"51 700 OFFCURVE",
"51 268 OFFCURVE",
"51 268 CURVE SMOOTH",
"51 35 OFFCURVE",
"170 -11 OFFCURVE",
"301 -11 CURVE SMOOTH"
);
}
);
width = 600;
},
{
anchors = (
{
name = bottom;
position = "{300, 0}";
},
{
name = ogonek;
position = "{353, 0}";
},
{
name = top;
position = "{300, 700}";
},
{
name = topright;
position = "{580, 700}";
}
);
layerId = "BE68D89F-AB3F-4BDF-B332-ED50D7C47704";
paths = (
{
closed = 1;
nodes = (
"418 -11 OFFCURVE",
"505 47 OFFCURVE",
"505 254 CURVE SMOOTH",
"505 254 OFFCURVE",
"505 700 OFFCURVE",
"505 700 CURVE SMOOTH",
"472 700 LINE SMOOTH",
"472 700 OFFCURVE",
"472 256 OFFCURVE",
"472 256 CURVE SMOOTH",
"472 81 OFFCURVE",
"409 22 OFFCURVE",
"301 22 CURVE SMOOTH",
"194 22 OFFCURVE",
"129 81 OFFCURVE",
"129 256 CURVE SMOOTH",
"129 256 OFFCURVE",
"129 700 OFFCURVE",
"129 700 CURVE SMOOTH",
"96 700 LINE SMOOTH",
"96 700 OFFCURVE",
"96 254 OFFCURVE",
"96 254 CURVE SMOOTH",
"96 47 OFFCURVE",
"185 -11 OFFCURVE",
"301 -11 CURVE SMOOTH"
);
}
);
width = 600;
},
{
anchors = (
{
name = bottom;
position = "{225, 0}";
},
{
name = ogonek;
position = "{252, 0}";
},
{
name = top;
position = "{225, 700}";
},
{
name = topright;
position = "{580, 700}";
}
);
layerId = "2E286313-D5BF-4FB4-A4B7-BD9BC13B574E";
paths = (
{
closed = 1;
nodes = (
"303 -11 OFFCURVE",
"370 34 OFFCURVE",
"370 208 CURVE SMOOTH",
"370 208 OFFCURVE",
"370 700 OFFCURVE",
"370 700 CURVE SMOOTH",
"337 700 LINE SMOOTH",
"337 700 OFFCURVE",
"337 218 OFFCURVE",
"337 218 CURVE SMOOTH",
"337 81 OFFCURVE",
"294 22 OFFCURVE",
"226 22 CURVE SMOOTH",
"159 22 OFFCURVE",
"114 73 OFFCURVE",
"114 210 CURVE SMOOTH",
"114 210 OFFCURVE",
"114 700 OFFCURVE",
"114 700 CURVE SMOOTH",
"81 700 LINE SMOOTH",
"81 700 OFFCURVE",
"81 208 OFFCURVE",
"81 208 CURVE SMOOTH",
"81 34 OFFCURVE",
"150 -11 OFFCURVE",
"226 -11 CURVE SMOOTH"
);
}
);
width = 450;
},
{
anchors = (
{
name = bottom;
position = "{525, 0}";
},
{
name = ogonek;
position = "{618, 0}";
},
{
name = top;
position = "{525, 700}";
},
{
name = topright;
position = "{1015, 700}";
}
);
layerId = "E338D14E-1DA5-418D-88BC-8956EEA80AB9";
paths = (
{
closed = 1;
nodes = (
"737 -11 OFFCURVE",
"870 112 OFFCURVE",
"870 349 CURVE SMOOTH",
"870 349 OFFCURVE",
"870 700 OFFCURVE",
"870 700 CURVE SMOOTH",
"836 700 LINE SMOOTH",
"836 700 OFFCURVE",
"836 346 OFFCURVE",
"836 346 CURVE SMOOTH",
"836 134 OFFCURVE",
"713 22 OFFCURVE",
"527 22 CURVE SMOOTH",
"342 22 OFFCURVE",
"216 134 OFFCURVE",
"216 346 CURVE SMOOTH",
"216 346 OFFCURVE",
"216 700 OFFCURVE",
"216 700 CURVE SMOOTH",
"182 700 LINE SMOOTH",
"182 700 OFFCURVE",
"182 349 OFFCURVE",
"182 349 CURVE SMOOTH",
"182 112 OFFCURVE",
"319 -11 OFFCURVE",
"527 -11 CURVE SMOOTH"
);
}
);
width = 1050;
}
);
leftKerningGroup = U;
rightKerningGroup = U;
unicode = 0055;
},
{
glyphname = V;
lastChange = "2018-05-30 21:03:32 +0000";
layers = (
{
anchors = (
{
name = bottom;
position = "{300, 0}";
},
{
name = top;
position = "{300, 700}";
}
);
layerId = "5521DC30-183F-421A-91F3-644B5E24AFE6";
paths = (
{
closed = 1;
nodes = (
"310 112 LINE",
"298 112 LINE",
"181 700 LINE",
"26 700 LINE",
"179 0 LINE",
"429 0 LINE",
"582 700 LINE",
"427 700 LINE"
);
}
);
width = 600;
},
{
anchors = (
{
name = bottom;
position = "{300, 0}";
},
{
name = top;
position = "{300, 700}";
}
);
layerId = "BE68D89F-AB3F-4BDF-B332-ED50D7C47704";
paths = (
{
closed = 1;
nodes = (
"335 32 LINE",
"271 32 LINE",
"121 700 LINE",
"87 700 LINE",
"244 0 LINE",
"362 0 LINE",
"519 700 LINE",
"485 700 LINE"
);
}
);
width = 600;
},
{
anchors = (
{
name = bottom;
position = "{219, 0}";
},
{
name = top;
position = "{219, 700}";
}
);
layerId = "2E286313-D5BF-4FB4-A4B7-BD9BC13B574E";
paths = (
{
closed = 1;
nodes = (
"233 32 LINE",
"212 32 LINE",
"120 700 LINE",
"87 700 LINE",
"183 0 LINE",
"261 0 LINE",
"367 700 LINE",
"334 700 LINE"
);
}
);
width = 450;
},
{
anchors = (
{
name = bottom;
position = "{525, 0}";
},
{
name = top;
position = "{525, 700}";
}
);
layerId = "E338D14E-1DA5-418D-88BC-8956EEA80AB9";
paths = (
{
closed = 1;
nodes = (
"597 32 LINE",
"464 32 LINE",
"202 700 LINE",
"162 700 LINE",
"437 0 LINE",
"624 0 LINE",
"898 700 LINE",
"859 700 LINE"
);
}
);
width = 1050;
}
);
leftKerningGroup = V;
rightKerningGroup = V;
unicode = 0056;
},
{
glyphname = W;
lastChange = "2018-05-31 14:19:55 +0000";
layers = (
{
anchors = (
{
name = bottom;
position = "{300, 0}";
},
{
name = top;
position = "{300, 700}";
}
);
layerId = "5521DC30-183F-421A-91F3-644B5E24AFE6";
paths = (
{
closed = 1;
nodes = (
"548 0 LINE",
"600 700 LINE",
"447 700 LINE",
"427 210 LINE",
"425 0 LINE"
);
},
{
closed = 1;
nodes = (
"177 0 LINE",
"171 210 LINE",
"153 700 LINE",
"0 700 LINE",
"52 0 LINE"
);
},
{
closed = 1;
nodes = (
"201 0 LINE",
"300 399 LINE",
"319 612 LINE",
"258 612 LINE",
"173 210 LINE",
"165 0 LINE"
);
},
{
closed = 1;
nodes = (
"437 0 LINE",
"425 210 LINE",
"342 612 LINE",
"281 612 LINE",
"304 399 LINE",
"399 0 LINE"
);
}
);
width = 600;
},
{
anchors = (
{
name = bottom;
position = "{297, 0}";
},
{
name = top;
position = "{297, 700}";
}
);
layerId = "BE68D89F-AB3F-4BDF-B332-ED50D7C47704";
paths = (
{
closed = 1;
nodes = (
"464 0 LINE",
"546 700 LINE",
"512 700 LINE",
"439 49 LINE",
"436 0 LINE"
);
},
{
closed = 1;
nodes = (
"164 0 LINE",
"160 49 LINE",
"88 700 LINE",
"54 700 LINE",
"136 0 LINE"
);
},
{
closed = 1;
nodes = (
"181 0 LINE",
"298 609 LINE",
"307 662 LINE",
"278 662 LINE",
"161 68 LINE",
"152 0 LINE"
);
},
{
closed = 1;
nodes = (
"448 0 LINE",
"439 68 LINE",
"322 662 LINE",
"293 662 LINE",
"302 609 LINE",
"419 0 LINE"
);
}
);
width = 600;
},
{
anchors = (
{
name = bottom;
position = "{228, 0}";
},
{
name = top;
position = "{228, 700}";
}
);
layerId = "2E286313-D5BF-4FB4-A4B7-BD9BC13B574E";
paths = (
{
closed = 1;
nodes = (
"345 0 LINE",
"400 700 LINE",
"367 700 LINE",
"318 49 LINE",
"316 0 LINE"
);
},
{
closed = 1;
nodes = (
"134 0 LINE",
"131 49 LINE",
"83 700 LINE",
"50 700 LINE",
"105 0 LINE"
);
},
{
closed = 1;
nodes = (
"154 0 LINE",
"234 609 LINE",
"230 662 LINE",
"211 662 LINE",
"132 68 LINE",
"126 0 LINE"
);
},
{
closed = 1;
nodes = (
"324 0 LINE",
"318 68 LINE",
"239 662 LINE",
"220 662 LINE",
"216 609 LINE",
"296 0 LINE"
);
}
);
width = 450;
},
{
anchors = (
{
name = bottom;
position = "{525, 0}";
},
{
name = top;
position = "{525, 700}";
}
);
layerId = "E338D14E-1DA5-418D-88BC-8956EEA80AB9";
paths = (
{
closed = 1;
nodes = (
"794 0 LINE",
"938 700 LINE",
"898 700 LINE",
"766 49 LINE",
"756 0 LINE"
);
},
{
closed = 1;
nodes = (
"293 0 LINE",
"283 49 LINE",
"152 700 LINE",
"112 700 LINE",
"255 0 LINE"
);
},
{
closed = 1;
nodes = (
"321 0 LINE",
"525 627 LINE",
"537 662 LINE",
"496 662 LINE",
"287 28 LINE",
"276 0 LINE"
);
},
{
closed = 1;
nodes = (
"774 0 LINE",
"763 33 LINE",
"555 662 LINE",
"515 662 LINE",
"527 627 LINE",
"730 0 LINE"
);
}
);
width = 1050;
}
);
leftKerningGroup = W;
rightKerningGroup = W;
unicode = 0057;
},
{
glyphname = X;
lastChange = "2018-05-30 12:46:12 +0000";
layers = (
{
anchors = (
{
name = bottom;
position = "{300, 0}";
},
{
name = top;
position = "{300, 700}";
}
);
layerId = "5521DC30-183F-421A-91F3-644B5E24AFE6";
paths = (
{
closed = 1;
nodes = (
"289 290 LINE",
"371 290 LINE",
"371 402 LINE",
"289 402 LINE"
);
},
{
closed = 1;
nodes = (
"287 366 LINE",
"426 333 LINE",
"590 700 LINE",
"423 700 LINE"
);
},
{
closed = 1;
nodes = (
"590 0 LINE",
"421 366 LINE",
"267 366 LINE",
"423 0 LINE"
);
},
{
closed = 1;
nodes = (
"229 402 LINE",
"229 290 LINE",
"301 290 LINE",
"301 402 LINE"
);
},
{
closed = 1;
nodes = (
"10 700 LINE",
"174 333 LINE",
"313 366 LINE",
"177 700 LINE"
);
},
{
closed = 1;
nodes = (
"333 366 LINE",
"179 366 LINE",
"10 0 LINE",
"177 0 LINE"
);
}
);
width = 600;
},
{
anchors = (
{
name = bottom;
position = "{300, 0}";
},
{
name = top;
position = "{300, 700}";
}
);
layerId = "BE68D89F-AB3F-4BDF-B332-ED50D7C47704";
paths = (
{
closed = 1;
nodes = (
"296 330 LINE",
"358 330 LINE",
"358 362 LINE",
"296 362 LINE"
);
},
{
closed = 1;
nodes = (
"327 358 LINE",
"353 333 LINE",
"517 700 LINE",
"477 700 LINE"
);
},
{
closed = 1;
nodes = (
"517 0 LINE",
"352 358 LINE",
"314 358 LINE",
"477 0 LINE"
);
},
{
closed = 1;
nodes = (
"239 362 LINE",
"239 330 LINE",
"298 330 LINE",
"298 362 LINE"
);
},
{
closed = 1;
nodes = (
"80 700 LINE",
"244 333 LINE",
"270 358 LINE",
"120 700 LINE"
);
},
{
closed = 1;
nodes = (
"282 358 LINE",
"245 358 LINE",
"80 0 LINE",
"120 0 LINE"
);
}
);
width = 600;
},
{
anchors = (
{
name = bottom;
position = "{216, 0}";
},
{
name = top;
position = "{216, 700}";
}
);
layerId = "2E286313-D5BF-4FB4-A4B7-BD9BC13B574E";
paths = (
{
closed = 1;
nodes = (
"212 330 LINE",
"254 330 LINE",
"254 362 LINE",
"212 362 LINE"
);
},
{
closed = 1;
nodes = (
"229 358 LINE",
"251 333 LINE",
"374 700 LINE",
"339 700 LINE"
);
},
{
closed = 1;
nodes = (
"374 0 LINE",
"250 358 LINE",
"216 358 LINE",
"339 0 LINE"
);
},
{
closed = 1;
nodes = (
"190 362 LINE",
"190 330 LINE",
"214 330 LINE",
"214 362 LINE"
);
},
{
closed = 1;
nodes = (
"70 700 LINE",
"193 333 LINE",
"215 358 LINE",
"105 700 LINE"
);
},
{
closed = 1;
nodes = (
"228 358 LINE",
"194 358 LINE",
"70 0 LINE",
"105 0 LINE"
);
}
);
width = 450;
},
{
anchors = (
{
name = bottom;
position = "{525, 0}";
},
{
name = top;
position = "{525, 700}";
}
);
layerId = "E338D14E-1DA5-418D-88BC-8956EEA80AB9";
paths = (
{
closed = 1;
nodes = (
"518 330 LINE",
"618 330 LINE",
"618 362 LINE",
"518 362 LINE"
);
},
{
closed = 1;
nodes = (
"582 358 LINE",
"609 333 LINE",
"882 700 LINE",
"835 700 LINE"
);
},
{
closed = 1;
nodes = (
"882 0 LINE",
"607 358 LINE",
"560 358 LINE",
"835 0 LINE"
);
},
{
closed = 1;
nodes = (
"427 362 LINE",
"427 330 LINE",
"522 330 LINE",
"522 362 LINE"
);
},
{
closed = 1;
nodes = (
"163 700 LINE",
"436 333 LINE",
"463 358 LINE",
"210 700 LINE"
);
},
{
closed = 1;
nodes = (
"484 358 LINE",
"438 358 LINE",
"163 0 LINE",
"210 0 LINE"
);
}
);
width = 1050;
}
);
leftKerningGroup = X;
rightKerningGroup = X;
unicode = 0058;
},
{
glyphname = Y;
lastChange = "2018-05-25 14:24:57 +0000";
layers = (
{
anchors = (
{
name = bottom;
position = "{300, 0}";
},
{
name = top;
position = "{300, 700}";
},
{
name = topleft;
position = "{20, 700}";
}
);
layerId = "5521DC30-183F-421A-91F3-644B5E24AFE6";
paths = (
{
closed = 1;
nodes = (
"291 390 LINE",
"377 277 LINE",
"585 700 LINE",
"428 700 LINE"
);
},
{
closed = 1;
nodes = (
"15 700 LINE",
"224 277 LINE",
"309 390 LINE",
"172 700 LINE"
);
},
{
closed = 1;
nodes = (
"377 0 LINE",
"377 410 LINE",
"224 410 LINE",
"224 0 LINE"
);
}
);
width = 600;
},
{
anchors = (
{
name = bottom;
position = "{300, 0}";
},
{
name = top;
position = "{300, 700}";
},
{
name = topleft;
position = "{20, 700}";
}
);
layerId = "BE68D89F-AB3F-4BDF-B332-ED50D7C47704";
paths = (
{
closed = 1;
nodes = (
"298 323 LINE",
"317 287 LINE",
"537 700 LINE",
"500 700 LINE"
);
},
{
closed = 1;
nodes = (
"63 700 LINE",
"284 287 LINE",
"303 323 LINE",
"100 700 LINE"
);
},
{
closed = 1;
nodes = (
"317 0 LINE",
"317 325 LINE",
"284 325 LINE",
"284 0 LINE"
);
}
);
width = 600;
},
{
anchors = (
{
name = bottom;
position = "{300, 0}";
},
{
name = top;
position = "{227, 700}";
},
{
name = topleft;
position = "{20, 700}";
}
);
layerId = "2E286313-D5BF-4FB4-A4B7-BD9BC13B574E";
paths = (
{
closed = 1;
nodes = (
"228 328 LINE",
"244 287 LINE",
"382 700 LINE",
"350 700 LINE"
);
},
{
closed = 1;
nodes = (
"72 700 LINE",
"211 287 LINE",
"227 328 LINE",
"104 700 LINE"
);
},
{
closed = 1;
nodes = (
"244 0 LINE",
"244 328 LINE",
"211 328 LINE",
"211 0 LINE"
);
}
);
width = 450;
},
{
anchors = (
{
name = bottom;
position = "{525, 0}";
},
{
name = top;
position = "{525, 700}";
},
{
name = topleft;
position = "{35, 700}";
}
);
layerId = "E338D14E-1DA5-418D-88BC-8956EEA80AB9";
paths = (
{
closed = 1;
nodes = (
"520 313 LINE",
"545 287 LINE",
"897 700 LINE",
"846 700 LINE"
);
},
{
closed = 1;
nodes = (
"153 700 LINE",
"507 287 LINE",
"532 313 LINE",
"205 700 LINE"
);
},
{
closed = 1;
nodes = (
"545 0 LINE",
"545 319 LINE",
"507 319 LINE",
"507 0 LINE"
);
}
);
width = 1050;
}
);
leftKerningGroup = Y;
rightKerningGroup = Y;
unicode = 0059;
},
{
glyphname = Z;
lastChange = "2018-05-31 14:05:36 +0000";
layers = (
{
anchors = (
{
name = bottom;
position = "{300, 0}";
},
{
name = top;
position = "{300, 700}";
}
);
layerId = "5521DC30-183F-421A-91F3-644B5E24AFE6";
paths = (
{
closed = 1;
nodes = (
"512 588 LINE",
"512 700 LINE",
"90 700 LINE",
"90 588 LINE",
"361 588 LINE",
"82 112 LINE",
"82 0 LINE",
"534 0 LINE",
"534 112 LINE",
"237 112 LINE"
);
}
);
width = 600;
},
{
anchors = (
{
name = bottom;
position = "{300, 0}";
},
{
name = top;
position = "{300, 700}";
}
);
layerId = "BE68D89F-AB3F-4BDF-B332-ED50D7C47704";
paths = (
{
closed = 1;
nodes = (
"502 668 LINE",
"502 700 LINE",
"110 700 LINE",
"110 668 LINE",
"464 668 LINE",
"102 32 LINE",
"102 0 LINE",
"514 0 LINE",
"514 32 LINE",
"141 32 LINE"
);
}
);
width = 600;
},
{
anchors = (
{
name = bottom;
position = "{222, 0}";
},
{
name = top;
position = "{222, 700}";
}
);
layerId = "2E286313-D5BF-4FB4-A4B7-BD9BC13B574E";
paths = (
{
closed = 1;
nodes = (
"354 668 LINE",
"354 700 LINE",
"92 700 LINE",
"92 668 LINE",
"323 668 LINE",
"84 32 LINE",
"84 0 LINE",
"366 0 LINE",
"366 32 LINE",
"116 32 LINE"
);
}
);
width = 450;
},
{
anchors = (
{
name = bottom;
position = "{525, 0}";
},
{
name = top;
position = "{525, 700}";
}
);
layerId = "E338D14E-1DA5-418D-88BC-8956EEA80AB9";
paths = (
{
closed = 1;
nodes = (
"879 668 LINE",
"879 700 LINE",
"193 700 LINE",
"193 668 LINE",
"828 668 LINE",
"179 32 LINE",
"179 0 LINE",
"900 0 LINE",
"900 32 LINE",
"234 32 LINE"
);
}
);
width = 1050;
}
);
leftKerningGroup = Z;
rightKerningGroup = Z;
unicode = 005A;
},
{
glyphname = a;
lastChange = "2019-07-14 11:11:50 +0000";
layers = (
{
anchors = (
{
name = bottom;
position = "{300, 0}";
},
{
name = ogonek;
position = "{540, 10}";
},
{
name = top;
position = "{300, 500}";
}
);
layerId = "5521DC30-183F-421A-91F3-644B5E24AFE6";
paths = (
{
closed = 1;
nodes = (
"584 64 LINE",
"475 173 LINE",
"385 84 LINE",
"493 -23 LINE"
);
},
{
closed = 1;
nodes = (
"383 142 OFFCURVE",
"350 104 OFFCURVE",
"288 104 CURVE SMOOTH",
"229 104 OFFCURVE",
"207 117 OFFCURVE",
"207 153 CURVE SMOOTH",
"207 191 OFFCURVE",
"212 213 OFFCURVE",
"335 213 CURVE SMOOTH",
"403 213 LINE",
"403 316 LINE",
"308 316 LINE SMOOTH",
"136 316 OFFCURVE",
"59 264 OFFCURVE",
"59 153 CURVE SMOOTH",
"59 41 OFFCURVE",
"132 -11 OFFCURVE",
"281 -11 CURVE SMOOTH",
"410 -11 OFFCURVE",
"468 76 OFFCURVE",
"468 76 CURVE",
"399 167 LINE"
);
},
{
closed = 1;
nodes = (
"203 512 OFFCURVE",
"133 489 OFFCURVE",
"78 434 CURVE",
"171 345 LINE",
"196 373 OFFCURVE",
"223 395 OFFCURVE",
"288 395 CURVE SMOOTH",
"346 395 OFFCURVE",
"374 368 OFFCURVE",
"374 329 CURVE SMOOTH",
"374 116 LINE",
"522 89 LINE",
"522 347 LINE SMOOTH",
"522 448 OFFCURVE",
"424 512 OFFCURVE",
"298 512 CURVE SMOOTH"
);
}
);
width = 600;
},
{
anchors = (
{
name = bottom;
position = "{300, 0}";
},
{
name = ogonek;
position = "{540, 10}";
},
{
name = top;
position = "{300, 500}";
}
);
layerId = "BE68D89F-AB3F-4BDF-B332-ED50D7C47704";
paths = (
{
closed = 1;
nodes = (
"543 21 LINE",
"456 107 LINE",
"444 73 LINE",
"520 -2 LINE"
);
},
{
closed = 1;
nodes = (
"448 88 OFFCURVE",
"381 21 OFFCURVE",
"290 21 CURVE SMOOTH",
"199 21 OFFCURVE",
"131 50 OFFCURVE",
"131 153 CURVE SMOOTH",
"131 265 OFFCURVE",
"194 284 OFFCURVE",
"330 284 CURVE SMOOTH",
"448 284 LINE",
"448 316 LINE",
"311 316 LINE SMOOTH",
"157 316 OFFCURVE",
"98 264 OFFCURVE",
"98 153 CURVE SMOOTH",
"98 41 OFFCURVE",
"167 -11 OFFCURVE",
"276 -11 CURVE SMOOTH",
"413 -11 OFFCURVE",
"469 76 OFFCURVE",
"469 76 CURVE",
"459 124 LINE"
);
},
{
closed = 1;
nodes = (
"217 512 OFFCURVE",
"167 491 OFFCURVE",
"133 457 CURVE",
"157 432 LINE",
"182 460 OFFCURVE",
"234 479 OFFCURVE",
"299 479 CURVE SMOOTH",
"377 479 OFFCURVE",
"444 452 OFFCURVE",
"444 373 CURVE SMOOTH",
"444 90 LINE",
"477 81 LINE",
"477 381 LINE SMOOTH",
"477 472 OFFCURVE",
"395 512 OFFCURVE",
"306 512 CURVE SMOOTH"
);
}
);
width = 600;
},
{
anchors = (
{
name = bottom;
position = "{225, 0}";
},
{
name = ogonek;
position = "{405, 10}";
},
{
name = top;
position = "{225, 500}";
}
);
layerId = "2E286313-D5BF-4FB4-A4B7-BD9BC13B574E";
paths = (
{
closed = 1;
nodes = (
"431 23 LINE",
"348 107 LINE",
"329 73 LINE",
"406 -2 LINE"
);
},
{
closed = 1;
nodes = (
"326 73 OFFCURVE",
"287 21 OFFCURVE",
"224 21 CURVE SMOOTH",
"158 21 OFFCURVE",
"104 50 OFFCURVE",
"104 153 CURVE SMOOTH",
"104 262 OFFCURVE",
"172 284 OFFCURVE",
"254 284 CURVE SMOOTH",
"337 284 LINE",
"337 316 LINE",
"253 316 LINE SMOOTH",
"139 316 OFFCURVE",
"70 264 OFFCURVE",
"70 153 CURVE SMOOTH",
"70 41 OFFCURVE",
"131 -11 OFFCURVE",
"213 -11 CURVE SMOOTH",
"306 -11 OFFCURVE",
"342 50 OFFCURVE",
"357 84 CURVE",
"332 115 LINE"
);
},
{
closed = 1;
nodes = (
"159 512 OFFCURVE",
"109 481 OFFCURVE",
"84 447 CURVE",
"112 422 LINE",
"131 450 OFFCURVE",
"172 479 OFFCURVE",
"220 479 CURVE SMOOTH",
"279 479 OFFCURVE",
"329 452 OFFCURVE",
"329 373 CURVE SMOOTH",
"329 90 LINE",
"364 81 LINE",
"364 381 LINE SMOOTH",
"364 472 OFFCURVE",
"292 512 OFFCURVE",
"226 512 CURVE SMOOTH"
);
}
);
width = 450;
},
{
anchors = (
{
name = bottom;
position = "{525, 0}";
},
{
name = ogonek;
position = "{945, 10}";
},
{
name = top;
position = "{525, 500}";
}
);
layerId = "E338D14E-1DA5-418D-88BC-8956EEA80AB9";
paths = (
{
closed = 1;
nodes = (
"910 21 LINE",
"804 125 LINE",
"792 91 LINE",
"887 -2 LINE"
);
},
{
closed = 1;
nodes = (
"791 86 OFFCURVE",
"674 21 OFFCURVE",
"508 21 CURVE SMOOTH",
"355 21 OFFCURVE",
"220 45 OFFCURVE",
"220 148 CURVE SMOOTH",
"220 260 OFFCURVE",
"340 274 OFFCURVE",
"578 274 CURVE SMOOTH",
"799 274 LINE",
"799 306 LINE",
"529 306 LINE SMOOTH",
"263 306 OFFCURVE",
"182 259 OFFCURVE",
"182 148 CURVE SMOOTH",
"182 36 OFFCURVE",
"292 -11 OFFCURVE",
"483 -11 CURVE SMOOTH",
"723 -11 OFFCURVE",
"811 72 OFFCURVE",
"821 86 CURVE",
"806 120 LINE"
);
},
{
closed = 1;
nodes = (
"370 512 OFFCURVE",
"271 485 OFFCURVE",
"212 451 CURVE",
"235 423 LINE",
"279 451 OFFCURVE",
"400 479 OFFCURVE",
"503 479 CURVE SMOOTH",
"640 479 OFFCURVE",
"791 452 OFFCURVE",
"791 343 CURVE SMOOTH",
"791 90 LINE",
"825 81 LINE",
"825 351 LINE SMOOTH",
"825 472 OFFCURVE",
"671 512 OFFCURVE",
"516 512 CURVE SMOOTH"
);
}
);
width = 1050;
}
);
unicode = 0061;
},
{
glyphname = aogonek;
lastChange = "2018-05-30 12:43:21 +0000";
layers = (
{
components = (
{
name = a;
},
{
name = ogonekcomb;
transform = "{1, 0, 0, 1, 154, 0}";
}
);
layerId = "5521DC30-183F-421A-91F3-644B5E24AFE6";
paths = (
{
closed = 1;
nodes = (
"539 0 LINE",
"606 43 LINE",
"565 82 LINE",
"411 0 LINE"
);
}
);
width = 600;
},
{
components = (
{
name = a;
},
{
name = ogonekcomb;
transform = "{1, 0, 0, 1, 174, 0}";
}
);
layerId = "BE68D89F-AB3F-4BDF-B332-ED50D7C47704";
paths = (
{
closed = 1;
nodes = (
"524 0 LINE",
"547 17 LINE",
"543 21 LINE",
"491 0 LINE"
);
}
);
width = 600;
},
{
components = (
{
name = a;
},
{
name = ogonekcomb;
transform = "{1, 0, 0, 1, 117, -2}";
}
);
layerId = "2E286313-D5BF-4FB4-A4B7-BD9BC13B574E";
paths = (
{
closed = 1;
nodes = (
"407 -2 LINE",
"435 19 LINE",
"431 23 LINE",
"374 -2 LINE"
);
}
);
width = 450;
},
{
components = (
{
name = a;
},
{
name = ogonekcomb;
transform = "{1, 0, 0, 1, 316, 0}";
}
);
layerId = "E338D14E-1DA5-418D-88BC-8956EEA80AB9";
paths = (
{
closed = 1;
nodes = (
"891 0 LINE",
"914 17 LINE",
"910 21 LINE",
"858 0 LINE"
);
}
);
width = 1050;
}
);
unicode = 0105;
},
{
glyphname = ae;
lastChange = "2018-05-15 01:14:37 +0000";
layers = (
{
anchors = (
{
name = bottom;
position = "{300, 0}";
},
{
name = top;
position = "{300, 500}";
}
);
layerId = "5521DC30-183F-421A-91F3-644B5E24AFE6";
paths = (
{
closed = 1;
nodes = (
"307 -11 OFFCURVE",
"321 76 OFFCURVE",
"321 76 CURVE",
"282 162 LINE",
"275 128 OFFCURVE",
"226 101 OFFCURVE",
"195 101 CURVE",
"160 101 OFFCURVE",
"132 115 OFFCURVE",
"132 155 CURVE",
"12 153 LINE",
"12 41 OFFCURVE",
"79 -11 OFFCURVE",
"178 -11 CURVE"
);
},
{
closed = 1;
nodes = (
"132 155 LINE",
"132 206 OFFCURVE",
"178 224 OFFCURVE",
"212 224 CURVE",
"218 308 LINE",
"91 308 OFFCURVE",
"12 264 OFFCURVE",
"12 153 CURVE"
);
},
{
closed = 1;
nodes = (
"320 224 LINE",
"320 308 LINE",
"218 308 LINE",
"212 224 LINE"
);
},
{
closed = 1;
nodes = (
"76 348 LINE",
"100 370 OFFCURVE",
"133 399 OFFCURVE",
"180 399 CURVE",
"223 399 OFFCURVE",
"256 370 OFFCURVE",
"256 321 CURVE",
"347 335 LINE",
"347 440 OFFCURVE",
"261 512 OFFCURVE",
"175 512 CURVE",
"90 512 OFFCURVE",
"33 469 OFFCURVE",
"-1 432 CURVE"
);
},
{
closed = 1;
nodes = (
"349 229 LINE",
"349 341 LINE",
"256 321 LINE",
"256 229 LINE"
);
},
{
closed = 1;
nodes = (
"487 161 LINE",
"480 141 OFFCURVE",
"470 101 OFFCURVE",
"434 101 CURVE SMOOTH",
"395 101 OFFCURVE",
"367 132 OFFCURVE",
"367 251 CURVE SMOOTH",
"367 354 OFFCURVE",
"380 399 OFFCURVE",
"426 399 CURVE SMOOTH",
"470 399 OFFCURVE",
"480 345 OFFCURVE",
"480 306 CURVE",
"590 224 LINE",
"600 394 OFFCURVE",
"560 512 OFFCURVE",
"439 512 CURVE SMOOTH",
"322 512 OFFCURVE",
"254 444 OFFCURVE",
"254 247 CURVE SMOOTH",
"254 54 OFFCURVE",
"318 -11 OFFCURVE",
"432 -11 CURVE SMOOTH",
"496 -11 OFFCURVE",
"564 31 OFFCURVE",
"594 112 CURVE"
);
},
{
closed = 1;
nodes = (
"347 224 LINE",
"590 224 LINE",
"530 306 LINE",
"347 306 LINE"
);
}
);
width = 600;
},
{
anchors = (
{
name = bottom;
position = "{300, 0}";
},
{
name = top;
position = "{300, 500}";
}
);
layerId = "BE68D89F-AB3F-4BDF-B332-ED50D7C47704";
paths = (
{
closed = 1;
nodes = (
"301 -11 OFFCURVE",
"321 76 OFFCURVE",
"321 76 CURVE",
"301 109 LINE",
"294 75 OFFCURVE",
"255 21 OFFCURVE",
"185 21 CURVE",
"113 21 OFFCURVE",
"65 48 OFFCURVE",
"65 143 CURVE",
"32 143 LINE",
"32 36 OFFCURVE",
"83 -11 OFFCURVE",
"182 -11 CURVE"
);
},
{
closed = 1;
nodes = (
"65 143 LINE",
"65 240 OFFCURVE",
"149 249 OFFCURVE",
"220 249 CURVE",
"208 281 LINE",
"111 281 OFFCURVE",
"32 254 OFFCURVE",
"32 143 CURVE"
);
},
{
closed = 1;
nodes = (
"290 249 LINE",
"290 281 LINE",
"208 281 LINE",
"220 249 LINE"
);
},
{
closed = 1;
nodes = (
"66 438 LINE",
"85 455 OFFCURVE",
"113 479 OFFCURVE",
"174 479 CURVE",
"247 479 OFFCURVE",
"286 400 OFFCURVE",
"286 341 CURVE",
"316 355 LINE",
"316 447 OFFCURVE",
"260 512 OFFCURVE",
"174 512 CURVE",
"102 512 OFFCURVE",
"55 481 OFFCURVE",
"40 468 CURVE"
);
},
{
closed = 1;
nodes = (
"319 255 LINE",
"319 361 LINE",
"286 341 LINE",
"286 257 LINE"
);
},
{
closed = 1;
nodes = (
"549 107 LINE",
"538 77 OFFCURVE",
"513 22 OFFCURVE",
"444 22 CURVE SMOOTH",
"342 22 OFFCURVE",
"321 112 OFFCURVE",
"321 251 CURVE SMOOTH",
"321 394 OFFCURVE",
"356 479 OFFCURVE",
"439 479 CURVE SMOOTH",
"533 479 OFFCURVE",
"536 370 OFFCURVE",
"536 281 CURVE",
"570 249 LINE",
"580 419 OFFCURVE",
"550 512 OFFCURVE",
"439 512 CURVE SMOOTH",
"352 512 OFFCURVE",
"286 454 OFFCURVE",
"286 257 CURVE SMOOTH",
"286 64 OFFCURVE",
"332 -11 OFFCURVE",
"442 -11 CURVE SMOOTH",
"503 -11 OFFCURVE",
"549 19 OFFCURVE",
"580 93 CURVE"
);
},
{
closed = 1;
nodes = (
"317 249 LINE",
"570 249 LINE",
"540 281 LINE",
"317 281 LINE"
);
}
);
width = 600;
},
{
anchors = (
{
name = bottom;
position = "{225, 0}";
},
{
name = top;
position = "{225, 500}";
}
);
layerId = "2E286313-D5BF-4FB4-A4B7-BD9BC13B574E";
paths = (
{
closed = 1;
nodes = (
"225 -11 OFFCURVE",
"250 76 OFFCURVE",
"250 76 CURVE",
"225 109 LINE",
"220 75 OFFCURVE",
"190 21 OFFCURVE",
"138 21 CURVE",
"84 21 OFFCURVE",
"57 48 OFFCURVE",
"57 143 CURVE",
"23 143 LINE",
"23 36 OFFCURVE",
"61 -11 OFFCURVE",
"136 -11 CURVE"
);
},
{
closed = 1;
nodes = (
"57 143 LINE",
"57 240 OFFCURVE",
"111 249 OFFCURVE",
"164 249 CURVE",
"155 281 LINE",
"82 281 OFFCURVE",
"23 254 OFFCURVE",
"23 143 CURVE"
);
},
{
closed = 1;
nodes = (
"212 249 LINE",
"212 281 LINE",
"155 281 LINE",
"164 249 LINE"
);
},
{
closed = 1;
nodes = (
"49 438 LINE",
"63 455 OFFCURVE",
"84 479 OFFCURVE",
"130 479 CURVE",
"184 479 OFFCURVE",
"214 400 OFFCURVE",
"214 341 CURVE",
"236 355 LINE",
"236 447 OFFCURVE",
"194 512 OFFCURVE",
"130 512 CURVE",
"76 512 OFFCURVE",
"40 481 OFFCURVE",
"29 468 CURVE"
);
},
{
closed = 1;
nodes = (
"243 255 LINE",
"238 361 LINE",
"214 341 LINE",
"209 257 LINE"
);
},
{
closed = 1;
nodes = (
"411 107 LINE",
"403 77 OFFCURVE",
"384 22 OFFCURVE",
"332 22 CURVE SMOOTH",
"256 22 OFFCURVE",
"245 112 OFFCURVE",
"245 251 CURVE SMOOTH",
"245 394 OFFCURVE",
"266 479 OFFCURVE",
"328 479 CURVE SMOOTH",
"399 479 OFFCURVE",
"410 370 OFFCURVE",
"410 281 CURVE",
"446 249 LINE",
"453 419 OFFCURVE",
"412 512 OFFCURVE",
"328 512 CURVE SMOOTH",
"263 512 OFFCURVE",
"209 454 OFFCURVE",
"209 257 CURVE SMOOTH",
"209 64 OFFCURVE",
"248 -11 OFFCURVE",
"331 -11 CURVE SMOOTH",
"376 -11 OFFCURVE",
"421 19 OFFCURVE",
"444 93 CURVE"
);
},
{
closed = 1;
nodes = (
"242 249 LINE",
"446 249 LINE",
"413 281 LINE",
"242 281 LINE"
);
}
);
width = 450;
},
{
anchors = (
{
name = bottom;
position = "{525, 0}";
},
{
name = top;
position = "{525, 500}";
}
);
layerId = "E338D14E-1DA5-418D-88BC-8956EEA80AB9";
paths = (
{
closed = 1;
nodes = (
"517 -11 OFFCURVE",
"561 86 OFFCURVE",
"561 86 CURVE",
"539 121 LINE",
"527 87 OFFCURVE",
"466 21 OFFCURVE",
"324 21 CURVE",
"198 21 OFFCURVE",
"94 48 OFFCURVE",
"94 143 CURVE",
"56 143 LINE",
"56 36 OFFCURVE",
"145 -11 OFFCURVE",
"319 -11 CURVE"
);
},
{
closed = 1;
nodes = (
"94 143 LINE",
"94 240 OFFCURVE",
"221 249 OFFCURVE",
"295 249 CURVE",
"284 281 LINE",
"174 281 OFFCURVE",
"56 254 OFFCURVE",
"56 143 CURVE"
);
},
{
closed = 1;
nodes = (
"518 249 LINE",
"518 281 LINE",
"284 281 LINE",
"295 249 LINE"
);
},
{
closed = 1;
nodes = (
"106 418 LINE",
"131 435 OFFCURVE",
"196 479 OFFCURVE",
"303 479 CURVE",
"470 479 OFFCURVE",
"511 350 OFFCURVE",
"511 291 CURVE",
"546 295 LINE",
"546 387 OFFCURVE",
"493 512 OFFCURVE",
"303 512 CURVE",
"177 512 OFFCURVE",
"98 461 OFFCURVE",
"80 448 CURVE"
);
},
{
closed = 1;
nodes = (
"548 255 LINE",
"548 301 LINE",
"511 291 LINE",
"511 257 LINE"
);
},
{
closed = 1;
nodes = (
"961 107 LINE",
"942 77 OFFCURVE",
"898 22 OFFCURVE",
"777 22 CURVE SMOOTH",
"599 22 OFFCURVE",
"552 112 OFFCURVE",
"552 251 CURVE SMOOTH",
"552 394 OFFCURVE",
"623 479 OFFCURVE",
"768 479 CURVE SMOOTH",
"933 479 OFFCURVE",
"978 370 OFFCURVE",
"978 281 CURVE",
"1018 249 LINE",
"1025 399 OFFCURVE",
"963 512 OFFCURVE",
"768 512 CURVE SMOOTH",
"616 512 OFFCURVE",
"511 434 OFFCURVE",
"511 257 CURVE SMOOTH",
"511 84 OFFCURVE",
"581 -11 OFFCURVE",
"774 -11 CURVE SMOOTH",
"880 -11 OFFCURVE",
"961 19 OFFCURVE",
"1015 93 CURVE"
);
},
{
closed = 1;
nodes = (
"545 249 LINE",
"1018 249 LINE",
"985 281 LINE",
"545 281 LINE"
);
}
);
width = 1050;
}
);
unicode = 00E6;
},
{
glyphname = b;
lastChange = "2019-07-14 11:19:16 +0000";
layers = (
{
anchors = (
{
name = bottom;
position = "{300, 0}";
},
{
name = top;
position = "{300, 500}";
}
);
layerId = "5521DC30-183F-421A-91F3-644B5E24AFE6";
paths = (
{
closed = 1;
nodes = (
"180 0 LINE",
"225 71 LINE",
"225 800 LINE",
"72 800 LINE",
"72 0 LINE"
);
},
{
closed = 1;
nodes = (
"227 511 OFFCURVE",
"150 414 OFFCURVE",
"150 302 CURVE",
"203 272 LINE",
"216 335 OFFCURVE",
"243 393 OFFCURVE",
"305 393 CURVE SMOOTH",
"367 393 OFFCURVE",
"396 340 OFFCURVE",
"396 251 CURVE SMOOTH",
"396 162 OFFCURVE",
"367 107 OFFCURVE",
"295 107 CURVE SMOOTH",
"233 107 OFFCURVE",
"206 167 OFFCURVE",
"203 240 CURVE",
"160 210 LINE",
"160 98 OFFCURVE",
"227 -11 OFFCURVE",
"334 -11 CURVE SMOOTH",
"470 -11 OFFCURVE",
"549 78 OFFCURVE",
"549 251 CURVE SMOOTH",
"549 424 OFFCURVE",
"470 511 OFFCURVE",
"334 511 CURVE SMOOTH"
);
}
);
width = 600;
},
{
anchors = (
{
name = bottom;
position = "{300, 0}";
},
{
name = top;
position = "{300, 500}";
}
);
layerId = "BE68D89F-AB3F-4BDF-B332-ED50D7C47704";
paths = (
{
closed = 1;
nodes = (
"160 0 LINE",
"160 71 LINE",
"160 800 LINE",
"127 800 LINE",
"127 0 LINE"
);
},
{
closed = 1;
nodes = (
"199 511 OFFCURVE",
"135 404 OFFCURVE",
"135 292 CURVE",
"158 312 LINE",
"171 385 OFFCURVE",
"225 478 OFFCURVE",
"317 478 CURVE SMOOTH",
"406 478 OFFCURVE",
"471 416 OFFCURVE",
"471 251 CURVE SMOOTH",
"471 89 OFFCURVE",
"397 22 OFFCURVE",
"308 22 CURVE SMOOTH",
"216 22 OFFCURVE",
"169 117 OFFCURVE",
"158 200 CURVE",
"135 216 LINE",
"135 104 OFFCURVE",
"183 -11 OFFCURVE",
"314 -11 CURVE SMOOTH",
"410 -11 OFFCURVE",
"504 68 OFFCURVE",
"504 251 CURVE SMOOTH",
"504 434 OFFCURVE",
"420 511 OFFCURVE",
"324 511 CURVE SMOOTH"
);
}
);
width = 600;
},
{
anchors = (
{
name = bottom;
position = "{225, 0}";
},
{
name = top;
position = "{225, 500}";
}
);
layerId = "2E286313-D5BF-4FB4-A4B7-BD9BC13B574E";
paths = (
{
closed = 1;
nodes = (
"120 0 LINE",
"120 71 LINE",
"120 800 LINE",
"85 800 LINE",
"85 0 LINE"
);
},
{
closed = 1;
nodes = (
"151 511 OFFCURVE",
"92 404 OFFCURVE",
"92 292 CURVE",
"118 312 LINE",
"127 385 OFFCURVE",
"170 478 OFFCURVE",
"239 478 CURVE SMOOTH",
"304 478 OFFCURVE",
"350 416 OFFCURVE",
"350 251 CURVE SMOOTH",
"350 89 OFFCURVE",
"297 22 OFFCURVE",
"233 22 CURVE SMOOTH",
"164 22 OFFCURVE",
"126 117 OFFCURVE",
"118 200 CURVE",
"92 216 LINE",
"92 104 OFFCURVE",
"139 -11 OFFCURVE",
"237 -11 CURVE SMOOTH",
"309 -11 OFFCURVE",
"384 68 OFFCURVE",
"384 251 CURVE SMOOTH",
"384 434 OFFCURVE",
"317 511 OFFCURVE",
"245 511 CURVE SMOOTH"
);
}
);
width = 450;
},
{
anchors = (
{
name = bottom;
position = "{525, 0}";
},
{
name = top;
position = "{525, 500}";
}
);
layerId = "E338D14E-1DA5-418D-88BC-8956EEA80AB9";
paths = (
{
closed = 1;
nodes = (
"270 0 LINE",
"270 71 LINE",
"270 800 LINE",
"234 800 LINE",
"234 0 LINE"
);
},
{
closed = 1;
nodes = (
"356 511 OFFCURVE",
"236 404 OFFCURVE",
"236 292 CURVE",
"267 312 LINE",
"289 385 OFFCURVE",
"391 478 OFFCURVE",
"552 478 CURVE SMOOTH",
"708 478 OFFCURVE",
"833 416 OFFCURVE",
"833 251 CURVE SMOOTH",
"833 89 OFFCURVE",
"692 22 OFFCURVE",
"537 22 CURVE SMOOTH",
"376 22 OFFCURVE",
"286 117 OFFCURVE",
"267 200 CURVE",
"236 216 LINE",
"236 104 OFFCURVE",
"338 -11 OFFCURVE",
"547 -11 CURVE SMOOTH",
"715 -11 OFFCURVE",
"872 68 OFFCURVE",
"872 251 CURVE SMOOTH",
"872 434 OFFCURVE",
"733 511 OFFCURVE",
"565 511 CURVE SMOOTH"
);
}
);
width = 1050;
}
);
leftKerningGroup = h;
rightKerningGroup = o;
unicode = 0062;
},
{
glyphname = c;
lastChange = "2019-07-14 11:17:06 +0000";
layers = (
{
anchors = (
{
name = bottom;
position = "{330, 0}";
},
{
name = top;
position = "{330, 500}";
}
);
layerId = "5521DC30-183F-421A-91F3-644B5E24AFE6";
paths = (
{
closed = 1;
nodes = (
"427 171 LINE",
"409 135 OFFCURVE",
"380 107 OFFCURVE",
"334 107 CURVE SMOOTH",
"276 107 OFFCURVE",
"230 154 OFFCURVE",
"230 251 CURVE SMOOTH",
"230 350 OFFCURVE",
"276 394 OFFCURVE",
"334 394 CURVE SMOOTH",
"380 394 OFFCURVE",
"412 365 OFFCURVE",
"427 318 CURVE",
"563 393 LINE",
"515 483 OFFCURVE",
"438 512 OFFCURVE",
"337 512 CURVE SMOOTH",
"200 512 OFFCURVE",
"72 434 OFFCURVE",
"72 251 CURVE SMOOTH",
"72 70 OFFCURVE",
"200 -11 OFFCURVE",
"337 -11 CURVE SMOOTH",
"439 -11 OFFCURVE",
"516 19 OFFCURVE",
"564 101 CURVE"
);
}
);
width = 600;
},
{
anchors = (
{
name = bottom;
position = "{330, 0}";
},
{
name = top;
position = "{330, 500}";
}
);
layerId = "BE68D89F-AB3F-4BDF-B332-ED50D7C47704";
paths = (
{
closed = 1;
nodes = (
"481 108 LINE",
"463 71 OFFCURVE",
"419 22 OFFCURVE",
"340 22 CURVE SMOOTH",
"257 22 OFFCURVE",
"164 94 OFFCURVE",
"164 251 CURVE SMOOTH",
"164 410 OFFCURVE",
"257 479 OFFCURVE",
"340 479 CURVE SMOOTH",
"419 479 OFFCURVE",
"455 441 OFFCURVE",
"481 387 CURVE",
"514 406 LINE",
"487 459 OFFCURVE",
"440 512 OFFCURVE",
"340 512 CURVE SMOOTH",
"243 512 OFFCURVE",
"128 444 OFFCURVE",
"128 251 CURVE SMOOTH",
"128 60 OFFCURVE",
"243 -11 OFFCURVE",
"340 -11 CURVE SMOOTH",
"440 -11 OFFCURVE",
"496 54 OFFCURVE",
"514 91 CURVE"
);
}
);
width = 600;
},
{
anchors = (
{
name = bottom;
position = "{248, 0}";
},
{
name = top;
position = "{248, 500}";
}
);
layerId = "2E286313-D5BF-4FB4-A4B7-BD9BC13B574E";
paths = (
{
closed = 1;
nodes = (
"349 106 LINE",
"336 69 OFFCURVE",
"314 22 OFFCURVE",
"255 22 CURVE SMOOTH",
"193 22 OFFCURVE",
"132 94 OFFCURVE",
"132 251 CURVE SMOOTH",
"132 410 OFFCURVE",
"193 479 OFFCURVE",
"255 479 CURVE SMOOTH",
"314 479 OFFCURVE",
"331 446 OFFCURVE",
"351 392 CURVE",
"384 408 LINE",
"364 461 OFFCURVE",
"328 512 OFFCURVE",
"255 512 CURVE SMOOTH",
"182 512 OFFCURVE",
"96 444 OFFCURVE",
"96 251 CURVE SMOOTH",
"96 60 OFFCURVE",
"182 -11 OFFCURVE",
"255 -11 CURVE SMOOTH",
"328 -11 OFFCURVE",
"371 52 OFFCURVE",
"384 89 CURVE"
);
}
);
width = 450;
},
{
anchors = (
{
name = bottom;
position = "{578, 0}";
},
{
name = top;
position = "{578, 500}";
}
);
layerId = "E338D14E-1DA5-418D-88BC-8956EEA80AB9";
paths = (
{
closed = 1;
nodes = (
"861 113 LINE",
"830 76 OFFCURVE",
"732 22 OFFCURVE",
"595 22 CURVE SMOOTH",
"450 22 OFFCURVE",
"273 94 OFFCURVE",
"273 251 CURVE SMOOTH",
"273 410 OFFCURVE",
"450 479 OFFCURVE",
"595 479 CURVE SMOOTH",
"732 479 OFFCURVE",
"819 439 OFFCURVE",
"865 385 CURVE",
"891 408 LINE",
"844 461 OFFCURVE",
"756 512 OFFCURVE",
"595 512 CURVE SMOOTH",
"434 512 OFFCURVE",
"234 444 OFFCURVE",
"234 251 CURVE SMOOTH",
"234 60 OFFCURVE",
"434 -11 OFFCURVE",
"595 -11 CURVE SMOOTH",
"756 -11 OFFCURVE",
"860 52 OFFCURVE",
"891 89 CURVE"
);
}
);
width = 1050;
}
);
leftKerningGroup = o;
rightKerningGroup = c;
unicode = 0063;
},
{
glyphname = eth;
lastChange = "2018-05-22 18:16:24 +0000";
layers = (
{
layerId = "5521DC30-183F-421A-91F3-644B5E24AFE6";
paths = (
{
closed = 1;
nodes = (
"229 107 OFFCURVE",
"198 174 OFFCURVE",
"198 251 CURVE SMOOTH",
"198 330 OFFCURVE",
"224 394 OFFCURVE",
"287 394 CURVE SMOOTH",
"351 394 OFFCURVE",
"392 358 OFFCURVE",
"411 316 CURVE",
"475 373 LINE",
"427 463 OFFCURVE",
"371 512 OFFCURVE",
"280 512 CURVE SMOOTH",
"143 512 OFFCURVE",
"40 434 OFFCURVE",
"40 251 CURVE SMOOTH",
"40 70 OFFCURVE",
"155 -11 OFFCURVE",
"292 -11 CURVE",
"292 107 LINE"
);
},
{
closed = 1;
nodes = (
"123 716 LINE",
"301 682 OFFCURVE",
"399 516 OFFCURVE",
"399 328 CURVE SMOOTH",
"399 149 OFFCURVE",
"385 107 OFFCURVE",
"292 107 CURVE",
"292 -11 LINE",
"439 -11 OFFCURVE",
"557 45 OFFCURVE",
"557 328 CURVE SMOOTH",
"557 606 OFFCURVE",
"343 770 OFFCURVE",
"174 807 CURVE"
);
},
{
closed = 1;
nodes = (
"141 666 LINE",
"205 595 LINE",
"424 744 LINE",
"372 816 LINE"
);
}
);
width = 600;
},
{
layerId = "BE68D89F-AB3F-4BDF-B332-ED50D7C47704";
paths = (
{
closed = 1;
nodes = (
"194 22 OFFCURVE",
"118 114 OFFCURVE",
"118 251 CURVE SMOOTH",
"118 390 OFFCURVE",
"189 479 OFFCURVE",
"287 479 CURVE SMOOTH",
"381 479 OFFCURVE",
"458 398 OFFCURVE",
"463 336 CURVE",
"485 359 LINE",
"477 416 OFFCURVE",
"417 512 OFFCURVE",
"290 512 CURVE SMOOTH",
"150 512 OFFCURVE",
"85 404 OFFCURVE",
"85 251 CURVE SMOOTH",
"85 100 OFFCURVE",
"162 -11 OFFCURVE",
"292 -11 CURVE",
"292 22 LINE"
);
},
{
closed = 1;
nodes = (
"164 762 LINE",
"293 751 OFFCURVE",
"462 586 OFFCURVE",
"462 328 CURVE SMOOTH",
"462 89 OFFCURVE",
"385 22 OFFCURVE",
"292 22 CURVE",
"292 -11 LINE",
"409 -11 OFFCURVE",
"497 75 OFFCURVE",
"497 328 CURVE SMOOTH",
"497 566 OFFCURVE",
"351 765 OFFCURVE",
"182 795 CURVE"
);
},
{
closed = 1;
nodes = (
"210 692 LINE",
"237 664 LINE",
"377 751 LINE",
"355 784 LINE"
);
}
);
width = 600;
},
{
layerId = "2E286313-D5BF-4FB4-A4B7-BD9BC13B574E";
paths = (
{
closed = 1;
nodes = (
"146 22 OFFCURVE",
"109 114 OFFCURVE",
"109 251 CURVE SMOOTH",
"109 390 OFFCURVE",
"142 479 OFFCURVE",
"215 479 CURVE SMOOTH",
"286 479 OFFCURVE",
"334 378 OFFCURVE",
"337 316 CURVE",
"354 339 LINE",
"348 396 OFFCURVE",
"313 512 OFFCURVE",
"218 512 CURVE SMOOTH",
"113 512 OFFCURVE",
"74 404 OFFCURVE",
"74 251 CURVE SMOOTH",
"74 100 OFFCURVE",
"122 -11 OFFCURVE",
"219 -11 CURVE",
"219 22 LINE"
);
},
{
closed = 1;
nodes = (
"106 752 LINE",
"205 741 OFFCURVE",
"337 566 OFFCURVE",
"337 308 CURVE SMOOTH",
"337 69 OFFCURVE",
"289 22 OFFCURVE",
"219 22 CURVE",
"219 -11 LINE",
"307 -11 OFFCURVE",
"373 55 OFFCURVE",
"373 308 CURVE SMOOTH",
"373 556 OFFCURVE",
"254 760 OFFCURVE",
"122 785 CURVE"
);
},
{
closed = 1;
nodes = (
"143 682 LINE",
"169 654 LINE",
"288 740 LINE",
"261 772 LINE"
);
}
);
width = 450;
},
{
layerId = "E338D14E-1DA5-418D-88BC-8956EEA80AB9";
paths = (
{
closed = 1;
nodes = (
"340 22 OFFCURVE",
"197 114 OFFCURVE",
"197 251 CURVE SMOOTH",
"197 390 OFFCURVE",
"331 479 OFFCURVE",
"502 479 CURVE SMOOTH",
"677 479 OFFCURVE",
"812 378 OFFCURVE",
"820 316 CURVE",
"849 329 LINE",
"835 386 OFFCURVE",
"730 512 OFFCURVE",
"508 512 CURVE SMOOTH",
"263 512 OFFCURVE",
"159 404 OFFCURVE",
"159 251 CURVE SMOOTH",
"159 100 OFFCURVE",
"284 -11 OFFCURVE",
"511 -11 CURVE",
"511 22 LINE"
);
},
{
closed = 1;
nodes = (
"287 762 LINE",
"523 751 OFFCURVE",
"819 556 OFFCURVE",
"819 298 CURVE SMOOTH",
"819 89 OFFCURVE",
"674 22 OFFCURVE",
"511 22 CURVE",
"511 -11 LINE",
"716 -11 OFFCURVE",
"860 78 OFFCURVE",
"860 301 CURVE SMOOTH",
"860 551 OFFCURVE",
"614 765 OFFCURVE",
"319 795 CURVE"
);
},
{
closed = 1;
nodes = (
"378 657 LINE",
"405 629 LINE",
"624 765 LINE",
"602 798 LINE"
);
}
);
width = 1050;
}
);
unicode = 00F0;
},
{
glyphname = e;
lastChange = "2019-07-14 11:20:57 +0000";
layers = (
{
anchors = (
{
name = bottom;
position = "{290, 0}";
},
{
name = ogonek;
position = "{300, 0}";
},
{
name = top;
position = "{290, 500}";
}
);
layerId = "5521DC30-183F-421A-91F3-644B5E24AFE6";
paths = (
{
closed = 1;
nodes = (
"158 204 LINE",
"524 204 LINE",
"544 398 OFFCURVE",
"449 512 OFFCURVE",
"285 512 CURVE SMOOTH",
"135 512 OFFCURVE",
"34 413 OFFCURVE",
"34 251 CURVE SMOOTH",
"34 89 OFFCURVE",
"147 -11 OFFCURVE",
"290 -11 CURVE SMOOTH",
"396 -11 OFFCURVE",
"476 29 OFFCURVE",
"516 94 CURVE",
"387 161 LINE",
"368 129 OFFCURVE",
"342 106 OFFCURVE",
"287 107 CURVE SMOOTH",
"231 108 OFFCURVE",
"182 154 OFFCURVE",
"182 241 CURVE SMOOTH",
"182 352 OFFCURVE",
"224 396 OFFCURVE",
"289 396 CURVE SMOOTH",
"349 396 OFFCURVE",
"386 353 OFFCURVE",
"387 301 CURVE",
"158 301 LINE"
);
}
);
width = 600;
},
{
anchors = (
{
name = bottom;
position = "{300, 0}";
},
{
name = ogonek;
position = "{310, 0}";
},
{
name = top;
position = "{300, 500}";
}
);
layerId = "BE68D89F-AB3F-4BDF-B332-ED50D7C47704";
paths = (
{
closed = 1;
nodes = (
"94 249 LINE",
"494 249 LINE",
"504 389 OFFCURVE",
"435 512 OFFCURVE",
"295 512 CURVE SMOOTH",
"187 512 OFFCURVE",
"75 434 OFFCURVE",
"75 251 CURVE SMOOTH",
"75 70 OFFCURVE",
"173 -11 OFFCURVE",
"292 -11 CURVE SMOOTH",
"408 -11 OFFCURVE",
"466 56 OFFCURVE",
"490 92 CURVE",
"459 111 LINE",
"438 77 OFFCURVE",
"392 22 OFFCURVE",
"292 22 CURVE SMOOTH",
"179 22 OFFCURVE",
"112 106 OFFCURVE",
"112 251 CURVE SMOOTH",
"112 408 OFFCURVE",
"200 479 OFFCURVE",
"293 479 CURVE SMOOTH",
"407 479 OFFCURVE",
"459 373 OFFCURVE",
"456 281 CURVE",
"94 281 LINE"
);
}
);
width = 600;
},
{
anchors = (
{
name = bottom;
position = "{228, 0}";
},
{
name = ogonek;
position = "{235, 0}";
},
{
name = top;
position = "{228, 500}";
}
);
layerId = "2E286313-D5BF-4FB4-A4B7-BD9BC13B574E";
paths = (
{
closed = 1;
nodes = (
"93 249 LINE",
"375 249 LINE",
"383 389 OFFCURVE",
"333 512 OFFCURVE",
"228 512 CURVE SMOOTH",
"147 512 OFFCURVE",
"72 434 OFFCURVE",
"72 251 CURVE SMOOTH",
"72 70 OFFCURVE",
"136 -11 OFFCURVE",
"225 -11 CURVE SMOOTH",
"313 -11 OFFCURVE",
"356 64 OFFCURVE",
"367 92 CURVE",
"336 109 LINE",
"328 83 OFFCURVE",
"301 22 OFFCURVE",
"225 22 CURVE SMOOTH",
"141 22 OFFCURVE",
"105 106 OFFCURVE",
"105 251 CURVE SMOOTH",
"105 408 OFFCURVE",
"156 479 OFFCURVE",
"226 479 CURVE SMOOTH",
"312 479 OFFCURVE",
"342 373 OFFCURVE",
"340 281 CURVE",
"93 281 LINE"
);
}
);
width = 450;
},
{
anchors = (
{
name = bottom;
position = "{538, 0}";
},
{
name = ogonek;
position = "{555, 0}";
},
{
name = top;
position = "{538, 500}";
}
);
layerId = "E338D14E-1DA5-418D-88BC-8956EEA80AB9";
paths = (
{
closed = 1;
nodes = (
"210 249 LINE",
"867 249 LINE",
"878 390 OFFCURVE",
"729 512 OFFCURVE",
"534 512 CURVE SMOOTH",
"345 512 OFFCURVE",
"178 427 OFFCURVE",
"178 255 CURVE SMOOTH",
"178 84 OFFCURVE",
"334 -11 OFFCURVE",
"532 -11 CURVE SMOOTH",
"703 -11 OFFCURVE",
"819 55 OFFCURVE",
"859 92 CURVE",
"828 119 LINE",
"795 84 OFFCURVE",
"695 22 OFFCURVE",
"532 22 CURVE SMOOTH",
"335 22 OFFCURVE",
"216 116 OFFCURVE",
"216 251 CURVE SMOOTH",
"216 408 OFFCURVE",
"361 479 OFFCURVE",
"534 479 CURVE SMOOTH",
"704 479 OFFCURVE",
"829 376 OFFCURVE",
"826 281 CURVE",
"210 281 LINE"
);
}
);
width = 1050;
}
);
leftKerningGroup = o;
rightKerningGroup = e;
unicode = 0065;
},
{
glyphname = f;
lastChange = "2019-07-14 11:27:38 +0000";
layers = (
{
layerId = "5521DC30-183F-421A-91F3-644B5E24AFE6";
paths = (
{
closed = 1;
nodes = (
"53 388 LINE",
"540 388 LINE",
"540 500 LINE",
"53 500 LINE"
);
},
{
closed = 1;
nodes = (
"286 807 OFFCURVE",
"191 734 OFFCURVE",
"191 596 CURVE SMOOTH",
"191 0 LINE",
"344 0 LINE",
"344 576 LINE SMOOTH",
"344 662 OFFCURVE",
"377 689 OFFCURVE",
"425 689 CURVE SMOOTH",
"471 689 OFFCURVE",
"502 646 OFFCURVE",
"509 634 CURVE",
"599 725 LINE",
"581 759 OFFCURVE",
"528 807 OFFCURVE",
"422 807 CURVE SMOOTH"
);
}
);
width = 600;
},
{
layerId = "BE68D89F-AB3F-4BDF-B332-ED50D7C47704";
paths = (
{
closed = 1;
nodes = (
"73 468 LINE",
"525 468 LINE",
"525 500 LINE",
"73 500 LINE"
);
},
{
closed = 1;
nodes = (
"302 807 OFFCURVE",
"231 732 OFFCURVE",
"231 584 CURVE SMOOTH",
"231 0 LINE",
"264 0 LINE",
"264 579 LINE SMOOTH",
"264 715 OFFCURVE",
"323 774 OFFCURVE",
"412 774 CURVE SMOOTH",
"482 774 OFFCURVE",
"509 736 OFFCURVE",
"518 723 CURVE",
"542 746 LINE",
"532 761 OFFCURVE",
"497 807 OFFCURVE",
"409 807 CURVE SMOOTH"
);
}
);
width = 600;
},
{
layerId = "2E286313-D5BF-4FB4-A4B7-BD9BC13B574E";
paths = (
{
closed = 1;
nodes = (
"80 468 LINE",
"389 468 LINE",
"389 500 LINE",
"80 500 LINE"
);
},
{
closed = 1;
nodes = (
"239 807 OFFCURVE",
"188 744 OFFCURVE",
"188 626 CURVE SMOOTH",
"188 0 LINE",
"223 0 LINE",
"223 618 LINE SMOOTH",
"223 734 OFFCURVE",
"261 774 OFFCURVE",
"327 774 CURVE SMOOTH",
"378 774 OFFCURVE",
"399 735 OFFCURVE",
"404 724 CURVE",
"429 744 LINE",
"422 761 OFFCURVE",
"389 807 OFFCURVE",
"326 807 CURVE SMOOTH"
);
}
);
width = 450;
},
{
layerId = "E338D14E-1DA5-418D-88BC-8956EEA80AB9";
paths = (
{
closed = 1;
nodes = (
"143 468 LINE",
"903 468 LINE",
"903 500 LINE",
"143 500 LINE"
);
},
{
closed = 1;
nodes = (
"533 807 OFFCURVE",
"419 724 OFFCURVE",
"419 546 CURVE SMOOTH",
"419 0 LINE",
"457 0 LINE",
"457 536 LINE SMOOTH",
"457 722 OFFCURVE",
"585 774 OFFCURVE",
"709 774 CURVE SMOOTH",
"818 774 OFFCURVE",
"866 740 OFFCURVE",
"884 723 CURVE",
"913 748 LINE",
"901 762 OFFCURVE",
"842 807 OFFCURVE",
"706 807 CURVE SMOOTH"
);
}
);
width = 1050;
}
);
leftKerningGroup = f;
rightKerningGroup = f;
unicode = 0066;
},
{
glyphname = g;
lastChange = "2019-07-14 11:44:22 +0000";
layers = (
{
anchors = (
{
name = bottom;
position = "{300, 0}";
},
{
name = top;
position = "{300, 500}";
}
);
layerId = "5521DC30-183F-421A-91F3-644B5E24AFE6";
paths = (
{
closed = 1;
nodes = (
"417 149 OFFCURVE",
"535 198 OFFCURVE",
"535 331 CURVE SMOOTH",
"535 463 OFFCURVE",
"427 512 OFFCURVE",
"301 512 CURVE SMOOTH",
"174 512 OFFCURVE",
"66 463 OFFCURVE",
"66 331 CURVE SMOOTH",
"66 198 OFFCURVE",
"174 149 OFFCURVE",
"301 149 CURVE SMOOTH"
);
},
{
closed = 1;
nodes = (
"248 262 OFFCURVE",
"219 287 OFFCURVE",
"219 331 CURVE SMOOTH",
"219 374 OFFCURVE",
"248 399 OFFCURVE",
"301 399 CURVE SMOOTH",
"353 399 OFFCURVE",
"382 374 OFFCURVE",
"382 331 CURVE SMOOTH",
"382 287 OFFCURVE",
"353 262 OFFCURVE",
"301 262 CURVE SMOOTH"
);
},
{
closed = 1;
nodes = (
"601 469 LINE",
"517 549 LINE",
"367 401 LINE",
"450 319 LINE"
);
},
{
closed = 1;
nodes = (
"284 101 LINE SMOOTH",
"247 101 OFFCURVE",
"231 115 OFFCURVE",
"231 133 CURVE SMOOTH",
"231 145 OFFCURVE",
"238 158 OFFCURVE",
"250 170 CURVE",
"175 199 LINE",
"150 191 OFFCURVE",
"85 170 OFFCURVE",
"85 101 CURVE SMOOTH",
"85 26 OFFCURVE",
"168 -1 OFFCURVE",
"219 -1 CURVE SMOOTH",
"354 -1 LINE SMOOTH",
"405 -1 OFFCURVE",
"422 -21 OFFCURVE",
"414 -52 CURVE SMOOTH",
"405 -86 OFFCURVE",
"348 -96 OFFCURVE",
"307 -96 CURVE SMOOTH",
"248 -96 OFFCURVE",
"195 -81 OFFCURVE",
"195 -48 CURVE SMOOTH",
"195 -16 OFFCURVE",
"227 -1 OFFCURVE",
"248 7 CURVE",
"160 55 LINE",
"125 47 OFFCURVE",
"55 10 OFFCURVE",
"55 -59 CURVE SMOOTH",
"55 -157 OFFCURVE",
"169 -202 OFFCURVE",
"307 -202 CURVE SMOOTH",
"475 -202 OFFCURVE",
"549 -134 OFFCURVE",
"555 -43 CURVE SMOOTH",
"561 45 OFFCURVE",
"510 101 OFFCURVE",
"386 101 CURVE SMOOTH"
);
}
);
width = 600;
},
{
anchors = (
{
name = bottom;
position = "{300, 0}";
},
{
name = top;
position = "{300, 500}";
}
);
layerId = "BE68D89F-AB3F-4BDF-B332-ED50D7C47704";
paths = (
{
closed = 1;
nodes = (
"392 149 OFFCURVE",
"493 198 OFFCURVE",
"493 331 CURVE SMOOTH",
"493 463 OFFCURVE",
"397 512 OFFCURVE",
"301 512 CURVE SMOOTH",
"204 512 OFFCURVE",
"108 463 OFFCURVE",
"108 331 CURVE SMOOTH",
"108 198 OFFCURVE",
"210 149 OFFCURVE",
"301 149 CURVE SMOOTH"
);
},
{
closed = 1;
nodes = (
"218 182 OFFCURVE",
"144 227 OFFCURVE",
"144 331 CURVE SMOOTH",
"144 434 OFFCURVE",
"208 480 OFFCURVE",
"301 480 CURVE SMOOTH",
"393 480 OFFCURVE",
"457 434 OFFCURVE",
"457 331 CURVE SMOOTH",
"457 227 OFFCURVE",
"383 182 OFFCURVE",
"301 182 CURVE SMOOTH"
);
},
{
closed = 1;
nodes = (
"544 510 LINE",
"521 533 LINE",
"436 449 LINE",
"458 425 LINE"
);
},
{
closed = 1;
nodes = (
"201 32 LINE SMOOTH",
"169 32 OFFCURVE",
"146 56 OFFCURVE",
"146 83 CURVE SMOOTH",
"146 136 OFFCURVE",
"195 168 OFFCURVE",
"228 182 CURVE",
"196 195 LINE",
"171 187 OFFCURVE",
"112 147 OFFCURVE",
"112 83 CURVE SMOOTH",
"112 37 OFFCURVE",
"146 -1 OFFCURVE",
"190 -1 CURVE SMOOTH",
"358 -1 LINE SMOOTH",
"457 -1 OFFCURVE",
"473 -34 OFFCURVE",
"473 -77 CURVE SMOOTH",
"473 -130 OFFCURVE",
"410 -170 OFFCURVE",
"299 -170 CURVE SMOOTH",
"178 -170 OFFCURVE",
"130 -128 OFFCURVE",
"130 -79 CURVE SMOOTH",
"130 -28 OFFCURVE",
"183 -2 OFFCURVE",
"212 3 CURVE",
"177 17 LINE",
"149 12 OFFCURVE",
"95 -23 OFFCURVE",
"95 -79 CURVE SMOOTH",
"95 -142 OFFCURVE",
"151 -202 OFFCURVE",
"299 -202 CURVE SMOOTH",
"440 -202 OFFCURVE",
"508 -139 OFFCURVE",
"508 -73 CURVE SMOOTH",
"508 -16 OFFCURVE",
"466 32 OFFCURVE",
"365 32 CURVE SMOOTH"
);
}
);
width = 600;
},
{
anchors = (
{
name = bottom;
position = "{225, 0}";
},
{
name = top;
position = "{225, 500}";
}
);
layerId = "2E286313-D5BF-4FB4-A4B7-BD9BC13B574E";
paths = (
{
closed = 1;
nodes = (
"302 149 OFFCURVE",
"378 208 OFFCURVE",
"378 331 CURVE SMOOTH",
"378 453 OFFCURVE",
"305 512 OFFCURVE",
"226 512 CURVE SMOOTH",
"146 512 OFFCURVE",
"73 453 OFFCURVE",
"73 331 CURVE SMOOTH",
"73 208 OFFCURVE",
"150 149 OFFCURVE",
"226 149 CURVE SMOOTH"
);
},
{
closed = 1;
nodes = (
"156 182 OFFCURVE",
"108 237 OFFCURVE",
"108 331 CURVE SMOOTH",
"108 424 OFFCURVE",
"149 480 OFFCURVE",
"226 480 CURVE SMOOTH",
"302 480 OFFCURVE",
"343 424 OFFCURVE",
"343 331 CURVE SMOOTH",
"343 237 OFFCURVE",
"295 182 OFFCURVE",
"226 182 CURVE SMOOTH"
);
},
{
closed = 1;
nodes = (
"405 510 LINE",
"383 533 LINE",
"314 459 LINE",
"336 435 LINE"
);
},
{
closed = 1;
nodes = (
"161 32 LINE SMOOTH",
"139 32 OFFCURVE",
"111 48 OFFCURVE",
"111 84 CURVE SMOOTH",
"111 122 OFFCURVE",
"144 157 OFFCURVE",
"171 172 CURVE",
"148 195 LINE",
"118 178 OFFCURVE",
"76 132 OFFCURVE",
"76 83 CURVE SMOOTH",
"76 28 OFFCURVE",
"120 -1 OFFCURVE",
"158 -1 CURVE SMOOTH",
"267 -1 LINE SMOOTH",
"343 -1 OFFCURVE",
"354 -34 OFFCURVE",
"354 -77 CURVE SMOOTH",
"354 -131 OFFCURVE",
"301 -170 OFFCURVE",
"220 -170 CURVE SMOOTH",
"130 -170 OFFCURVE",
"90 -137 OFFCURVE",
"90 -85 CURVE SMOOTH",
"90 -27 OFFCURVE",
"141 -8 OFFCURVE",
"175 1 CURVE",
"146 17 LINE",
"122 11 OFFCURVE",
"56 -14 OFFCURVE",
"56 -83 CURVE SMOOTH",
"56 -156 OFFCURVE",
"109 -202 OFFCURVE",
"220 -202 CURVE SMOOTH",
"324 -202 OFFCURVE",
"388 -139 OFFCURVE",
"388 -73 CURVE SMOOTH",
"388 -16 OFFCURVE",
"358 32 OFFCURVE",
"279 32 CURVE SMOOTH"
);
}
);
width = 450;
},
{
anchors = (
{
name = bottom;
position = "{525, 0}";
},
{
name = top;
position = "{525, 500}";
}
);
layerId = "E338D14E-1DA5-418D-88BC-8956EEA80AB9";
paths = (
{
closed = 1;
nodes = (
"704 149 OFFCURVE",
"859 198 OFFCURVE",
"859 331 CURVE SMOOTH",
"859 463 OFFCURVE",
"712 512 OFFCURVE",
"527 512 CURVE SMOOTH",
"340 512 OFFCURVE",
"193 463 OFFCURVE",
"193 331 CURVE SMOOTH",
"193 198 OFFCURVE",
"350 149 OFFCURVE",
"527 149 CURVE SMOOTH"
);
},
{
closed = 1;
nodes = (
"364 182 OFFCURVE",
"232 227 OFFCURVE",
"232 331 CURVE SMOOTH",
"232 434 OFFCURVE",
"347 480 OFFCURVE",
"527 480 CURVE SMOOTH",
"705 480 OFFCURVE",
"820 434 OFFCURVE",
"820 331 CURVE SMOOTH",
"820 227 OFFCURVE",
"688 182 OFFCURVE",
"527 182 CURVE SMOOTH"
);
},
{
closed = 1;
nodes = (
"908 510 LINE",
"885 533 LINE",
"779 428 LINE",
"801 404 LINE"
);
},
{
closed = 1;
nodes = (
"332 32 LINE SMOOTH",
"276 32 OFFCURVE",
"247 55 OFFCURVE",
"247 92 CURVE SMOOTH",
"247 137 OFFCURVE",
"317 169 OFFCURVE",
"379 180 CURVE",
"335 193 LINE",
"276 183 OFFCURVE",
"212 144 OFFCURVE",
"212 91 CURVE SMOOTH",
"212 45 OFFCURVE",
"251 -1 OFFCURVE",
"348 -1 CURVE SMOOTH",
"669 -1 LINE SMOOTH",
"823 -1 OFFCURVE",
"851 -32 OFFCURVE",
"851 -74 CURVE SMOOTH",
"851 -129 OFFCURVE",
"749 -179 OFFCURVE",
"537 -179 CURVE SMOOTH",
"326 -179 OFFCURVE",
"214 -147 OFFCURVE",
"214 -85 CURVE SMOOTH",
"214 -32 OFFCURVE",
"305 -6 OFFCURVE",
"358 -1 CURVE",
"301 10 LINE",
"261 9 OFFCURVE",
"176 -20 OFFCURVE",
"176 -83 CURVE SMOOTH",
"176 -166 OFFCURVE",
"278 -211 OFFCURVE",
"537 -211 CURVE SMOOTH",
"802 -211 OFFCURVE",
"889 -140 OFFCURVE",
"889 -73 CURVE SMOOTH",
"889 -15 OFFCURVE",
"838 32 OFFCURVE",
"678 32 CURVE SMOOTH"
);
}
);
width = 1050;
}
);
unicode = 0067;
},
{
glyphname = g.ss01;
lastChange = "2018-05-16 13:08:52 +0000";
layers = (
{
layerId = "5521DC30-183F-421A-91F3-644B5E24AFE6";
paths = (
{
closed = 1;
nodes = (
"427 149 OFFCURVE",
"545 188 OFFCURVE",
"545 331 CURVE SMOOTH",
"545 473 OFFCURVE",
"437 512 OFFCURVE",
"301 512 CURVE SMOOTH",
"164 512 OFFCURVE",
"56 473 OFFCURVE",
"56 331 CURVE SMOOTH",
"56 188 OFFCURVE",
"164 149 OFFCURVE",
"301 149 CURVE SMOOTH"
);
},
{
closed = 1;
nodes = (
"307 -84 LINE",
"241 -84 OFFCURVE",
"205 -79 OFFCURVE",
"197 -52 CURVE SMOOTH",
"189 -25 OFFCURVE",
"205 -1 OFFCURVE",
"226 17 CURVE",
"115 45 LINE",
"90 27 OFFCURVE",
"45 0 OFFCURVE",
"45 -69 CURVE SMOOTH",
"45 -167 OFFCURVE",
"159 -202 OFFCURVE",
"307 -202 CURVE"
);
},
{
closed = 1;
nodes = (
"275 -1 LINE",
"288 101 LINE",
"284 101 LINE SMOOTH",
"212 101 OFFCURVE",
"225 142 OFFCURVE",
"248 170 CURVE",
"155 199 LINE",
"130 181 OFFCURVE",
"75 161 OFFCURVE",
"75 92 CURVE SMOOTH",
"75 17 OFFCURVE",
"199 -1 OFFCURVE",
"260 -1 CURVE SMOOTH"
);
},
{
closed = 1;
nodes = (
"364 -1 LINE",
"406 101 LINE",
"288 101 LINE",
"268 -1 LINE"
);
},
{
closed = 1;
nodes = (
"485 -202 OFFCURVE",
"554 -133 OFFCURVE",
"565 -43 CURVE SMOOTH",
"576 45 OFFCURVE",
"530 101 OFFCURVE",
"406 101 CURVE",
"364 -1 LINE",
"415 -1 OFFCURVE",
"423 -14 OFFCURVE",
"416 -47 CURVE SMOOTH",
"409 -81 OFFCURVE",
"358 -84 OFFCURVE",
"307 -84 CURVE",
"307 -202 LINE"
);
},
{
closed = 1;
nodes = (
"238 271 OFFCURVE",
"214 287 OFFCURVE",
"214 331 CURVE SMOOTH",
"214 374 OFFCURVE",
"238 390 OFFCURVE",
"301 390 CURVE SMOOTH",
"363 390 OFFCURVE",
"387 374 OFFCURVE",
"387 331 CURVE SMOOTH",
"387 287 OFFCURVE",
"363 271 OFFCURVE",
"301 271 CURVE SMOOTH"
);
},
{
closed = 1;
nodes = (
"541 389 OFFCURVE",
"592 394 OFFCURVE",
"611 393 CURVE",
"586 503 LINE",
"518 503 OFFCURVE",
"435 467 OFFCURVE",
"449 367 CURVE",
"545 331 LINE"
);
}
);
width = 600;
},
{
layerId = "BE68D89F-AB3F-4BDF-B332-ED50D7C47704";
paths = (
{
closed = 1;
nodes = (
"402 149 OFFCURVE",
"493 188 OFFCURVE",
"493 331 CURVE SMOOTH",
"493 473 OFFCURVE",
"407 512 OFFCURVE",
"301 512 CURVE SMOOTH",
"194 512 OFFCURVE",
"108 473 OFFCURVE",
"108 331 CURVE SMOOTH",
"108 188 OFFCURVE",
"200 149 OFFCURVE",
"301 149 CURVE SMOOTH"
);
},
{
closed = 1;
nodes = (
"307 -150 LINE",
"186 -150 OFFCURVE",
"132 -117 OFFCURVE",
"131 -65 CURVE SMOOTH",
"130 -13 OFFCURVE",
"173 16 OFFCURVE",
"192 26 CURVE",
"169 41 LINE",
"152 33 OFFCURVE",
"95 -1 OFFCURVE",
"95 -63 CURVE SMOOTH",
"95 -136 OFFCURVE",
"159 -182 OFFCURVE",
"307 -182 CURVE"
);
},
{
closed = 1;
nodes = (
"234 -1 LINE",
"238 31 LINE",
"201 32 LINE SMOOTH",
"128 34 OFFCURVE",
"168 155 OFFCURVE",
"228 182 CURVE",
"197 195 LINE",
"172 177 OFFCURVE",
"131 140 OFFCURVE",
"125 92 CURVE SMOOTH",
"118 37 OFFCURVE",
"146 -1 OFFCURVE",
"210 -1 CURVE SMOOTH"
);
},
{
closed = 1;
nodes = (
"382 -1 LINE",
"399 31 LINE",
"238 31 LINE",
"228 -1 LINE"
);
},
{
closed = 1;
nodes = (
"458 -182 OFFCURVE",
"502 -109 OFFCURVE",
"508 -63 CURVE SMOOTH",
"514 -16 OFFCURVE",
"490 31 OFFCURVE",
"399 31 CURVE",
"382 -1 LINE",
"471 -1 OFFCURVE",
"476 -35 OFFCURVE",
"470 -67 CURVE SMOOTH",
"464 -101 OFFCURVE",
"428 -150 OFFCURVE",
"307 -150 CURVE",
"307 -182 LINE"
);
},
{
closed = 1;
nodes = (
"208 182 OFFCURVE",
"144 217 OFFCURVE",
"144 331 CURVE SMOOTH",
"144 444 OFFCURVE",
"198 480 OFFCURVE",
"301 480 CURVE SMOOTH",
"403 480 OFFCURVE",
"457 444 OFFCURVE",
"457 331 CURVE SMOOTH",
"457 217 OFFCURVE",
"393 182 OFFCURVE",
"301 182 CURVE SMOOTH"
);
},
{
closed = 1;
nodes = (
"488 449 OFFCURVE",
"530 470 OFFCURVE",
"559 471 CURVE",
"550 503 LINE",
"512 503 OFFCURVE",
"448 460 OFFCURVE",
"462 360 CURVE",
"492 351 LINE"
);
}
);
width = 600;
},
{
layerId = "2E286313-D5BF-4FB4-A4B7-BD9BC13B574E";
paths = (
{
closed = 1;
nodes = (
"302 149 OFFCURVE",
"380 188 OFFCURVE",
"380 331 CURVE SMOOTH",
"380 473 OFFCURVE",
"305 512 OFFCURVE",
"226 512 CURVE SMOOTH",
"146 512 OFFCURVE",
"71 473 OFFCURVE",
"71 331 CURVE SMOOTH",
"71 188 OFFCURVE",
"150 149 OFFCURVE",
"226 149 CURVE SMOOTH"
);
},
{
closed = 1;
nodes = (
"230 -150 LINE",
"140 -150 OFFCURVE",
"99 -117 OFFCURVE",
"98 -65 CURVE",
"98 -13 OFFCURVE",
"130 16 OFFCURVE",
"144 26 CURVE",
"127 41 LINE",
"114 33 OFFCURVE",
"62 -1 OFFCURVE",
"62 -63 CURVE SMOOTH",
"62 -136 OFFCURVE",
"119 -182 OFFCURVE",
"230 -182 CURVE"
);
},
{
closed = 1;
nodes = (
"179 -1 LINE",
"179 31 LINE",
"151 32 LINE SMOOTH",
"96 34 OFFCURVE",
"126 155 OFFCURVE",
"171 182 CURVE",
"148 195 LINE",
"129 177 OFFCURVE",
"92 140 OFFCURVE",
"88 92 CURVE SMOOTH",
"83 37 OFFCURVE",
"110 -1 OFFCURVE",
"158 -1 CURVE SMOOTH"
);
},
{
closed = 1;
nodes = (
"287 -1 LINE",
"299 31 LINE",
"179 31 LINE",
"171 -1 LINE"
);
},
{
closed = 1;
nodes = (
"344 -182 OFFCURVE",
"387 -109 OFFCURVE",
"391 -63 CURVE SMOOTH",
"396 -16 OFFCURVE",
"368 31 OFFCURVE",
"299 31 CURVE",
"287 -1 LINE",
"353 -1 OFFCURVE",
"357 -35 OFFCURVE",
"353 -67 CURVE SMOOTH",
"348 -101 OFFCURVE",
"321 -150 OFFCURVE",
"230 -150 CURVE",
"230 -182 LINE"
);
},
{
closed = 1;
nodes = (
"156 182 OFFCURVE",
"108 220 OFFCURVE",
"108 331 CURVE SMOOTH",
"108 442 OFFCURVE",
"149 480 OFFCURVE",
"226 480 CURVE SMOOTH",
"302 480 OFFCURVE",
"343 444 OFFCURVE",
"343 331 CURVE SMOOTH",
"343 220 OFFCURVE",
"295 182 OFFCURVE",
"226 182 CURVE SMOOTH"
);
},
{
closed = 1;
nodes = (
"376 449 OFFCURVE",
"415 470 OFFCURVE",
"436 471 CURVE",
"430 503 LINE",
"401 503 OFFCURVE",
"336 460 OFFCURVE",
"347 360 CURVE",
"379 351 LINE"
);
}
);
width = 450;
},
{
layerId = "E338D14E-1DA5-418D-88BC-8956EEA80AB9";
paths = (
{
closed = 1;
nodes = (
"704 149 OFFCURVE",
"859 188 OFFCURVE",
"859 331 CURVE SMOOTH",
"859 473 OFFCURVE",
"712 512 OFFCURVE",
"527 512 CURVE SMOOTH",
"340 512 OFFCURVE",
"193 473 OFFCURVE",
"193 331 CURVE SMOOTH",
"193 188 OFFCURVE",
"350 149 OFFCURVE",
"527 149 CURVE SMOOTH"
);
},
{
closed = 1;
nodes = (
"537 -150 LINE",
"326 -150 OFFCURVE",
"218 -117 OFFCURVE",
"216 -65 CURVE SMOOTH",
"215 -13 OFFCURVE",
"303 16 OFFCURVE",
"336 26 CURVE",
"296 41 LINE",
"266 33 OFFCURVE",
"176 -1 OFFCURVE",
"176 -63 CURVE SMOOTH",
"176 -136 OFFCURVE",
"278 -182 OFFCURVE",
"537 -182 CURVE"
);
},
{
closed = 1;
nodes = (
"409 -1 LINE",
"417 31 LINE",
"352 32 LINE SMOOTH",
"224 34 OFFCURVE",
"254 145 OFFCURVE",
"389 182 CURVE",
"345 195 LINE",
"301 177 OFFCURVE",
"245 150 OFFCURVE",
"235 102 CURVE SMOOTH",
"223 47 OFFCURVE",
"256 -1 OFFCURVE",
"368 -1 CURVE SMOOTH"
);
},
{
closed = 1;
nodes = (
"669 -1 LINE",
"698 31 LINE",
"417 31 LINE",
"401 -1 LINE"
);
},
{
closed = 1;
nodes = (
"802 -182 OFFCURVE",
"869 -109 OFFCURVE",
"879 -63 CURVE SMOOTH",
"890 -16 OFFCURVE",
"858 31 OFFCURVE",
"698 31 CURVE",
"669 -1 LINE",
"824 -1 OFFCURVE",
"847 -32 OFFCURVE",
"840 -64 CURVE SMOOTH",
"833 -98 OFFCURVE",
"749 -150 OFFCURVE",
"537 -150 CURVE",
"537 -182 LINE"
);
},
{
closed = 1;
nodes = (
"364 182 OFFCURVE",
"232 217 OFFCURVE",
"232 331 CURVE SMOOTH",
"232 444 OFFCURVE",
"347 480 OFFCURVE",
"527 480 CURVE SMOOTH",
"705 480 OFFCURVE",
"820 444 OFFCURVE",
"820 331 CURVE SMOOTH",
"820 217 OFFCURVE",
"688 182 OFFCURVE",
"527 182 CURVE SMOOTH"
);
},
{
closed = 1;
nodes = (
"852 429 OFFCURVE",
"928 470 OFFCURVE",
"978 471 CURVE",
"963 503 LINE",
"896 503 OFFCURVE",
"806 435 OFFCURVE",
"829 348 CURVE",
"859 331 LINE"
);
}
);
width = 1050;
}
);
leftKerningGroup = g;
rightKerningGroup = g;
},
{
glyphname = h;
lastChange = "2019-07-14 11:45:17 +0000";
layers = (
{
anchors = (
{
name = bottom;
position = "{310, 0}";
},
{
name = center;
position = "{139, 649}";
},
{
name = top;
position = "{310, 500}";
}
);
layerId = "5521DC30-183F-421A-91F3-644B5E24AFE6";
paths = (
{
closed = 1;
nodes = (
"550 0 LINE",
"550 302 LINE SMOOTH",
"550 455 OFFCURVE",
"479 511 OFFCURVE",
"353 511 CURVE SMOOTH",
"236 511 OFFCURVE",
"161 424 OFFCURVE",
"161 322 CURVE",
"220 312 LINE",
"225 356 OFFCURVE",
"258 393 OFFCURVE",
"320 393 CURVE SMOOTH",
"372 393 OFFCURVE",
"397 369 OFFCURVE",
"397 272 CURVE SMOOTH",
"397 0 LINE"
);
},
{
closed = 1;
nodes = (
"226 0 LINE",
"226 800 LINE",
"73 800 LINE",
"73 0 LINE"
);
}
);
width = 600;
},
{
anchors = (
{
name = bottom;
position = "{310, 0}";
},
{
name = center;
position = "{139, 649}";
},
{
name = top;
position = "{310, 500}";
}
);
layerId = "BE68D89F-AB3F-4BDF-B332-ED50D7C47704";
paths = (
{
closed = 1;
nodes = (
"494 0 LINE",
"494 292 LINE SMOOTH",
"494 446 OFFCURVE",
"448 512 OFFCURVE",
"337 512 CURVE SMOOTH",
"207 512 OFFCURVE",
"129 413 OFFCURVE",
"128 312 CURVE",
"156 312 LINE",
"160 408 OFFCURVE",
"243 479 OFFCURVE",
"333 479 CURVE SMOOTH",
"431 479 OFFCURVE",
"461 419 OFFCURVE",
"461 282 CURVE SMOOTH",
"461 0 LINE"
);
},
{
closed = 1;
nodes = (
"158 0 LINE",
"158 800 LINE",
"125 800 LINE",
"125 0 LINE"
);
}
);
width = 600;
},
{
anchors = (
{
name = bottom;
position = "{245, 0}";
},
{
name = center;
position = "{117, 649}";
},
{
name = top;
position = "{245, 500}";
}
);
layerId = "2E286313-D5BF-4FB4-A4B7-BD9BC13B574E";
paths = (
{
closed = 1;
nodes = (
"383 0 LINE",
"383 312 LINE SMOOTH",
"383 455 OFFCURVE",
"346 512 OFFCURVE",
"263 512 CURVE SMOOTH",
"165 512 OFFCURVE",
"110 413 OFFCURVE",
"109 312 CURVE",
"139 312 LINE",
"142 408 OFFCURVE",
"192 479 OFFCURVE",
"260 479 CURVE SMOOTH",
"333 479 OFFCURVE",
"348 419 OFFCURVE",
"348 302 CURVE SMOOTH",
"348 0 LINE"
);
},
{
closed = 1;
nodes = (
"141 0 LINE",
"141 800 LINE",
"106 800 LINE",
"106 0 LINE"
);
}
);
width = 450;
},
{
anchors = (
{
name = bottom;
position = "{535, 0}";
},
{
name = center;
position = "{236, 649}";
},
{
name = top;
position = "{535, 500}";
}
);
layerId = "E338D14E-1DA5-418D-88BC-8956EEA80AB9";
paths = (
{
closed = 1;
nodes = (
"847 0 LINE",
"847 242 LINE SMOOTH",
"847 445 OFFCURVE",
"766 512 OFFCURVE",
"580 512 CURVE SMOOTH",
"352 512 OFFCURVE",
"229 403 OFFCURVE",
"227 262 CURVE",
"257 262 LINE",
"264 398 OFFCURVE",
"415 479 OFFCURVE",
"573 479 CURVE SMOOTH",
"744 479 OFFCURVE",
"809 422 OFFCURVE",
"809 232 CURVE SMOOTH",
"809 0 LINE"
);
},
{
closed = 1;
nodes = (
"259 0 LINE",
"259 800 LINE",
"221 800 LINE",
"221 0 LINE"
);
}
);
width = 1050;
}
);
leftKerningGroup = h;
rightKerningGroup = n;
unicode = 0068;
},
{
glyphname = i;
lastChange = "2018-05-31 14:15:00 +0000";
layers = (
{
anchors = (
{
name = bottom;
position = "{300, 0}";
}
);
layerId = "5521DC30-183F-421A-91F3-644B5E24AFE6";
paths = (
{
closed = 1;
nodes = (
"377 587 OFFCURVE",
"426 636 OFFCURVE",
"426 698 CURVE SMOOTH",
"426 760 OFFCURVE",
"377 809 OFFCURVE",
"315 809 CURVE SMOOTH",
"253 809 OFFCURVE",
"204 760 OFFCURVE",
"204 698 CURVE SMOOTH",
"204 636 OFFCURVE",
"253 587 OFFCURVE",
"315 587 CURVE SMOOTH"
);
},
{
closed = 1;
nodes = (
"392 500 LINE",
"80 500 LINE",
"80 388 LINE",
"239 388 LINE",
"239 0 LINE",
"534 0 LINE",
"534 112 LINE",
"392 112 LINE"
);
}
);
width = 600;
},
{
anchors = (
{
name = bottom;
position = "{300, 0}";
}
);
layerId = "BE68D89F-AB3F-4BDF-B332-ED50D7C47704";
paths = (
{
closed = 1;
nodes = (
"319 653 OFFCURVE",
"339 673 OFFCURVE",
"339 698 CURVE SMOOTH",
"339 723 OFFCURVE",
"319 743 OFFCURVE",
"294 743 CURVE SMOOTH",
"269 743 OFFCURVE",
"249 723 OFFCURVE",
"249 698 CURVE SMOOTH",
"249 673 OFFCURVE",
"269 653 OFFCURVE",
"294 653 CURVE SMOOTH"
);
},
{
closed = 1;
nodes = (
"312 500 LINE",
"95 500 LINE",
"95 468 LINE",
"279 468 LINE",
"279 0 LINE",
"481 0 LINE",
"481 32 LINE",
"312 32 LINE"
);
}
);
width = 600;
},
{
anchors = (
{
name = bottom;
position = "{225, 0}";
}
);
layerId = "2E286313-D5BF-4FB4-A4B7-BD9BC13B574E";
paths = (
{
closed = 1;
nodes = (
"247 653 OFFCURVE",
"267 673 OFFCURVE",
"267 698 CURVE SMOOTH",
"267 723 OFFCURVE",
"247 743 OFFCURVE",
"222 743 CURVE SMOOTH",
"197 743 OFFCURVE",
"177 723 OFFCURVE",
"177 698 CURVE SMOOTH",
"177 673 OFFCURVE",
"197 653 OFFCURVE",
"222 653 CURVE SMOOTH"
);
},
{
closed = 1;
nodes = (
"239 500 LINE",
"77 500 LINE",
"77 468 LINE",
"204 468 LINE",
"204 0 LINE",
"363 0 LINE",
"363 32 LINE",
"239 32 LINE"
);
}
);
width = 450;
},
{
anchors = (
{
name = bottom;
position = "{525, 0}";
}
);
layerId = "E338D14E-1DA5-418D-88BC-8956EEA80AB9";
paths = (
{
closed = 1;
nodes = (
"543 653 OFFCURVE",
"563 673 OFFCURVE",
"563 698 CURVE SMOOTH",
"563 723 OFFCURVE",
"543 743 OFFCURVE",
"518 743 CURVE SMOOTH",
"493 743 OFFCURVE",
"473 723 OFFCURVE",
"473 698 CURVE SMOOTH",
"473 673 OFFCURVE",
"493 653 OFFCURVE",
"518 653 CURVE SMOOTH"
);
},
{
closed = 1;
nodes = (
"535 500 LINE",
"191 500 LINE",
"191 468 LINE",
"500 468 LINE",
"500 0 LINE",
"852 0 LINE",
"852 32 LINE",
"535 32 LINE"
);
}
);
width = 1050;
}
);
leftKerningGroup = i;
rightKerningGroup = i;
unicode = 0069;
},
{
glyphname = i.ss01;
lastChange = "2018-05-31 00:57:56 +0000";
layers = (
{
anchors = (
{
name = bottom;
position = "{300, 0}";
}
);
layerId = "5521DC30-183F-421A-91F3-644B5E24AFE6";
paths = (
{
closed = 1;
nodes = (
"356 605 OFFCURVE",
"397 646 OFFCURVE",
"397 698 CURVE SMOOTH",
"397 750 OFFCURVE",
"356 791 OFFCURVE",
"304 791 CURVE SMOOTH",
"252 791 OFFCURVE",
"211 750 OFFCURVE",
"211 698 CURVE SMOOTH",
"211 646 OFFCURVE",
"252 605 OFFCURVE",
"304 605 CURVE SMOOTH"
);
},
{
closed = 1;
nodes = (
"403 106 OFFCURVE",
"382 109 OFFCURVE",
"382 172 CURVE SMOOTH",
"382 500 LINE",
"101 500 LINE",
"101 378 LINE",
"229 378 LINE",
"229 122 LINE SMOOTH",
"229 9 OFFCURVE",
"313 -11 OFFCURVE",
"405 -11 CURVE SMOOTH",
"472 -11 OFFCURVE",
"526 -1 OFFCURVE",
"534 0 CURVE",
"534 123 LINE",
"529 121 OFFCURVE",
"469 106 OFFCURVE",
"430 106 CURVE SMOOTH"
);
}
);
width = 600;
},
{
anchors = (
{
name = bottom;
position = "{300, 0}";
}
);
layerId = "BE68D89F-AB3F-4BDF-B332-ED50D7C47704";
paths = (
{
closed = 1;
nodes = (
"309 653 OFFCURVE",
"329 673 OFFCURVE",
"329 698 CURVE SMOOTH",
"329 723 OFFCURVE",
"309 743 OFFCURVE",
"284 743 CURVE SMOOTH",
"259 743 OFFCURVE",
"239 723 OFFCURVE",
"239 698 CURVE SMOOTH",
"239 673 OFFCURVE",
"259 653 OFFCURVE",
"284 653 CURVE SMOOTH"
);
},
{
closed = 1;
nodes = (
"340 20 OFFCURVE",
"302 30 OFFCURVE",
"302 123 CURVE SMOOTH",
"302 500 LINE",
"111 500 LINE",
"111 468 LINE",
"269 468 LINE",
"269 117 LINE SMOOTH",
"269 14 OFFCURVE",
"313 -11 OFFCURVE",
"375 -11 CURVE SMOOTH",
"429 -11 OFFCURVE",
"478 -1 OFFCURVE",
"484 0 CURVE",
"484 32 LINE",
"479 31 OFFCURVE",
"428 20 OFFCURVE",
"384 20 CURVE SMOOTH"
);
}
);
width = 600;
},
{
anchors = (
{
name = bottom;
position = "{225, 0}";
}
);
layerId = "2E286313-D5BF-4FB4-A4B7-BD9BC13B574E";
paths = (
{
closed = 1;
nodes = (
"242 653 OFFCURVE",
"262 673 OFFCURVE",
"262 698 CURVE SMOOTH",
"262 723 OFFCURVE",
"242 743 OFFCURVE",
"217 743 CURVE SMOOTH",
"192 743 OFFCURVE",
"172 723 OFFCURVE",
"172 698 CURVE SMOOTH",
"172 673 OFFCURVE",
"192 653 OFFCURVE",
"217 653 CURVE SMOOTH"
);
},
{
closed = 1;
nodes = (
"260 20 OFFCURVE",
"232 30 OFFCURVE",
"232 123 CURVE SMOOTH",
"232 500 LINE",
"83 500 LINE",
"83 468 LINE",
"197 468 LINE",
"197 117 LINE SMOOTH",
"197 14 OFFCURVE",
"230 -11 OFFCURVE",
"281 -11 CURVE SMOOTH",
"322 -11 OFFCURVE",
"359 -1 OFFCURVE",
"363 0 CURVE",
"363 32 LINE",
"359 31 OFFCURVE",
"321 20 OFFCURVE",
"288 20 CURVE SMOOTH"
);
}
);
width = 450;
},
{
anchors = (
{
name = bottom;
position = "{525, 0}";
}
);
layerId = "E338D14E-1DA5-418D-88BC-8956EEA80AB9";
paths = (
{
closed = 1;
nodes = (
"526 653 OFFCURVE",
"546 673 OFFCURVE",
"546 698 CURVE SMOOTH",
"546 723 OFFCURVE",
"526 743 OFFCURVE",
"501 743 CURVE SMOOTH",
"476 743 OFFCURVE",
"456 723 OFFCURVE",
"456 698 CURVE SMOOTH",
"456 673 OFFCURVE",
"476 653 OFFCURVE",
"501 653 CURVE SMOOTH"
);
},
{
closed = 1;
nodes = (
"575 20 OFFCURVE",
"519 30 OFFCURVE",
"519 123 CURVE SMOOTH",
"519 500 LINE",
"194 500 LINE",
"194 468 LINE",
"481 468 LINE",
"481 117 LINE SMOOTH",
"481 14 OFFCURVE",
"548 -11 OFFCURVE",
"656 -11 CURVE SMOOTH",
"751 -11 OFFCURVE",
"837 -1 OFFCURVE",
"847 0 CURVE",
"847 32 LINE",
"838 31 OFFCURVE",
"749 20 OFFCURVE",
"672 20 CURVE SMOOTH"
);
}
);
width = 1050;
}
);
},
{
glyphname = idotless;
lastChange = "2018-05-31 00:58:09 +0000";
layers = (
{
anchors = (
{
name = bottom;
position = "{300, 0}";
},
{
name = ogonek;
position = "{302, 0}";
},
{
name = top;
position = "{300, 500}";
}
);
layerId = "5521DC30-183F-421A-91F3-644B5E24AFE6";
paths = (
{
closed = 1;
nodes = (
"390 500 LINE",
"109 500 LINE",
"109 378 LINE",
"237 378 LINE",
"237 0 LINE",
"509 0 LINE",
"509 122 LINE",
"390 122 LINE"
);
}
);
width = 600;
},
{
anchors = (
{
name = bottom;
position = "{300, 0}";
},
{
name = ogonek;
position = "{302, 0}";
},
{
name = top;
position = "{286, 500}";
}
);
layerId = "BE68D89F-AB3F-4BDF-B332-ED50D7C47704";
paths = (
{
closed = 1;
nodes = (
"302 500 LINE",
"111 500 LINE",
"111 468 LINE",
"269 468 LINE",
"269 0 LINE",
"451 0 LINE",
"451 32 LINE",
"302 32 LINE"
);
}
);
width = 600;
},
{
anchors = (
{
name = bottom;
position = "{300, 0}";
},
{
name = ogonek;
position = "{238, 0}";
},
{
name = top;
position = "{222, 500}";
}
);
layerId = "2E286313-D5BF-4FB4-A4B7-BD9BC13B574E";
paths = (
{
closed = 1;
nodes = (
"239 500 LINE",
"67 500 LINE",
"67 468 LINE",
"204 468 LINE",
"204 0 LINE",
"363 0 LINE",
"363 32 LINE",
"239 32 LINE"
);
}
);
width = 450;
},
{
anchors = (
{
name = bottom;
position = "{300, 0}";
},
{
name = ogonek;
position = "{526, 0}";
},
{
name = top;
position = "{510, 500}";
}
);
layerId = "E338D14E-1DA5-418D-88BC-8956EEA80AB9";
paths = (
{
closed = 1;
nodes = (
"536 500 LINE",
"159 500 LINE",
"159 468 LINE",
"498 468 LINE",
"498 0 LINE",
"852 0 LINE",
"852 32 LINE",
"536 32 LINE"
);
}
);
width = 1050;
}
);
unicode = 0131;
},
{
glyphname = j;
lastChange = "2019-07-14 12:00:44 +0000";
layers = (
{
layerId = "5521DC30-183F-421A-91F3-644B5E24AFE6";
paths = (
{
closed = 1;
nodes = (
"440 587 OFFCURVE",
"489 636 OFFCURVE",
"489 698 CURVE SMOOTH",
"489 760 OFFCURVE",
"440 809 OFFCURVE",
"378 809 CURVE SMOOTH",
"316 809 OFFCURVE",
"267 760 OFFCURVE",
"267 698 CURVE SMOOTH",
"267 636 OFFCURVE",
"316 587 OFFCURVE",
"378 587 CURVE SMOOTH"
);
},
{
closed = 1;
nodes = (
"159 500 LINE",
"159 388 LINE",
"307 388 LINE",
"307 18 LINE SMOOTH",
"307 -38 OFFCURVE",
"280 -74 OFFCURVE",
"232 -74 CURVE SMOOTH",
"194 -74 OFFCURVE",
"165 -61 OFFCURVE",
"152 -51 CURVE",
"72 -165 LINE",
"90 -174 OFFCURVE",
"147 -192 OFFCURVE",
"219 -192 CURVE SMOOTH",
"375 -192 OFFCURVE",
"460 -130 OFFCURVE",
"460 -12 CURVE SMOOTH",
"460 500 LINE"
);
}
);
width = 600;
},
{
layerId = "BE68D89F-AB3F-4BDF-B332-ED50D7C47704";
paths = (
{
closed = 1;
nodes = (
"404 653 OFFCURVE",
"424 673 OFFCURVE",
"424 698 CURVE SMOOTH",
"424 723 OFFCURVE",
"404 743 OFFCURVE",
"379 743 CURVE SMOOTH",
"354 743 OFFCURVE",
"334 724 OFFCURVE",
"334 698 CURVE SMOOTH",
"334 673 OFFCURVE",
"354 653 OFFCURVE",
"379 653 CURVE SMOOTH"
);
},
{
closed = 1;
nodes = (
"169 500 LINE",
"169 468 LINE",
"367 468 LINE",
"367 8 LINE SMOOTH",
"367 -78 OFFCURVE",
"330 -159 OFFCURVE",
"222 -159 CURVE SMOOTH",
"181 -159 OFFCURVE",
"160 -148 OFFCURVE",
"147 -138 CURVE",
"127 -166 LINE",
"147 -179 OFFCURVE",
"182 -192 OFFCURVE",
"229 -192 CURVE SMOOTH",
"315 -192 OFFCURVE",
"400 -130 OFFCURVE",
"400 -12 CURVE SMOOTH",
"400 500 LINE"
);
}
);
width = 600;
},
{
layerId = "2E286313-D5BF-4FB4-A4B7-BD9BC13B574E";
paths = (
{
closed = 1;
nodes = (
"311 653 OFFCURVE",
"331 673 OFFCURVE",
"331 698 CURVE SMOOTH",
"331 723 OFFCURVE",
"311 743 OFFCURVE",
"286 743 CURVE SMOOTH",
"261 743 OFFCURVE",
"241 723 OFFCURVE",
"241 698 CURVE SMOOTH",
"241 673 OFFCURVE",
"261 653 OFFCURVE",
"286 653 CURVE SMOOTH"
);
},
{
closed = 1;
nodes = (
"119 500 LINE",
"119 468 LINE",
"271 468 LINE",
"271 -2 LINE SMOOTH",
"271 -88 OFFCURVE",
"238 -159 OFFCURVE",
"167 -159 CURVE SMOOTH",
"129 -159 OFFCURVE",
"110 -148 OFFCURVE",
"101 -141 CURVE",
"79 -172 LINE",
"90 -179 OFFCURVE",
"115 -192 OFFCURVE",
"167 -192 CURVE SMOOTH",
"241 -192 OFFCURVE",
"306 -127 OFFCURVE",
"306 -12 CURVE SMOOTH",
"306 500 LINE"
);
}
);
width = 450;
},
{
layerId = "E338D14E-1DA5-418D-88BC-8956EEA80AB9";
paths = (
{
closed = 1;
nodes = (
"690 653 OFFCURVE",
"710 673 OFFCURVE",
"710 698 CURVE SMOOTH",
"710 723 OFFCURVE",
"690 743 OFFCURVE",
"665 743 CURVE SMOOTH",
"640 743 OFFCURVE",
"620 724 OFFCURVE",
"620 698 CURVE SMOOTH",
"620 673 OFFCURVE",
"640 653 OFFCURVE",
"665 653 CURVE SMOOTH"
);
},
{
closed = 1;
nodes = (
"318 500 LINE",
"318 468 LINE",
"654 468 LINE",
"654 28 LINE SMOOTH",
"654 -107 OFFCURVE",
"569 -159 OFFCURVE",
"421 -159 CURVE SMOOTH",
"344 -159 OFFCURVE",
"299 -143 OFFCURVE",
"281 -131 CURVE",
"258 -162 LINE",
"278 -173 OFFCURVE",
"334 -192 OFFCURVE",
"421 -192 CURVE SMOOTH",
"551 -192 OFFCURVE",
"688 -149 OFFCURVE",
"688 8 CURVE SMOOTH",
"688 500 LINE"
);
}
);
width = 1050;
}
);
leftKerningGroup = j;
rightKerningGroup = j;
unicode = 006A;
},
{
glyphname = k;
lastChange = "2019-07-14 12:01:47 +0000";
layers = (
{
anchors = (
{
name = bottom;
position = "{300, 0}";
},
{
name = top;
position = "{300, 500}";
}
);
layerId = "5521DC30-183F-421A-91F3-644B5E24AFE6";
paths = (
{
closed = 1;
nodes = (
"212 279 LINE",
"349 246 LINE",
"581 500 LINE",
"400 500 LINE"
);
},
{
closed = 1;
nodes = (
"598 0 LINE",
"349 279 LINE",
"185 279 LINE",
"417 0 LINE"
);
},
{
closed = 1;
nodes = (
"215 315 LINE",
"215 800 LINE",
"62 800 LINE",
"62 0 LINE",
"215 0 LINE",
"215 203 LINE",
"296 203 LINE",
"296 315 LINE"
);
}
);
width = 600;
},
{
anchors = (
{
name = bottom;
position = "{300, 0}";
},
{
name = top;
position = "{300, 500}";
}
);
layerId = "BE68D89F-AB3F-4BDF-B332-ED50D7C47704";
paths = (
{
closed = 1;
nodes = (
"243 268 LINE",
"270 250 LINE",
"504 500 LINE",
"461 500 LINE"
);
},
{
closed = 1;
nodes = (
"519 0 LINE",
"276 270 LINE",
"231 270 LINE",
"476 0 LINE"
);
},
{
closed = 1;
nodes = (
"185 275 LINE",
"185 800 LINE",
"152 800 LINE",
"152 0 LINE",
"185 0 LINE",
"185 243 LINE",
"266 243 LINE",
"266 275 LINE"
);
}
);
width = 600;
},
{
anchors = (
{
name = bottom;
position = "{225, 0}";
},
{
name = top;
position = "{225, 500}";
}
);
layerId = "2E286313-D5BF-4FB4-A4B7-BD9BC13B574E";
paths = (
{
closed = 1;
nodes = (
"182 268 LINE",
"207 246 LINE",
"382 500 LINE",
"344 500 LINE"
);
},
{
closed = 1;
nodes = (
"393 0 LINE",
"211 270 LINE",
"173 270 LINE",
"354 0 LINE"
);
},
{
closed = 1;
nodes = (
"149 275 LINE",
"149 800 LINE",
"114 800 LINE",
"114 0 LINE",
"149 0 LINE",
"149 243 LINE",
"200 243 LINE",
"200 275 LINE"
);
}
);
width = 450;
},
{
anchors = (
{
name = bottom;
position = "{525, 0}";
},
{
name = top;
position = "{525, 500}";
}
);
layerId = "E338D14E-1DA5-418D-88BC-8956EEA80AB9";
paths = (
{
closed = 1;
nodes = (
"462 268 LINE",
"493 246 LINE",
"882 500 LINE",
"824 500 LINE"
);
},
{
closed = 1;
nodes = (
"908 0 LINE",
"503 270 LINE",
"450 260 LINE",
"850 0 LINE"
);
},
{
closed = 1;
nodes = (
"310 275 LINE",
"310 800 LINE",
"276 800 LINE",
"276 0 LINE",
"310 0 LINE",
"310 243 LINE",
"496 243 LINE",
"496 275 LINE"
);
}
);
width = 1050;
}
);
leftKerningGroup = h;
rightKerningGroup = k;
unicode = 006B;
},
{
glyphname = l;
lastChange = "2019-07-14 11:00:59 +0000";
layers = (
{
anchors = (
{
name = bottom;
position = "{300, 0}";
},
{
name = center;
position = "{305, 378}";
},
{
name = top;
position = "{290, 800}";
},
{
name = topright;
position = "{580, 700}";
}
);
layerId = "5521DC30-183F-421A-91F3-644B5E24AFE6";
paths = (
{
closed = 1;
nodes = (
"366 800 LINE",
"75 800 LINE",
"75 688 LINE",
"213 688 LINE",
"213 0 LINE",
"515 0 LINE",
"515 112 LINE",
"366 112 LINE"
);
}
);
width = 600;
},
{
anchors = (
{
name = bottom;
position = "{300, 0}";
},
{
name = center;
position = "{255, 378}";
},
{
name = top;
position = "{255, 800}";
},
{
name = topright;
position = "{580, 700}";
}
);
layerId = "BE68D89F-AB3F-4BDF-B332-ED50D7C47704";
paths = (
{
closed = 1;
nodes = (
"273 800 LINE",
"88 800 LINE",
"88 768 LINE",
"240 768 LINE",
"240 0 LINE",
"457 0 LINE",
"457 32 LINE",
"273 32 LINE"
);
}
);
width = 600;
},
{
anchors = (
{
name = bottom;
position = "{225, 0}";
},
{
name = center;
position = "{192, 378}";
},
{
name = top;
position = "{191, 800}";
},
{
name = topright;
position = "{435, 700}";
}
);
layerId = "2E286313-D5BF-4FB4-A4B7-BD9BC13B574E";
paths = (
{
closed = 1;
nodes = (
"210 800 LINE",
"71 800 LINE",
"71 768 LINE",
"175 768 LINE",
"175 0 LINE",
"338 0 LINE",
"338 32 LINE",
"210 32 LINE"
);
}
);
width = 450;
},
{
anchors = (
{
name = bottom;
position = "{525, 0}";
},
{
name = center;
position = "{446, 378}";
},
{
name = top;
position = "{446, 800}";
},
{
name = topright;
position = "{1015, 700}";
}
);
layerId = "E338D14E-1DA5-418D-88BC-8956EEA80AB9";
paths = (
{
closed = 1;
nodes = (
"466 800 LINE",
"144 800 LINE",
"144 768 LINE",
"432 768 LINE",
"432 0 LINE",
"800 0 LINE",
"800 32 LINE",
"466 32 LINE"
);
}
);
width = 1050;
}
);
unicode = 006C;
},
{
glyphname = l.ss01;
lastChange = "2018-05-31 12:23:54 +0000";
layers = (
{
anchors = (
{
name = bottom;
position = "{356, -1}";
},
{
name = center;
position = "{300, 391}";
},
{
name = top;
position = "{300, 800}";
},
{
name = topright;
position = "{580, 500}";
}
);
layerId = "5521DC30-183F-421A-91F3-644B5E24AFE6";
paths = (
{
closed = 1;
nodes = (
"404 106 OFFCURVE",
"383 117 OFFCURVE",
"383 172 CURVE SMOOTH",
"383 800 LINE",
"88 800 LINE",
"88 678 LINE",
"230 678 LINE",
"230 122 LINE SMOOTH",
"230 9 OFFCURVE",
"314 -11 OFFCURVE",
"406 -11 CURVE SMOOTH",
"480 -11 OFFCURVE",
"540 0 OFFCURVE",
"542 0 CURVE",
"542 123 LINE",
"537 121 OFFCURVE",
"477 106 OFFCURVE",
"431 106 CURVE SMOOTH"
);
}
);
width = 600;
},
{
anchors = (
{
name = bottom;
position = "{356, -1}";
},
{
name = center;
position = "{278, 391}";
},
{
name = top;
position = "{278, 800}";
},
{
name = topright;
position = "{580, 500}";
}
);
layerId = "BE68D89F-AB3F-4BDF-B332-ED50D7C47704";
paths = (
{
closed = 1;
nodes = (
"341 20 OFFCURVE",
"293 30 OFFCURVE",
"293 123 CURVE SMOOTH",
"293 800 LINE",
"98 800 LINE",
"98 768 LINE",
"260 768 LINE",
"260 117 LINE SMOOTH",
"260 14 OFFCURVE",
"314 -11 OFFCURVE",
"376 -11 CURVE SMOOTH",
"430 -11 OFFCURVE",
"479 -1 OFFCURVE",
"485 0 CURVE",
"485 32 LINE",
"480 31 OFFCURVE",
"429 20 OFFCURVE",
"385 20 CURVE SMOOTH"
);
}
);
width = 600;
},
{
anchors = (
{
name = bottom;
position = "{267, -1}";
},
{
name = center;
position = "{209, 391}";
},
{
name = top;
position = "{209, 800}";
},
{
name = topright;
position = "{391, 500}";
}
);
layerId = "2E286313-D5BF-4FB4-A4B7-BD9BC13B574E";
paths = (
{
closed = 1;
nodes = (
"256 20 OFFCURVE",
"230 37 OFFCURVE",
"230 123 CURVE SMOOTH",
"230 800 LINE",
"74 800 LINE",
"74 768 LINE",
"195 768 LINE",
"195 117 LINE SMOOTH",
"195 14 OFFCURVE",
"236 -11 OFFCURVE",
"282 -11 CURVE SMOOTH",
"323 -11 OFFCURVE",
"359 -1 OFFCURVE",
"364 0 CURVE",
"364 32 LINE",
"360 31 OFFCURVE",
"322 20 OFFCURVE",
"289 20 CURVE SMOOTH"
);
}
);
width = 450;
},
{
anchors = (
{
name = bottom;
position = "{623, -1}";
},
{
name = center;
position = "{487, 391}";
},
{
name = top;
position = "{487, 800}";
},
{
name = topright;
position = "{1015, 500}";
}
);
layerId = "E338D14E-1DA5-418D-88BC-8956EEA80AB9";
paths = (
{
closed = 1;
nodes = (
"597 20 OFFCURVE",
"501 30 OFFCURVE",
"501 123 CURVE SMOOTH",
"501 800 LINE",
"172 800 LINE",
"172 768 LINE",
"467 768 LINE",
"467 117 LINE SMOOTH",
"467 14 OFFCURVE",
"570 -11 OFFCURVE",
"678 -11 CURVE SMOOTH",
"773 -11 OFFCURVE",
"838 -1 OFFCURVE",
"849 0 CURVE",
"849 32 LINE",
"840 31 OFFCURVE",
"751 20 OFFCURVE",
"674 20 CURVE SMOOTH"
);
}
);
width = 1050;
}
);
leftKerningGroup = h;
rightKerningGroup = l;
},
{
glyphname = lslash;
lastChange = "2018-05-21 14:36:07 +0000";
layers = (
{
components = (
{
name = l;
}
);
layerId = "5521DC30-183F-421A-91F3-644B5E24AFE6";
paths = (
{
closed = 1;
nodes = (
"137 133 LINE",
"449 445 LINE",
"449 576 LINE",
"137 263 LINE"
);
}
);
width = 600;
},
{
components = (
{
name = l;
}
);
layerId = "BE68D89F-AB3F-4BDF-B332-ED50D7C47704";
paths = (
{
closed = 1;
nodes = (
"157 203 LINE",
"365 411 LINE",
"365 452 LINE",
"157 243 LINE"
);
}
);
width = 600;
},
{
components = (
{
name = l;
}
);
layerId = "2E286313-D5BF-4FB4-A4B7-BD9BC13B574E";
paths = (
{
closed = 1;
nodes = (
"87 203 LINE",
"295 411 LINE",
"295 452 LINE",
"87 243 LINE"
);
}
);
width = 450;
},
{
components = (
{
name = l;
}
);
layerId = "E338D14E-1DA5-418D-88BC-8956EEA80AB9";
paths = (
{
closed = 1;
nodes = (
"256 203 LINE",
"636 411 LINE",
"636 452 LINE",
"256 243 LINE"
);
}
);
width = 1050;
}
);
unicode = 0142;
},
{
glyphname = m;
lastChange = "2019-07-14 12:05:47 +0000";
layers = (
{
anchors = (
{
name = bottom;
position = "{300, 0}";
},
{
name = top;
position = "{300, 500}";
}
);
layerId = "5521DC30-183F-421A-91F3-644B5E24AFE6";
paths = (
{
closed = 1;
nodes = (
"581 0 LINE",
"581 302 LINE SMOOTH",
"581 475 OFFCURVE",
"522 511 OFFCURVE",
"456 511 CURVE SMOOTH",
"363 511 OFFCURVE",
"306 414 OFFCURVE",
"306 312 CURVE",
"352 330 LINE",
"354 364 OFFCURVE",
"372 393 OFFCURVE",
"404 393 CURVE SMOOTH",
"437 393 OFFCURVE",
"441 373 OFFCURVE",
"441 309 CURVE SMOOTH",
"441 0 LINE"
);
},
{
closed = 1;
nodes = (
"157 0 LINE",
"157 402 LINE",
"112 500 LINE",
"19 500 LINE",
"19 0 LINE"
);
},
{
closed = 1;
nodes = (
"355 0 LINE",
"355 309 LINE SMOOTH",
"355 309 OFFCURVE",
"355 382 OFFCURVE",
"355 382 CURVE SMOOTH",
"355 465 OFFCURVE",
"307 511 OFFCURVE",
"247 511 CURVE SMOOTH",
"159 511 OFFCURVE",
"99 414 OFFCURVE",
"99 312 CURVE",
"154 330 LINE",
"157 364 OFFCURVE",
"172 393 OFFCURVE",
"204 393 CURVE SMOOTH",
"237 393 OFFCURVE",
"241 373 OFFCURVE",
"241 309 CURVE SMOOTH",
"241 0 LINE"
);
}
);
width = 600;
},
{
anchors = (
{
name = bottom;
position = "{300, 0}";
},
{
name = top;
position = "{300, 500}";
}
);
layerId = "BE68D89F-AB3F-4BDF-B332-ED50D7C47704";
paths = (
{
closed = 1;
nodes = (
"542 0 LINE",
"542 342 LINE SMOOTH",
"542 469 OFFCURVE",
"501 511 OFFCURVE",
"433 511 CURVE SMOOTH",
"349 511 OFFCURVE",
"291 434 OFFCURVE",
"291 322 CURVE",
"318 352 LINE",
"325 401 OFFCURVE",
"367 478 OFFCURVE",
"428 478 CURVE SMOOTH",
"483 478 OFFCURVE",
"509 451 OFFCURVE",
"509 332 CURVE SMOOTH",
"509 0 LINE"
);
},
{
closed = 1;
nodes = (
"97 0 LINE",
"97 402 LINE",
"97 500 LINE",
"64 500 LINE",
"64 0 LINE"
);
},
{
closed = 1;
nodes = (
"320 0 LINE",
"320 352 LINE",
"320 364 OFFCURVE",
"320 369 OFFCURVE",
"320 381 CURVE SMOOTH",
"320 469 OFFCURVE",
"278 511 OFFCURVE",
"212 511 CURVE SMOOTH",
"128 511 OFFCURVE",
"73 435 OFFCURVE",
"73 323 CURVE",
"95 352 LINE",
"102 399 OFFCURVE",
"147 478 OFFCURVE",
"208 478 CURVE SMOOTH",
"263 478 OFFCURVE",
"287 451 OFFCURVE",
"287 322 CURVE SMOOTH",
"287 0 LINE"
);
}
);
width = 600;
},
{
anchors = (
{
name = bottom;
position = "{225, 0}";
},
{
name = top;
position = "{225, 500}";
}
);
layerId = "2E286313-D5BF-4FB4-A4B7-BD9BC13B574E";
paths = (
{
closed = 1;
nodes = (
"423 0 LINE",
"423 382 LINE SMOOTH",
"423 445 OFFCURVE",
"399 511 OFFCURVE",
"335 511 CURVE SMOOTH",
"261 511 OFFCURVE",
"216 445 OFFCURVE",
"216 333 CURVE",
"239 355 LINE",
"241 405 OFFCURVE",
"277 478 OFFCURVE",
"326 478 CURVE SMOOTH",
"362 478 OFFCURVE",
"388 461 OFFCURVE",
"388 342 CURVE SMOOTH",
"388 0 LINE"
);
},
{
closed = 1;
nodes = (
"63 0 LINE",
"63 412 LINE",
"63 500 LINE",
"28 500 LINE",
"28 0 LINE"
);
},
{
closed = 1;
nodes = (
"241 0 LINE",
"241 352 LINE",
"241 364 OFFCURVE",
"241 375 OFFCURVE",
"241 387 CURVE",
"241 475 OFFCURVE",
"204 511 OFFCURVE",
"153 511 CURVE SMOOTH",
"91 511 OFFCURVE",
"40 454 OFFCURVE",
"40 342 CURVE",
"61 362 LINE",
"62 401 OFFCURVE",
"99 478 OFFCURVE",
"148 478 CURVE SMOOTH",
"187 478 OFFCURVE",
"207 451 OFFCURVE",
"207 342 CURVE SMOOTH",
"207 0 LINE"
);
}
);
width = 450;
},
{
anchors = (
{
name = bottom;
position = "{525, 0}";
},
{
name = top;
position = "{525, 500}";
}
);
layerId = "E338D14E-1DA5-418D-88BC-8956EEA80AB9";
paths = (
{
closed = 1;
nodes = (
"936 0 LINE",
"936 302 LINE SMOOTH",
"936 445 OFFCURVE",
"867 511 OFFCURVE",
"741 511 CURVE SMOOTH",
"598 511 OFFCURVE",
"516 421 OFFCURVE",
"516 329 CURVE",
"539 346 LINE",
"551 385 OFFCURVE",
"610 478 OFFCURVE",
"734 478 CURVE SMOOTH",
"835 478 OFFCURVE",
"902 431 OFFCURVE",
"902 302 CURVE SMOOTH",
"902 0 LINE"
);
},
{
closed = 1;
nodes = (
"159 0 LINE",
"159 392 LINE",
"159 500 LINE",
"125 500 LINE",
"125 0 LINE"
);
},
{
closed = 1;
nodes = (
"541 0 LINE",
"541 332 LINE",
"541 344 OFFCURVE",
"541 339 OFFCURVE",
"541 351 CURVE SMOOTH",
"541 439 OFFCURVE",
"468 511 OFFCURVE",
"356 511 CURVE SMOOTH",
"221 511 OFFCURVE",
"134 424 OFFCURVE",
"134 332 CURVE",
"157 342 LINE",
"169 379 OFFCURVE",
"226 478 OFFCURVE",
"349 478 CURVE SMOOTH",
"450 478 OFFCURVE",
"507 431 OFFCURVE",
"507 302 CURVE SMOOTH",
"507 0 LINE"
);
}
);
width = 1050;
}
);
leftKerningGroup = n;
rightKerningGroup = n;
unicode = 006D;
},
{
glyphname = n;
lastChange = "2019-07-14 12:08:27 +0000";
layers = (
{
anchors = (
{
name = bottom;
position = "{310, 0}";
},
{
name = top;
position = "{310, 500}";
}
);
layerId = "5521DC30-183F-421A-91F3-644B5E24AFE6";
paths = (
{
closed = 1;
nodes = (
"226 0 LINE",
"226 402 LINE",
"226 402 OFFCURVE",
"176 500 OFFCURVE",
"176 500 CURVE",
"73 500 LINE",
"73 431 OFFCURVE",
"73 435 OFFCURVE",
"73 0 CURVE"
);
},
{
closed = 1;
nodes = (
"549 0 LINE",
"549 292 LINE SMOOTH",
"549 455 OFFCURVE",
"468 511 OFFCURVE",
"352 511 CURVE SMOOTH",
"235 511 OFFCURVE",
"160 434 OFFCURVE",
"160 322 CURVE",
"215 312 LINE",
"220 346 OFFCURVE",
"267 393 OFFCURVE",
"329 393 CURVE SMOOTH",
"391 393 OFFCURVE",
"396 359 OFFCURVE",
"396 262 CURVE SMOOTH",
"396 0 LINE"
);
}
);
width = 600;
},
{
anchors = (
{
name = bottom;
position = "{310, 0}";
},
{
name = top;
position = "{318, 500}";
}
);
layerId = "BE68D89F-AB3F-4BDF-B332-ED50D7C47704";
paths = (
{
closed = 1;
nodes = (
"157 0 LINE",
"157 402 LINE",
"157 402 OFFCURVE",
"157 500 OFFCURVE",
"157 500 CURVE",
"124 500 LINE",
"124 431 OFFCURVE",
"124 435 OFFCURVE",
"124 0 CURVE"
);
},
{
closed = 1;
nodes = (
"491 0 LINE",
"491 282 LINE SMOOTH",
"491 435 OFFCURVE",
"443 512 OFFCURVE",
"332 512 CURVE SMOOTH",
"203 512 OFFCURVE",
"126 413 OFFCURVE",
"125 312 CURVE",
"153 312 LINE",
"157 408 OFFCURVE",
"238 479 OFFCURVE",
"328 479 CURVE SMOOTH",
"426 479 OFFCURVE",
"458 409 OFFCURVE",
"458 272 CURVE SMOOTH",
"458 0 LINE"
);
}
);
width = 600;
},
{
anchors = (
{
name = bottom;
position = "{233, 0}";
},
{
name = top;
position = "{242, 500}";
}
);
layerId = "2E286313-D5BF-4FB4-A4B7-BD9BC13B574E";
paths = (
{
closed = 1;
nodes = (
"133 0 LINE",
"133 402 LINE",
"133 402 OFFCURVE",
"133 500 OFFCURVE",
"133 500 CURVE",
"99 500 LINE",
"99 431 OFFCURVE",
"99 435 OFFCURVE",
"99 0 CURVE"
);
},
{
closed = 1;
nodes = (
"376 0 LINE",
"376 292 LINE SMOOTH",
"376 455 OFFCURVE",
"339 512 OFFCURVE",
"256 512 CURVE SMOOTH",
"158 512 OFFCURVE",
"103 413 OFFCURVE",
"102 312 CURVE",
"132 312 LINE",
"135 408 OFFCURVE",
"185 479 OFFCURVE",
"253 479 CURVE SMOOTH",
"326 479 OFFCURVE",
"341 419 OFFCURVE",
"341 282 CURVE SMOOTH",
"341 0 LINE"
);
}
);
width = 450;
},
{
anchors = (
{
name = bottom;
position = "{543, 0}";
},
{
name = top;
position = "{543, 500}";
}
);
layerId = "E338D14E-1DA5-418D-88BC-8956EEA80AB9";
paths = (
{
closed = 1;
nodes = (
"266 0 LINE",
"266 402 LINE",
"266 402 OFFCURVE",
"266 500 OFFCURVE",
"266 500 CURVE",
"232 500 LINE",
"232 431 OFFCURVE",
"232 435 OFFCURVE",
"232 0 CURVE"
);
},
{
closed = 1;
nodes = (
"855 0 LINE",
"855 252 LINE SMOOTH",
"855 445 OFFCURVE",
"764 512 OFFCURVE",
"588 512 CURVE SMOOTH",
"360 512 OFFCURVE",
"235 403 OFFCURVE",
"233 262 CURVE",
"265 262 LINE",
"272 398 OFFCURVE",
"423 479 OFFCURVE",
"581 479 CURVE SMOOTH",
"742 479 OFFCURVE",
"817 422 OFFCURVE",
"817 242 CURVE SMOOTH",
"817 0 LINE"
);
}
);
width = 1050;
}
);
leftKerningGroup = n;
rightKerningGroup = n;
unicode = 006E;
},
{
glyphname = eng;
lastChange = "2018-05-21 14:40:33 +0000";
layers = (
{
components = (
{
name = n;
}
);
layerId = "5521DC30-183F-421A-91F3-644B5E24AFE6";
paths = (
{
closed = 1;
nodes = (
"235 -183 LINE",
"259 -189 OFFCURVE",
"287 -192 OFFCURVE",
"319 -192 CURVE",
"435 -192 OFFCURVE",
"544 -130 OFFCURVE",
"544 -12 CURVE",
"544 22 LINE",
"391 0 LINE",
"391 -18 OFFCURVE",
"380 -61 OFFCURVE",
"312 -61 CURVE",
"291 -61 OFFCURVE",
"275 -60 OFFCURVE",
"267 -56 CURVE"
);
}
);
width = 600;
},
{
components = (
{
name = n;
}
);
layerId = "BE68D89F-AB3F-4BDF-B332-ED50D7C47704";
paths = (
{
closed = 1;
nodes = (
"245 -183 LINE",
"259 -187 OFFCURVE",
"285 -192 OFFCURVE",
"327 -192 CURVE",
"403 -192 OFFCURVE",
"490 -130 OFFCURVE",
"490 -2 CURVE",
"490 2 LINE",
"457 0 LINE",
"457 -86 OFFCURVE",
"412 -159 OFFCURVE",
"324 -159 CURVE",
"293 -159 OFFCURVE",
"260 -153 OFFCURVE",
"254 -150 CURVE"
);
}
);
width = 600;
},
{
components = (
{
name = n;
}
);
layerId = "2E286313-D5BF-4FB4-A4B7-BD9BC13B574E";
paths = (
{
closed = 1;
nodes = (
"118 -183 LINE",
"132 -187 OFFCURVE",
"158 -192 OFFCURVE",
"200 -192 CURVE",
"276 -192 OFFCURVE",
"363 -130 OFFCURVE",
"363 -2 CURVE",
"363 2 LINE",
"329 0 LINE",
"329 -86 OFFCURVE",
"285 -159 OFFCURVE",
"197 -159 CURVE",
"166 -159 OFFCURVE",
"133 -153 OFFCURVE",
"127 -150 CURVE"
);
}
);
width = 450;
},
{
components = (
{
name = n;
}
);
layerId = "E338D14E-1DA5-418D-88BC-8956EEA80AB9";
paths = (
{
closed = 1;
nodes = (
"601 -183 LINE",
"615 -187 OFFCURVE",
"641 -192 OFFCURVE",
"683 -192 CURVE",
"759 -192 OFFCURVE",
"847 -130 OFFCURVE",
"847 -2 CURVE",
"847 2 LINE",
"813 0 LINE",
"813 -86 OFFCURVE",
"768 -159 OFFCURVE",
"680 -159 CURVE",
"649 -159 OFFCURVE",
"616 -153 OFFCURVE",
"610 -150 CURVE"
);
}
);
width = 1050;
}
);
unicode = 014B;
},
{
glyphname = o;
lastChange = "2019-07-14 12:10:00 +0000";
layers = (
{
anchors = (
{
name = bottom;
position = "{297, 0}";
},
{
name = center;
position = "{297, 250}";
},
{
name = ogonek;
position = "{300, 0}";
},
{
name = top;
position = "{297, 500}";
},
{
name = topright;
position = "{577, 500}";
}
);
layerId = "5521DC30-183F-421A-91F3-644B5E24AFE6";
paths = (
{
closed = 1;
nodes = (
"426 -11 OFFCURVE",
"554 58 OFFCURVE",
"554 251 CURVE SMOOTH",
"554 443 OFFCURVE",
"426 512 OFFCURVE",
"300 512 CURVE SMOOTH",
"173 512 OFFCURVE",
"45 443 OFFCURVE",
"45 251 CURVE SMOOTH",
"45 58 OFFCURVE",
"173 -11 OFFCURVE",
"300 -11 CURVE SMOOTH"
);
},
{
closed = 1;
nodes = (
"247 107 OFFCURVE",
"203 137 OFFCURVE",
"203 251 CURVE SMOOTH",
"203 364 OFFCURVE",
"247 394 OFFCURVE",
"300 394 CURVE SMOOTH",
"352 394 OFFCURVE",
"396 364 OFFCURVE",
"396 251 CURVE SMOOTH",
"396 137 OFFCURVE",
"352 107 OFFCURVE",
"300 107 CURVE SMOOTH"
);
}
);
width = 600;
},
{
anchors = (
{
name = bottom;
position = "{297, 0}";
},
{
name = center;
position = "{297, 250}";
},
{
name = ogonek;
position = "{300, 0}";
},
{
name = top;
position = "{297, 500}";
},
{
name = topright;
position = "{577, 500}";
}
);
layerId = "BE68D89F-AB3F-4BDF-B332-ED50D7C47704";
paths = (
{
closed = 1;
nodes = (
"406 -11 OFFCURVE",
"504 68 OFFCURVE",
"504 251 CURVE SMOOTH",
"504 433 OFFCURVE",
"406 512 OFFCURVE",
"300 512 CURVE SMOOTH",
"193 512 OFFCURVE",
"95 433 OFFCURVE",
"95 251 CURVE SMOOTH",
"95 68 OFFCURVE",
"193 -11 OFFCURVE",
"300 -11 CURVE SMOOTH"
);
},
{
closed = 1;
nodes = (
"217 22 OFFCURVE",
"131 82 OFFCURVE",
"131 251 CURVE SMOOTH",
"131 417 OFFCURVE",
"217 479 OFFCURVE",
"300 479 CURVE SMOOTH",
"382 479 OFFCURVE",
"468 417 OFFCURVE",
"468 251 CURVE SMOOTH",
"468 82 OFFCURVE",
"382 22 OFFCURVE",
"300 22 CURVE SMOOTH"
);
}
);
width = 600;
},
{
anchors = (
{
name = bottom;
position = "{223, 0}";
},
{
name = center;
position = "{223, 250}";
},
{
name = ogonek;
position = "{225, 0}";
},
{
name = top;
position = "{223, 500}";
},
{
name = topright;
position = "{433, 500}";
}
);
layerId = "2E286313-D5BF-4FB4-A4B7-BD9BC13B574E";
paths = (
{
closed = 1;
nodes = (
"305 -11 OFFCURVE",
"361 58 OFFCURVE",
"361 251 CURVE SMOOTH",
"361 443 OFFCURVE",
"305 512 OFFCURVE",
"225 512 CURVE SMOOTH",
"145 512 OFFCURVE",
"89 443 OFFCURVE",
"89 251 CURVE SMOOTH",
"89 58 OFFCURVE",
"145 -11 OFFCURVE",
"225 -11 CURVE SMOOTH"
);
},
{
closed = 1;
nodes = (
"163 22 OFFCURVE",
"124 72 OFFCURVE",
"124 251 CURVE SMOOTH",
"124 427 OFFCURVE",
"163 479 OFFCURVE",
"225 479 CURVE SMOOTH",
"287 479 OFFCURVE",
"326 427 OFFCURVE",
"326 251 CURVE SMOOTH",
"326 72 OFFCURVE",
"287 22 OFFCURVE",
"225 22 CURVE SMOOTH"
);
}
);
width = 450;
},
{
anchors = (
{
name = bottom;
position = "{521, 0}";
},
{
name = center;
position = "{521, 250}";
},
{
name = ogonek;
position = "{526, 0}";
},
{
name = top;
position = "{521, 500}";
},
{
name = topright;
position = "{1011, 500}";
}
);
layerId = "E338D14E-1DA5-418D-88BC-8956EEA80AB9";
paths = (
{
closed = 1;
nodes = (
"736 -11 OFFCURVE",
"856 85 OFFCURVE",
"856 251 CURVE SMOOTH",
"856 417 OFFCURVE",
"736 512 OFFCURVE",
"526 512 CURVE SMOOTH",
"317 512 OFFCURVE",
"195 418 OFFCURVE",
"195 251 CURVE SMOOTH",
"195 85 OFFCURVE",
"316 -11 OFFCURVE",
"526 -11 CURVE SMOOTH"
);
},
{
closed = 1;
nodes = (
"341 22 OFFCURVE",
"234 105 OFFCURVE",
"234 251 CURVE SMOOTH",
"234 397 OFFCURVE",
"342 479 OFFCURVE",
"526 479 CURVE SMOOTH",
"711 479 OFFCURVE",
"817 397 OFFCURVE",
"817 251 CURVE SMOOTH",
"817 106 OFFCURVE",
"712 22 OFFCURVE",
"526 22 CURVE SMOOTH"
);
}
);
width = 1050;
}
);
leftKerningGroup = o;
rightKerningGroup = o;
unicode = 006F;
},
{
glyphname = oe;
lastChange = "2018-05-31 12:26:29 +0000";
layers = (
{
anchors = (
{
name = bottom;
position = "{300, 0}";
},
{
name = top;
position = "{300, 500}";
}
);
layerId = "5521DC30-183F-421A-91F3-644B5E24AFE6";
paths = (
{
closed = 1;
nodes = (
"298 -11 OFFCURVE",
"346 108 OFFCURVE",
"346 251 CURVE SMOOTH",
"346 393 OFFCURVE",
"298 512 OFFCURVE",
"182 512 CURVE SMOOTH",
"85 512 OFFCURVE",
"7 443 OFFCURVE",
"7 251 CURVE SMOOTH",
"7 58 OFFCURVE",
"85 -11 OFFCURVE",
"182 -11 CURVE SMOOTH"
);
},
{
closed = 1;
nodes = (
"159 112 OFFCURVE",
"135 117 OFFCURVE",
"135 251 CURVE SMOOTH",
"135 384 OFFCURVE",
"159 389 OFFCURVE",
"182 389 CURVE SMOOTH",
"204 389 OFFCURVE",
"228 384 OFFCURVE",
"228 251 CURVE SMOOTH",
"228 117 OFFCURVE",
"204 112 OFFCURVE",
"182 112 CURVE SMOOTH"
);
},
{
closed = 1;
nodes = (
"484 141 OFFCURVE",
"474 112 OFFCURVE",
"438 112 CURVE SMOOTH",
"404 112 OFFCURVE",
"375 132 OFFCURVE",
"375 251 CURVE SMOOTH",
"375 364 OFFCURVE",
"398 389 OFFCURVE",
"431 389 CURVE SMOOTH",
"461 389 OFFCURVE",
"470 338 OFFCURVE",
"470 299 CURVE",
"334 299 LINE",
"334 204 LINE",
"594 204 LINE",
"604 374 OFFCURVE",
"554 512 OFFCURVE",
"433 512 CURVE SMOOTH",
"326 512 OFFCURVE",
"248 444 OFFCURVE",
"248 247 CURVE SMOOTH",
"248 54 OFFCURVE",
"322 -11 OFFCURVE",
"436 -11 CURVE SMOOTH",
"500 -11 OFFCURVE",
"568 31 OFFCURVE",
"598 112 CURVE",
"491 161 LINE"
);
}
);
width = 600;
},
{
anchors = (
{
name = bottom;
position = "{300, 0}";
},
{
name = top;
position = "{300, 500}";
}
);
layerId = "BE68D89F-AB3F-4BDF-B332-ED50D7C47704";
paths = (
{
closed = 1;
nodes = (
"260 -11 OFFCURVE",
"318 58 OFFCURVE",
"318 251 CURVE SMOOTH",
"318 443 OFFCURVE",
"260 512 OFFCURVE",
"184 512 CURVE SMOOTH",
"107 512 OFFCURVE",
"49 443 OFFCURVE",
"49 251 CURVE SMOOTH",
"49 58 OFFCURVE",
"107 -11 OFFCURVE",
"184 -11 CURVE SMOOTH"
);
},
{
closed = 1;
nodes = (
"131 22 OFFCURVE",
"84 72 OFFCURVE",
"84 251 CURVE SMOOTH",
"84 427 OFFCURVE",
"131 479 OFFCURVE",
"184 479 CURVE SMOOTH",
"236 479 OFFCURVE",
"280 427 OFFCURVE",
"280 251 CURVE SMOOTH",
"280 72 OFFCURVE",
"236 22 OFFCURVE",
"184 22 CURVE SMOOTH"
);
},
{
closed = 1;
nodes = (
"535 77 OFFCURVE",
"510 22 OFFCURVE",
"431 22 CURVE SMOOTH",
"339 22 OFFCURVE",
"318 122 OFFCURVE",
"318 251 CURVE SMOOTH",
"318 384 OFFCURVE",
"353 479 OFFCURVE",
"436 479 CURVE SMOOTH",
"530 479 OFFCURVE",
"533 370 OFFCURVE",
"533 281 CURVE",
"309 281 LINE",
"309 249 LINE",
"567 249 LINE",
"577 419 OFFCURVE",
"547 512 OFFCURVE",
"436 512 CURVE SMOOTH",
"349 512 OFFCURVE",
"283 444 OFFCURVE",
"283 257 CURVE SMOOTH",
"283 74 OFFCURVE",
"329 -11 OFFCURVE",
"429 -11 CURVE SMOOTH",
"490 -11 OFFCURVE",
"546 19 OFFCURVE",
"577 93 CURVE",
"546 107 LINE"
);
}
);
width = 600;
},
{
anchors = (
{
name = bottom;
position = "{225, 0}";
},
{
name = top;
position = "{225, 500}";
}
);
layerId = "2E286313-D5BF-4FB4-A4B7-BD9BC13B574E";
paths = (
{
closed = 1;
nodes = (
"195 -11 OFFCURVE",
"244 58 OFFCURVE",
"244 251 CURVE SMOOTH",
"244 443 OFFCURVE",
"195 512 OFFCURVE",
"138 512 CURVE SMOOTH",
"80 512 OFFCURVE",
"27 443 OFFCURVE",
"27 251 CURVE SMOOTH",
"27 58 OFFCURVE",
"80 -11 OFFCURVE",
"138 -11 CURVE SMOOTH"
);
},
{
closed = 1;
nodes = (
"98 22 OFFCURVE",
"63 72 OFFCURVE",
"63 251 CURVE SMOOTH",
"63 427 OFFCURVE",
"98 479 OFFCURVE",
"138 479 CURVE SMOOTH",
"177 479 OFFCURVE",
"205 427 OFFCURVE",
"205 251 CURVE SMOOTH",
"205 72 OFFCURVE",
"177 22 OFFCURVE",
"138 22 CURVE SMOOTH"
);
},
{
closed = 1;
nodes = (
"401 77 OFFCURVE",
"383 22 OFFCURVE",
"323 22 CURVE SMOOTH",
"254 22 OFFCURVE",
"244 122 OFFCURVE",
"244 251 CURVE SMOOTH",
"244 384 OFFCURVE",
"265 479 OFFCURVE",
"327 479 CURVE SMOOTH",
"398 479 OFFCURVE",
"400 370 OFFCURVE",
"400 281 CURVE",
"238 281 LINE",
"238 249 LINE",
"435 249 LINE",
"443 419 OFFCURVE",
"410 512 OFFCURVE",
"327 512 CURVE SMOOTH",
"262 512 OFFCURVE",
"207 444 OFFCURVE",
"207 257 CURVE SMOOTH",
"207 74 OFFCURVE",
"247 -11 OFFCURVE",
"322 -11 CURVE SMOOTH",
"368 -11 OFFCURVE",
"420 19 OFFCURVE",
"443 93 CURVE",
"410 107 LINE"
);
}
);
width = 450;
},
{
anchors = (
{
name = bottom;
position = "{525, 0}";
},
{
name = top;
position = "{525, 500}";
}
);
layerId = "E338D14E-1DA5-418D-88BC-8956EEA80AB9";
paths = (
{
closed = 1;
nodes = (
"445 -11 OFFCURVE",
"553 58 OFFCURVE",
"553 251 CURVE SMOOTH",
"553 443 OFFCURVE",
"445 512 OFFCURVE",
"322 512 CURVE SMOOTH",
"197 512 OFFCURVE",
"88 443 OFFCURVE",
"88 251 CURVE SMOOTH",
"88 58 OFFCURVE",
"197 -11 OFFCURVE",
"322 -11 CURVE SMOOTH"
);
},
{
closed = 1;
nodes = (
"229 22 OFFCURVE",
"125 72 OFFCURVE",
"125 251 CURVE SMOOTH",
"125 427 OFFCURVE",
"229 479 OFFCURVE",
"322 479 CURVE SMOOTH",
"413 479 OFFCURVE",
"513 427 OFFCURVE",
"513 251 CURVE SMOOTH",
"513 72 OFFCURVE",
"413 22 OFFCURVE",
"322 22 CURVE SMOOTH"
);
},
{
closed = 1;
nodes = (
"951 87 OFFCURVE",
"896 22 OFFCURVE",
"764 22 CURVE SMOOTH",
"623 22 OFFCURVE",
"553 122 OFFCURVE",
"553 251 CURVE SMOOTH",
"553 384 OFFCURVE",
"630 479 OFFCURVE",
"765 479 CURVE SMOOTH",
"910 479 OFFCURVE",
"963 370 OFFCURVE",
"963 281 CURVE",
"546 281 LINE",
"546 249 LINE",
"997 249 LINE",
"1003 418 OFFCURVE",
"909 512 OFFCURVE",
"765 512 CURVE SMOOTH",
"633 512 OFFCURVE",
"518 444 OFFCURVE",
"518 257 CURVE SMOOTH",
"518 58 OFFCURVE",
"641 -11 OFFCURVE",
"761 -11 CURVE SMOOTH",
"878 -11 OFFCURVE",
"957 35 OFFCURVE",
"993 84 CURVE",
"963 106 LINE"
);
}
);
width = 1050;
}
);
unicode = 0153;
},
{
glyphname = p;
lastChange = "2019-07-14 12:12:54 +0000";
layers = (
{
anchors = (
{
name = bottom;
position = "{322, 0}";
},
{
name = top;
position = "{322, 500}";
}
);
layerId = "5521DC30-183F-421A-91F3-644B5E24AFE6";
paths = (
{
closed = 1;
nodes = (
"63 -200 LINE",
"216 -200 LINE",
"216 429 LINE",
"166 500 LINE",
"63 500 LINE"
);
},
{
closed = 1;
nodes = (
"224 512 OFFCURVE",
"151 394 OFFCURVE",
"151 290 CURVE",
"211 300 LINE",
"214 343 OFFCURVE",
"242 394 OFFCURVE",
"304 394 CURVE SMOOTH",
"366 394 OFFCURVE",
"405 358 OFFCURVE",
"405 249 CURVE SMOOTH",
"405 140 OFFCURVE",
"361 107 OFFCURVE",
"299 107 CURVE SMOOTH",
"239 107 OFFCURVE",
"215 155 OFFCURVE",
"211 198 CURVE",
"151 208 LINE",
"151 96 OFFCURVE",
"203 -11 OFFCURVE",
"330 -11 CURVE SMOOTH",
"466 -11 OFFCURVE",
"558 66 OFFCURVE",
"558 249 CURVE SMOOTH",
"558 432 OFFCURVE",
"476 512 OFFCURVE",
"340 512 CURVE SMOOTH"
);
}
);
width = 600;
},
{
anchors = (
{
name = bottom;
position = "{330, 0}";
},
{
name = top;
position = "{330, 500}";
}
);
layerId = "BE68D89F-AB3F-4BDF-B332-ED50D7C47704";
paths = (
{
closed = 1;
nodes = (
"127 -200 LINE",
"160 -200 LINE",
"160 429 LINE",
"160 500 LINE",
"127 500 LINE"
);
},
{
closed = 1;
nodes = (
"202 512 OFFCURVE",
"132 404 OFFCURVE",
"132 300 CURVE",
"159 310 LINE",
"162 363 OFFCURVE",
"209 479 OFFCURVE",
"331 479 CURVE SMOOTH",
"433 479 OFFCURVE",
"494 398 OFFCURVE",
"494 249 CURVE SMOOTH",
"494 100 OFFCURVE",
"423 22 OFFCURVE",
"321 22 CURVE SMOOTH",
"199 22 OFFCURVE",
"163 125 OFFCURVE",
"159 178 CURVE",
"132 198 LINE",
"132 86 OFFCURVE",
"191 -11 OFFCURVE",
"322 -11 CURVE SMOOTH",
"438 -11 OFFCURVE",
"529 66 OFFCURVE",
"529 249 CURVE SMOOTH",
"529 432 OFFCURVE",
"448 512 OFFCURVE",
"332 512 CURVE SMOOTH"
);
}
);
width = 600;
},
{
anchors = (
{
name = bottom;
position = "{248, 0}";
},
{
name = top;
position = "{248, 500}";
}
);
layerId = "2E286313-D5BF-4FB4-A4B7-BD9BC13B574E";
paths = (
{
closed = 1;
nodes = (
"98 -200 LINE",
"132 -200 LINE",
"132 429 LINE",
"132 500 LINE",
"98 500 LINE"
);
},
{
closed = 1;
nodes = (
"152 512 OFFCURVE",
"103 394 OFFCURVE",
"103 290 CURVE",
"131 310 LINE",
"134 353 OFFCURVE",
"158 479 OFFCURVE",
"250 479 CURVE SMOOTH",
"326 479 OFFCURVE",
"351 378 OFFCURVE",
"351 249 CURVE SMOOTH",
"351 120 OFFCURVE",
"319 22 OFFCURVE",
"242 22 CURVE SMOOTH",
"151 22 OFFCURVE",
"134 135 OFFCURVE",
"131 178 CURVE",
"103 208 LINE",
"103 96 OFFCURVE",
"139 -11 OFFCURVE",
"243 -11 CURVE SMOOTH",
"330 -11 OFFCURVE",
"386 86 OFFCURVE",
"386 249 CURVE SMOOTH",
"386 412 OFFCURVE",
"338 512 OFFCURVE",
"251 512 CURVE SMOOTH"
);
}
);
width = 450;
},
{
anchors = (
{
name = bottom;
position = "{578, 0}";
},
{
name = top;
position = "{578, 500}";
}
);
layerId = "E338D14E-1DA5-418D-88BC-8956EEA80AB9";
paths = (
{
closed = 1;
nodes = (
"235 -200 LINE",
"270 -200 LINE",
"270 429 LINE",
"270 500 LINE",
"235 500 LINE"
);
},
{
closed = 1;
nodes = (
"366 512 OFFCURVE",
"242 398 OFFCURVE",
"242 294 CURVE",
"268 310 LINE",
"274 353 OFFCURVE",
"363 479 OFFCURVE",
"577 479 CURVE SMOOTH",
"755 479 OFFCURVE",
"857 398 OFFCURVE",
"857 249 CURVE SMOOTH",
"857 100 OFFCURVE",
"738 22 OFFCURVE",
"559 22 CURVE SMOOTH",
"346 22 OFFCURVE",
"275 135 OFFCURVE",
"268 178 CURVE",
"242 204 LINE",
"242 92 OFFCURVE",
"335 -11 OFFCURVE",
"561 -11 CURVE SMOOTH",
"751 -11 OFFCURVE",
"895 67 OFFCURVE",
"895 249 CURVE SMOOTH",
"895 431 OFFCURVE",
"769 512 OFFCURVE",
"579 512 CURVE SMOOTH"
);
}
);
width = 1050;
}
);
leftKerningGroup = p;
rightKerningGroup = o;
unicode = 0070;
},
{
glyphname = thorn;
lastChange = "2019-07-14 10:57:01 +0000";
layers = (
{
anchors = (
{
name = bottom;
position = "{330, 0}";
},
{
name = top;
position = "{330, 500}";
}
);
layerId = "5521DC30-183F-421A-91F3-644B5E24AFE6";
paths = (
{
closed = 1;
nodes = (
"210 -200 LINE",
"210 800 LINE",
"57 800 LINE",
"57 -200 LINE"
);
},
{
closed = 1;
nodes = (
"212 511 OFFCURVE",
"135 414 OFFCURVE",
"135 302 CURVE",
"188 282 LINE",
"199 315 OFFCURVE",
"228 388 OFFCURVE",
"310 388 CURVE SMOOTH",
"382 388 OFFCURVE",
"401 340 OFFCURVE",
"401 251 CURVE SMOOTH",
"401 162 OFFCURVE",
"372 112 OFFCURVE",
"300 112 CURVE SMOOTH",
"218 112 OFFCURVE",
"191 187 OFFCURVE",
"188 230 CURVE",
"135 210 LINE",
"135 98 OFFCURVE",
"202 -11 OFFCURVE",
"329 -11 CURVE SMOOTH",
"465 -11 OFFCURVE",
"554 68 OFFCURVE",
"554 251 CURVE SMOOTH",
"554 434 OFFCURVE",
"475 511 OFFCURVE",
"339 511 CURVE SMOOTH"
);
}
);
width = 600;
},
{
anchors = (
{
name = bottom;
position = "{330, 0}";
},
{
name = top;
position = "{330, 500}";
}
);
layerId = "BE68D89F-AB3F-4BDF-B332-ED50D7C47704";
paths = (
{
closed = 1;
nodes = (
"150 -200 LINE",
"150 800 LINE",
"117 800 LINE",
"117 -200 LINE"
);
},
{
closed = 1;
nodes = (
"236 511 OFFCURVE",
"126 414 OFFCURVE",
"126 302 CURVE",
"142 295 LINE",
"155 382 OFFCURVE",
"247 478 OFFCURVE",
"329 478 CURVE SMOOTH",
"418 478 OFFCURVE",
"471 410 OFFCURVE",
"471 251 CURVE SMOOTH",
"471 92 OFFCURVE",
"410 22 OFFCURVE",
"321 22 CURVE SMOOTH",
"239 22 OFFCURVE",
"152 108 OFFCURVE",
"144 221 CURVE",
"126 210 LINE",
"132 77 OFFCURVE",
"218 -11 OFFCURVE",
"325 -11 CURVE SMOOTH",
"421 -11 OFFCURVE",
"504 68 OFFCURVE",
"504 251 CURVE SMOOTH",
"504 434 OFFCURVE",
"429 511 OFFCURVE",
"333 511 CURVE SMOOTH"
);
}
);
width = 600;
},
{
anchors = (
{
name = bottom;
position = "{248, 0}";
},
{
name = top;
position = "{248, 500}";
}
);
layerId = "2E286313-D5BF-4FB4-A4B7-BD9BC13B574E";
paths = (
{
closed = 1;
nodes = (
"113 -200 LINE",
"113 800 LINE",
"78 800 LINE",
"78 -200 LINE"
);
},
{
closed = 1;
nodes = (
"177 511 OFFCURVE",
"91 414 OFFCURVE",
"91 302 CURVE",
"107 295 LINE",
"116 382 OFFCURVE",
"186 478 OFFCURVE",
"247 478 CURVE SMOOTH",
"310 478 OFFCURVE",
"353 410 OFFCURVE",
"353 251 CURVE SMOOTH",
"353 92 OFFCURVE",
"304 22 OFFCURVE",
"241 22 CURVE SMOOTH",
"180 22 OFFCURVE",
"114 108 OFFCURVE",
"108 221 CURVE",
"91 210 LINE",
"95 77 OFFCURVE",
"164 -11 OFFCURVE",
"244 -11 CURVE SMOOTH",
"316 -11 OFFCURVE",
"388 68 OFFCURVE",
"388 251 CURVE SMOOTH",
"388 434 OFFCURVE",
"322 511 OFFCURVE",
"250 511 CURVE SMOOTH"
);
}
);
width = 450;
},
{
anchors = (
{
name = bottom;
position = "{578, 0}";
},
{
name = top;
position = "{578, 500}";
}
);
layerId = "E338D14E-1DA5-418D-88BC-8956EEA80AB9";
paths = (
{
closed = 1;
nodes = (
"250 -200 LINE",
"250 800 LINE",
"215 800 LINE",
"215 -200 LINE"
);
},
{
closed = 1;
nodes = (
"366 512 OFFCURVE",
"225 398 OFFCURVE",
"225 294 CURVE",
"248 310 LINE",
"254 353 OFFCURVE",
"363 479 OFFCURVE",
"577 479 CURVE SMOOTH",
"755 479 OFFCURVE",
"837 398 OFFCURVE",
"837 249 CURVE SMOOTH",
"837 100 OFFCURVE",
"738 22 OFFCURVE",
"559 22 CURVE SMOOTH",
"346 22 OFFCURVE",
"255 135 OFFCURVE",
"248 178 CURVE",
"225 204 LINE",
"225 92 OFFCURVE",
"335 -11 OFFCURVE",
"561 -11 CURVE SMOOTH",
"754 -11 OFFCURVE",
"875 66 OFFCURVE",
"875 249 CURVE SMOOTH",
"875 432 OFFCURVE",
"772 512 OFFCURVE",
"579 512 CURVE SMOOTH"
);
}
);
width = 1050;
}
);
unicode = 00FE;
},
{
glyphname = r;
lastChange = "2019-07-14 12:16:03 +0000";
layers = (
{
anchors = (
{
name = bottom;
position = "{280, 0}";
},
{
name = top;
position = "{280, 500}";
}
);
layerId = "5521DC30-183F-421A-91F3-644B5E24AFE6";
paths = (
{
closed = 1;
nodes = (
"332 321 LINE",
"345 354 OFFCURVE",
"377 384 OFFCURVE",
"439 384 CURVE SMOOTH",
"479 384 OFFCURVE",
"513 365 OFFCURVE",
"519 361 CURVE",
"564 490 LINE",
"556 496 OFFCURVE",
"534 512 OFFCURVE",
"469 512 CURVE SMOOTH",
"342 512 OFFCURVE",
"264 424 OFFCURVE",
"264 312 CURVE"
);
},
{
closed = 1;
nodes = (
"338 402 LINE",
"288 500 LINE",
"83 500 LINE",
"83 388 LINE",
"185 388 LINE",
"185 112 LINE",
"83 112 LINE",
"83 0 LINE",
"441 0 LINE",
"441 112 LINE",
"338 112 LINE"
);
}
);
width = 600;
},
{
anchors = (
{
name = bottom;
position = "{281, 0}";
},
{
name = top;
position = "{281, 500}";
}
);
layerId = "BE68D89F-AB3F-4BDF-B332-ED50D7C47704";
paths = (
{
closed = 1;
nodes = (
"278 323 LINE",
"301 410 OFFCURVE",
"371 478 OFFCURVE",
"463 478 CURVE SMOOTH",
"509 478 OFFCURVE",
"526 465 OFFCURVE",
"526 465 CURVE",
"538 499 LINE",
"527 504 OFFCURVE",
"502 512 OFFCURVE",
"470 512 CURVE SMOOTH",
"343 512 OFFCURVE",
"251 414 OFFCURVE",
"251 302 CURVE"
);
},
{
closed = 1;
nodes = (
"279 396 LINE",
"279 500 LINE",
"84 500 LINE",
"84 468 LINE",
"246 468 LINE",
"246 32 LINE",
"84 32 LINE",
"84 0 LINE",
"450 0 LINE",
"450 32 LINE",
"279 32 LINE"
);
}
);
width = 600;
},
{
anchors = (
{
name = bottom;
position = "{205, 0}";
},
{
name = top;
position = "{205, 500}";
}
);
layerId = "2E286313-D5BF-4FB4-A4B7-BD9BC13B574E";
paths = (
{
closed = 1;
nodes = (
"206 323 LINE",
"223 410 OFFCURVE",
"278 478 OFFCURVE",
"347 478 CURVE SMOOTH",
"381 478 OFFCURVE",
"392 467 OFFCURVE",
"392 467 CURVE",
"407 497 LINE",
"399 503 OFFCURVE",
"376 512 OFFCURVE",
"352 512 CURVE SMOOTH",
"257 512 OFFCURVE",
"180 416 OFFCURVE",
"180 304 CURVE"
);
},
{
closed = 1;
nodes = (
"209 407 LINE",
"209 500 LINE",
"62 500 LINE",
"62 468 LINE",
"174 468 LINE",
"174 32 LINE",
"62 32 LINE",
"62 0 LINE",
"337 0 LINE",
"337 32 LINE",
"209 32 LINE"
);
}
);
width = 450;
},
{
anchors = (
{
name = bottom;
position = "{505, 0}";
},
{
name = top;
position = "{505, 500}";
}
);
layerId = "E338D14E-1DA5-418D-88BC-8956EEA80AB9";
paths = (
{
closed = 1;
nodes = (
"485 318 LINE",
"525 405 OFFCURVE",
"663 478 OFFCURVE",
"824 478 CURVE SMOOTH",
"904 478 OFFCURVE",
"934 465 OFFCURVE",
"934 465 CURVE",
"950 499 LINE",
"931 504 OFFCURVE",
"892 512 OFFCURVE",
"836 512 CURVE SMOOTH",
"623 512 OFFCURVE",
"462 413 OFFCURVE",
"462 301 CURVE"
);
},
{
closed = 1;
nodes = (
"489 374 LINE",
"489 500 LINE",
"160 500 LINE",
"160 468 LINE",
"454 468 LINE",
"454 32 LINE",
"160 32 LINE",
"160 0 LINE",
"801 0 LINE",
"801 32 LINE",
"489 32 LINE"
);
}
);
width = 1050;
}
);
leftKerningGroup = n;
rightKerningGroup = r;
unicode = 0072;
},
{
glyphname = s;
lastChange = "2019-07-14 12:19:58 +0000";
layers = (
{
anchors = (
{
name = bottom;
position = "{300, 0}";
},
{
name = top;
position = "{300, 500}";
}
);
layerId = "5521DC30-183F-421A-91F3-644B5E24AFE6";
paths = (
{
closed = 1;
nodes = (
"432 -11 OFFCURVE",
"539 38 OFFCURVE",
"539 146 CURVE SMOOTH",
"539 273 OFFCURVE",
"378 303 OFFCURVE",
"304 316 CURVE SMOOTH",
"271 322 OFFCURVE",
"225 338 OFFCURVE",
"225 363 CURVE SMOOTH",
"225 389 OFFCURVE",
"261 400 OFFCURVE",
"307 399 CURVE SMOOTH",
"352 398 OFFCURVE",
"400 378 OFFCURVE",
"423 341 CURVE",
"530 413 LINE",
"487 479 OFFCURVE",
"403 512 OFFCURVE",
"301 512 CURVE SMOOTH",
"186 512 OFFCURVE",
"84 462 OFFCURVE",
"84 370 CURVE SMOOTH",
"84 261 OFFCURVE",
"199 219 OFFCURVE",
"291 202 CURVE SMOOTH",
"345 192 OFFCURVE",
"397 177 OFFCURVE",
"397 148 CURVE SMOOTH",
"397 121 OFFCURVE",
"359 105 OFFCURVE",
"309 105 CURVE SMOOTH",
"248 105 OFFCURVE",
"192 131 OFFCURVE",
"171 167 CURVE",
"51 90 LINE",
"95 25 OFFCURVE",
"187 -11 OFFCURVE",
"302 -11 CURVE SMOOTH"
);
}
);
width = 600;
},
{
anchors = (
{
name = bottom;
position = "{300, 0}";
},
{
name = top;
position = "{300, 500}";
}
);
layerId = "BE68D89F-AB3F-4BDF-B332-ED50D7C47704";
paths = (
{
closed = 1;
nodes = (
"402 -11 OFFCURVE",
"503 39 OFFCURVE",
"504 140 CURVE SMOOTH",
"505 237 OFFCURVE",
"407 268 OFFCURVE",
"309 282 CURVE SMOOTH",
"218 295 OFFCURVE",
"160 317 OFFCURVE",
"160 383 CURVE SMOOTH",
"160 462 OFFCURVE",
"258 479 OFFCURVE",
"306 479 CURVE SMOOTH",
"354 479 OFFCURVE",
"421 467 OFFCURVE",
"448 423 CURVE",
"483 445 LINE",
"463 481 OFFCURVE",
"391 512 OFFCURVE",
"306 512 CURVE SMOOTH",
"221 512 OFFCURVE",
"122 473 OFFCURVE",
"122 383 CURVE SMOOTH",
"122 295 OFFCURVE",
"202 261 OFFCURVE",
"300 248 CURVE SMOOTH",
"392 236 OFFCURVE",
"466 210 OFFCURVE",
"466 140 CURVE SMOOTH",
"466 51 OFFCURVE",
"374 22 OFFCURVE",
"304 22 CURVE SMOOTH",
"234 22 OFFCURVE",
"169 41 OFFCURVE",
"139 75 CURVE",
"105 50 LINE",
"141 14 OFFCURVE",
"217 -11 OFFCURVE",
"302 -11 CURVE SMOOTH"
);
}
);
width = 600;
},
{
anchors = (
{
name = bottom;
position = "{225, 0}";
},
{
name = top;
position = "{225, 500}";
}
);
layerId = "2E286313-D5BF-4FB4-A4B7-BD9BC13B574E";
paths = (
{
closed = 1;
nodes = (
"307 -11 OFFCURVE",
"384 37 OFFCURVE",
"385 135 CURVE SMOOTH",
"386 238 OFFCURVE",
"267 270 OFFCURVE",
"232 282 CURVE SMOOTH",
"206 291 OFFCURVE",
"120 312 OFFCURVE",
"120 388 CURVE SMOOTH",
"120 466 OFFCURVE",
"197 479 OFFCURVE",
"233 479 CURVE SMOOTH",
"269 479 OFFCURVE",
"316 467 OFFCURVE",
"336 423 CURVE",
"365 444 LINE",
"350 480 OFFCURVE",
"297 512 OFFCURVE",
"233 512 CURVE SMOOTH",
"170 512 OFFCURVE",
"85 478 OFFCURVE",
"85 388 CURVE SMOOTH",
"85 290 OFFCURVE",
"188 260 OFFCURVE",
"225 248 CURVE SMOOTH",
"257 238 OFFCURVE",
"350 211 OFFCURVE",
"350 135 CURVE SMOOTH",
"350 59 OFFCURVE",
"296 22 OFFCURVE",
"228 22 CURVE SMOOTH",
"176 22 OFFCURVE",
"127 41 OFFCURVE",
"104 75 CURVE",
"75 51 LINE",
"102 15 OFFCURVE",
"163 -11 OFFCURVE",
"227 -11 CURVE SMOOTH"
);
}
);
width = 450;
},
{
anchors = (
{
name = bottom;
position = "{525, 0}";
},
{
name = top;
position = "{525, 500}";
}
);
layerId = "E338D14E-1DA5-418D-88BC-8956EEA80AB9";
paths = (
{
closed = 1;
nodes = (
"724 -11 OFFCURVE",
"878 28 OFFCURVE",
"880 135 CURVE SMOOTH",
"882 245 OFFCURVE",
"683 271 OFFCURVE",
"531 282 CURVE SMOOTH",
"372 294 OFFCURVE",
"260 315 OFFCURVE",
"260 383 CURVE SMOOTH",
"260 460 OFFCURVE",
"460 479 OFFCURVE",
"544 479 CURVE SMOOTH",
"638 479 OFFCURVE",
"782 451 OFFCURVE",
"815 417 CURVE",
"845 445 LINE",
"824 468 OFFCURVE",
"703 512 OFFCURVE",
"544 512 CURVE SMOOTH",
"386 512 OFFCURVE",
"216 473 OFFCURVE",
"216 383 CURVE SMOOTH",
"216 285 OFFCURVE",
"352 263 OFFCURVE",
"525 248 CURVE SMOOTH",
"679 235 OFFCURVE",
"836 208 OFFCURVE",
"836 135 CURVE SMOOTH",
"836 50 OFFCURVE",
"665 22 OFFCURVE",
"532 22 CURVE SMOOTH",
"410 22 OFFCURVE",
"266 48 OFFCURVE",
"213 82 CURVE",
"184 50 LINE",
"247 14 OFFCURVE",
"380 -11 OFFCURVE",
"529 -11 CURVE SMOOTH"
);
}
);
width = 1050;
}
);
leftKerningGroup = s;
rightKerningGroup = s;
unicode = 0073;
},
{
glyphname = germandbls;
lastChange = "2018-05-31 12:28:47 +0000";
layers = (
{
layerId = "5521DC30-183F-421A-91F3-644B5E24AFE6";
paths = (
{
closed = 1;
nodes = (
"435 428 OFFCURVE",
"539 436 OFFCURVE",
"539 550 CURVE SMOOTH",
"539 668 OFFCURVE",
"405 726 OFFCURVE",
"297 726 CURVE SMOOTH",
"189 726 OFFCURVE",
"30 682 OFFCURVE",
"30 513 CURVE SMOOTH",
"30 0 LINE",
"183 0 LINE",
"183 502 LINE SMOOTH",
"183 568 OFFCURVE",
"223 603 OFFCURVE",
"287 603 CURVE SMOOTH",
"344 603 OFFCURVE",
"388 586 OFFCURVE",
"388 540 CURVE SMOOTH",
"388 473 OFFCURVE",
"279 494 OFFCURVE",
"279 391 CURVE SMOOTH",
"279 288 OFFCURVE",
"431 302 OFFCURVE",
"431 197 CURVE SMOOTH",
"431 142 OFFCURVE",
"403 112 OFFCURVE",
"323 112 CURVE SMOOTH",
"296 112 OFFCURVE",
"270 117 OFFCURVE",
"247 126 CURVE",
"223 2 LINE",
"256 -7 OFFCURVE",
"291 -11 OFFCURVE",
"323 -11 CURVE SMOOTH",
"444 -11 OFFCURVE",
"589 48 OFFCURVE",
"589 197 CURVE SMOOTH",
"589 350 OFFCURVE",
"435 354 OFFCURVE",
"435 391 CURVE SMOOTH"
);
}
);
width = 600;
},
{
layerId = "BE68D89F-AB3F-4BDF-B332-ED50D7C47704";
paths = (
{
closed = 1;
nodes = (
"385 428 OFFCURVE",
"489 450 OFFCURVE",
"489 552 CURVE SMOOTH",
"489 670 OFFCURVE",
"405 726 OFFCURVE",
"297 726 CURVE SMOOTH",
"189 726 OFFCURVE",
"100 662 OFFCURVE",
"100 523 CURVE SMOOTH",
"100 0 LINE",
"133 0 LINE",
"133 512 LINE SMOOTH",
"133 668 OFFCURVE",
"233 693 OFFCURVE",
"297 693 CURVE SMOOTH",
"354 693 OFFCURVE",
"450 676 OFFCURVE",
"450 552 CURVE SMOOTH",
"450 452 OFFCURVE",
"349 464 OFFCURVE",
"349 391 CURVE SMOOTH",
"349 318 OFFCURVE",
"501 332 OFFCURVE",
"501 197 CURVE SMOOTH",
"501 52 OFFCURVE",
"403 22 OFFCURVE",
"323 22 CURVE SMOOTH",
"286 22 OFFCURVE",
"250 30 OFFCURVE",
"232 35 CURVE",
"223 2 LINE",
"253 -5 OFFCURVE",
"284 -11 OFFCURVE",
"323 -11 CURVE SMOOTH",
"444 -11 OFFCURVE",
"539 48 OFFCURVE",
"539 197 CURVE SMOOTH",
"539 345 OFFCURVE",
"385 354 OFFCURVE",
"385 391 CURVE SMOOTH"
);
}
);
width = 600;
},
{
layerId = "2E286313-D5BF-4FB4-A4B7-BD9BC13B574E";
paths = (
{
closed = 1;
nodes = (
"299 428 OFFCURVE",
"367 450 OFFCURVE",
"367 552 CURVE SMOOTH",
"367 670 OFFCURVE",
"304 726 OFFCURVE",
"223 726 CURVE SMOOTH",
"142 726 OFFCURVE",
"76 662 OFFCURVE",
"76 523 CURVE SMOOTH",
"76 0 LINE",
"109 0 LINE",
"109 512 LINE SMOOTH",
"109 668 OFFCURVE",
"175 693 OFFCURVE",
"223 693 CURVE SMOOTH",
"266 693 OFFCURVE",
"334 662 OFFCURVE",
"334 558 CURVE SMOOTH",
"334 458 OFFCURVE",
"262 464 OFFCURVE",
"262 391 CURVE SMOOTH",
"262 318 OFFCURVE",
"366 332 OFFCURVE",
"366 197 CURVE SMOOTH",
"366 52 OFFCURVE",
"302 22 OFFCURVE",
"242 22 CURVE SMOOTH",
"215 22 OFFCURVE",
"188 30 OFFCURVE",
"174 35 CURVE",
"167 2 LINE",
"190 -5 OFFCURVE",
"213 -11 OFFCURVE",
"242 -11 CURVE SMOOTH",
"333 -11 OFFCURVE",
"404 48 OFFCURVE",
"404 197 CURVE SMOOTH",
"404 345 OFFCURVE",
"299 354 OFFCURVE",
"299 391 CURVE SMOOTH"
);
}
);
width = 450;
},
{
layerId = "E338D14E-1DA5-418D-88BC-8956EEA80AB9";
paths = (
{
closed = 1;
nodes = (
"652 428 OFFCURVE",
"856 430 OFFCURVE",
"856 552 CURVE SMOOTH",
"856 670 OFFCURVE",
"717 726 OFFCURVE",
"528 726 CURVE SMOOTH",
"339 726 OFFCURVE",
"176 662 OFFCURVE",
"176 523 CURVE SMOOTH",
"176 0 LINE",
"211 0 LINE",
"211 512 LINE SMOOTH",
"211 660 OFFCURVE",
"416 693 OFFCURVE",
"528 693 CURVE SMOOTH",
"628 693 OFFCURVE",
"816 676 OFFCURVE",
"816 552 CURVE SMOOTH",
"816 442 OFFCURVE",
"611 474 OFFCURVE",
"611 391 CURVE SMOOTH",
"611 308 OFFCURVE",
"902 342 OFFCURVE",
"902 197 CURVE SMOOTH",
"902 52 OFFCURVE",
"705 22 OFFCURVE",
"565 22 CURVE SMOOTH",
"501 22 OFFCURVE",
"430 36 OFFCURVE",
"400 41 CURVE",
"390 5 LINE",
"433 -2 OFFCURVE",
"497 -11 OFFCURVE",
"565 -11 CURVE SMOOTH",
"777 -11 OFFCURVE",
"943 48 OFFCURVE",
"943 197 CURVE SMOOTH",
"943 365 OFFCURVE",
"652 354 OFFCURVE",
"652 391 CURVE SMOOTH"
);
}
);
width = 1050;
}
);
unicode = 00DF;
},
{
glyphname = t;
lastChange = "2018-05-31 14:12:16 +0000";
layers = (
{
anchors = (
{
name = bottom;
position = "{300, 0}";
},
{
name = center;
position = "{300, 250}";
},
{
name = top;
position = "{300, 628}";
},
{
name = topright;
position = "{580, 500}";
}
);
layerId = "5521DC30-183F-421A-91F3-644B5E24AFE6";
paths = (
{
closed = 1;
nodes = (
"537 388 LINE",
"537 500 LINE",
"82 500 LINE",
"82 388 LINE"
);
},
{
closed = 1;
nodes = (
"375 680 LINE",
"222 680 LINE",
"222 0 LINE",
"487 0 LINE",
"487 112 LINE",
"375 112 LINE"
);
}
);
width = 600;
},
{
anchors = (
{
name = bottom;
position = "{300, 0}";
},
{
name = center;
position = "{289, 250}";
},
{
name = top;
position = "{282, 620}";
},
{
name = topright;
position = "{580, 500}";
}
);
layerId = "BE68D89F-AB3F-4BDF-B332-ED50D7C47704";
paths = (
{
closed = 1;
nodes = (
"512 468 LINE",
"512 500 LINE",
"110 500 LINE",
"110 468 LINE"
);
},
{
closed = 1;
nodes = (
"303 680 LINE",
"270 680 LINE",
"270 0 LINE",
"457 0 LINE",
"457 32 LINE",
"303 32 LINE"
);
}
);
width = 600;
},
{
anchors = (
{
name = bottom;
position = "{225, 0}";
},
{
name = center;
position = "{225, 250}";
},
{
name = top;
position = "{220, 620}";
},
{
name = topright;
position = "{435, 500}";
}
);
layerId = "2E286313-D5BF-4FB4-A4B7-BD9BC13B574E";
paths = (
{
closed = 1;
nodes = (
"368 468 LINE",
"368 500 LINE",
"78 500 LINE",
"78 468 LINE"
);
},
{
closed = 1;
nodes = (
"237 680 LINE",
"203 680 LINE",
"203 0 LINE",
"357 0 LINE",
"357 32 LINE",
"237 32 LINE"
);
}
);
width = 450;
},
{
anchors = (
{
name = bottom;
position = "{525, 0}";
},
{
name = center;
position = "{506, 250}";
},
{
name = top;
position = "{494, 620}";
},
{
name = topright;
position = "{1015, 500}";
}
);
layerId = "E338D14E-1DA5-418D-88BC-8956EEA80AB9";
paths = (
{
closed = 1;
nodes = (
"859 468 LINE",
"859 500 LINE",
"188 500 LINE",
"188 468 LINE"
);
},
{
closed = 1;
nodes = (
"519 680 LINE",
"485 680 LINE",
"485 0 LINE",
"820 0 LINE",
"820 32 LINE",
"519 32 LINE"
);
}
);
width = 1050;
}
);
unicode = 0074;
},
{
glyphname = t.ss01;
lastChange = "2018-05-31 12:29:24 +0000";
layers = (
{
anchors = (
{
name = bottom;
position = "{300, 0}";
},
{
name = center;
position = "{300, 250}";
},
{
name = top;
position = "{267, 680}";
},
{
name = topright;
position = "{580, 500}";
}
);
layerId = "5521DC30-183F-421A-91F3-644B5E24AFE6";
paths = (
{
closed = 1;
nodes = (
"512 378 LINE",
"512 500 LINE",
"50 500 LINE",
"50 378 LINE"
);
},
{
closed = 1;
nodes = (
"364 106 OFFCURVE",
"343 119 OFFCURVE",
"343 182 CURVE SMOOTH",
"343 680 LINE",
"190 680 LINE",
"190 122 LINE SMOOTH",
"190 9 OFFCURVE",
"274 -11 OFFCURVE",
"366 -11 CURVE SMOOTH",
"433 -11 OFFCURVE",
"487 -1 OFFCURVE",
"495 0 CURVE",
"495 123 LINE",
"490 121 OFFCURVE",
"430 106 OFFCURVE",
"391 106 CURVE SMOOTH"
);
}
);
width = 600;
},
{
anchors = (
{
name = bottom;
position = "{300, 0}";
},
{
name = center;
position = "{300, 250}";
},
{
name = top;
position = "{255, 680}";
},
{
name = topright;
position = "{580, 500}";
}
);
layerId = "BE68D89F-AB3F-4BDF-B332-ED50D7C47704";
paths = (
{
closed = 1;
nodes = (
"472 468 LINE",
"472 500 LINE",
"80 500 LINE",
"80 468 LINE"
);
},
{
closed = 1;
nodes = (
"311 20 OFFCURVE",
"273 33 OFFCURVE",
"273 96 CURVE SMOOTH",
"273 680 LINE",
"240 680 LINE",
"240 86 LINE SMOOTH",
"240 33 OFFCURVE",
"274 -11 OFFCURVE",
"341 -11 CURVE SMOOTH",
"398 -11 OFFCURVE",
"427 -1 OFFCURVE",
"435 0 CURVE",
"435 32 LINE",
"427 30 OFFCURVE",
"381 20 OFFCURVE",
"346 20 CURVE SMOOTH"
);
}
);
width = 600;
},
{
anchors = (
{
name = bottom;
position = "{225, 0}";
},
{
name = center;
position = "{198, 250}";
},
{
name = top;
position = "{198, 620}";
},
{
name = topright;
position = "{395, 500}";
}
);
layerId = "2E286313-D5BF-4FB4-A4B7-BD9BC13B574E";
paths = (
{
closed = 1;
nodes = (
"354 468 LINE",
"354 500 LINE",
"60 500 LINE",
"60 468 LINE"
);
},
{
closed = 1;
nodes = (
"233 20 OFFCURVE",
"215 33 OFFCURVE",
"215 96 CURVE SMOOTH",
"215 680 LINE",
"180 680 LINE",
"180 86 LINE SMOOTH",
"180 33 OFFCURVE",
"206 -11 OFFCURVE",
"256 -11 CURVE SMOOTH",
"299 -11 OFFCURVE",
"320 -1 OFFCURVE",
"326 0 CURVE",
"326 32 LINE",
"320 30 OFFCURVE",
"286 20 OFFCURVE",
"260 20 CURVE SMOOTH"
);
}
);
width = 450;
},
{
anchors = (
{
name = bottom;
position = "{525, 0}";
},
{
name = center;
position = "{525, 250}";
},
{
name = top;
position = "{446, 680}";
},
{
name = topright;
position = "{1015, 500}";
}
);
layerId = "E338D14E-1DA5-418D-88BC-8956EEA80AB9";
paths = (
{
closed = 1;
nodes = (
"808 468 LINE",
"808 500 LINE",
"140 500 LINE",
"140 468 LINE"
);
},
{
closed = 1;
nodes = (
"544 20 OFFCURVE",
"475 33 OFFCURVE",
"475 96 CURVE SMOOTH",
"475 680 LINE",
"441 680 LINE",
"441 86 LINE SMOOTH",
"441 33 OFFCURVE",
"483 -11 OFFCURVE",
"600 -11 CURVE SMOOTH",
"700 -11 OFFCURVE",
"757 -1 OFFCURVE",
"771 0 CURVE",
"771 32 LINE",
"757 30 OFFCURVE",
"667 20 OFFCURVE",
"606 20 CURVE SMOOTH"
);
}
);
width = 1050;
}
);
leftKerningGroup = t;
rightKerningGroup = t;
},
{
glyphname = u;
lastChange = "2019-07-14 12:22:18 +0000";
layers = (
{
anchors = (
{
name = bottom;
position = "{295, 0}";
},
{
name = ogonek;
position = "{452, 2}";
},
{
name = top;
position = "{295, 500}";
},
{
name = topright;
position = "{575, 500}";
}
);
layerId = "5521DC30-183F-421A-91F3-644B5E24AFE6";
paths = (
{
closed = 1;
nodes = (
"388 -10 OFFCURVE",
"445 77 OFFCURVE",
"445 189 CURVE",
"392 189 LINE",
"387 156 OFFCURVE",
"363 107 OFFCURVE",
"292 107 CURVE SMOOTH",
"240 107 OFFCURVE",
"210 140 OFFCURVE",
"210 229 CURVE SMOOTH",
"210 501 LINE",
"57 501 LINE",
"57 219 LINE SMOOTH",
"57 56 OFFCURVE",
"126 -10 OFFCURVE",
"252 -10 CURVE SMOOTH"
);
},
{
closed = 1;
nodes = (
"525 0 LINE SMOOTH",
"525 0 OFFCURVE",
"525 101 OFFCURVE",
"525 101 CURVE",
"525 501 LINE",
"372 501 LINE",
"372 99 LINE",
"372 99 OFFCURVE",
"412 0 OFFCURVE",
"412 0 CURVE"
);
}
);
width = 600;
},
{
anchors = (
{
name = bottom;
position = "{290, 0}";
},
{
name = ogonek;
position = "{467, 2}";
},
{
name = top;
position = "{290, 500}";
},
{
name = topright;
position = "{570, 500}";
}
);
layerId = "BE68D89F-AB3F-4BDF-B332-ED50D7C47704";
paths = (
{
closed = 1;
nodes = (
"403 -10 OFFCURVE",
"477 57 OFFCURVE",
"477 169 CURVE",
"452 140 LINE",
"441 102 OFFCURVE",
"398 23 OFFCURVE",
"286 23 CURVE SMOOTH",
"174 23 OFFCURVE",
"147 90 OFFCURVE",
"147 209 CURVE SMOOTH",
"147 501 LINE",
"114 501 LINE",
"114 189 LINE SMOOTH",
"114 26 OFFCURVE",
"193 -10 OFFCURVE",
"279 -10 CURVE SMOOTH"
);
},
{
closed = 1;
nodes = (
"483 0 LINE SMOOTH",
"483 0 OFFCURVE",
"483 101 OFFCURVE",
"483 101 CURVE",
"483 501 LINE",
"450 501 LINE",
"450 99 LINE",
"450 99 OFFCURVE",
"450 0 OFFCURVE",
"450 0 CURVE"
);
}
);
width = 600;
},
{
anchors = (
{
name = bottom;
position = "{212, 0}";
},
{
name = ogonek;
position = "{353, 2}";
},
{
name = top;
position = "{220, 500}";
},
{
name = topright;
position = "{430, 500}";
}
);
layerId = "2E286313-D5BF-4FB4-A4B7-BD9BC13B574E";
paths = (
{
closed = 1;
nodes = (
"285 -10 OFFCURVE",
"358 54 OFFCURVE",
"358 146 CURVE",
"331 139 LINE",
"328 102 OFFCURVE",
"287 23 OFFCURVE",
"215 23 CURVE SMOOTH",
"148 23 OFFCURVE",
"123 64 OFFCURVE",
"123 166 CURVE SMOOTH",
"123 501 LINE",
"88 501 LINE",
"88 161 LINE SMOOTH",
"88 28 OFFCURVE",
"135 -10 OFFCURVE",
"209 -10 CURVE SMOOTH"
);
},
{
closed = 1;
nodes = (
"365 0 LINE SMOOTH",
"365 0 OFFCURVE",
"365 101 OFFCURVE",
"365 101 CURVE",
"365 501 LINE",
"330 501 LINE",
"330 99 LINE",
"330 99 OFFCURVE",
"330 0 OFFCURVE",
"330 0 CURVE"
);
}
);
width = 450;
},
{
anchors = (
{
name = bottom;
position = "{515, 0}";
},
{
name = ogonek;
position = "{825, 2}";
},
{
name = top;
position = "{515, 500}";
},
{
name = topright;
position = "{1005, 500}";
}
);
layerId = "E338D14E-1DA5-418D-88BC-8956EEA80AB9";
paths = (
{
closed = 1;
nodes = (
"717 -10 OFFCURVE",
"842 84 OFFCURVE",
"842 177 CURVE",
"818 162 LINE",
"807 121 OFFCURVE",
"707 23 OFFCURVE",
"511 23 CURVE SMOOTH",
"315 23 OFFCURVE",
"241 100 OFFCURVE",
"241 229 CURVE SMOOTH",
"241 501 LINE",
"207 501 LINE",
"207 209 LINE SMOOTH",
"207 36 OFFCURVE",
"358 -10 OFFCURVE",
"498 -10 CURVE SMOOTH"
);
},
{
closed = 1;
nodes = (
"849 0 LINE SMOOTH",
"849 0 OFFCURVE",
"849 101 OFFCURVE",
"849 101 CURVE",
"849 501 LINE",
"815 501 LINE",
"815 99 LINE",
"815 99 OFFCURVE",
"815 0 OFFCURVE",
"815 0 CURVE"
);
}
);
width = 1050;
}
);
leftKerningGroup = u;
rightKerningGroup = u;
unicode = 0075;
},
{
glyphname = uogonek;
lastChange = "2018-05-30 12:42:14 +0000";
layers = (
{
components = (
{
name = u;
},
{
name = ogonekcomb;
transform = "{1, 0, 0, 1, 137, 0}";
}
);
layerId = "5521DC30-183F-421A-91F3-644B5E24AFE6";
paths = (
{
closed = 1;
nodes = (
"394 0 LINE",
"442 -12 LINE",
"442 23 LINE",
"409 6 LINE"
);
}
);
width = 600;
},
{
components = (
{
name = u;
},
{
name = ogonekcomb;
transform = "{1, 0, 0, 1, 144, 0}";
}
);
layerId = "BE68D89F-AB3F-4BDF-B332-ED50D7C47704";
paths = (
{
closed = 1;
nodes = (
"464 -1 LINE",
"478 -5 LINE",
"478 6 LINE",
"468 1 LINE"
);
}
);
width = 600;
},
{
components = (
{
name = u;
},
{
name = ogonekcomb;
transform = "{1, 0, 0, 1, 81, 0}";
}
);
layerId = "2E286313-D5BF-4FB4-A4B7-BD9BC13B574E";
paths = (
{
closed = 1;
nodes = (
"321 -9 LINE",
"346 -5 LINE",
"346 6 LINE",
"336 1 LINE"
);
}
);
width = 450;
},
{
components = (
{
name = u;
},
{
name = ogonekcomb;
transform = "{1, 0, 0, 1, 274, 0}";
}
);
layerId = "E338D14E-1DA5-418D-88BC-8956EEA80AB9";
paths = (
{
closed = 1;
nodes = (
"807 -11 LINE",
"843 -5 LINE",
"843 6 LINE",
"815 0 LINE"
);
}
);
width = 1050;
}
);
unicode = 0173;
},
{
glyphname = v;
lastChange = "2018-05-31 12:31:22 +0000";
layers = (
{
anchors = (
{
name = bottom;
position = "{300, 0}";
},
{
name = top;
position = "{300, 500}";
}
);
layerId = "5521DC30-183F-421A-91F3-644B5E24AFE6";
paths = (
{
closed = 1;
nodes = (
"309 122 LINE",
"295 122 LINE",
"225 500 LINE",
"68 500 LINE",
"180 0 LINE",
"424 0 LINE",
"536 500 LINE",
"379 500 LINE"
);
}
);
width = 600;
},
{
anchors = (
{
name = bottom;
position = "{300, 0}";
},
{
name = top;
position = "{300, 500}";
}
);
layerId = "BE68D89F-AB3F-4BDF-B332-ED50D7C47704";
paths = (
{
closed = 1;
nodes = (
"328 32 LINE",
"276 32 LINE",
"165 500 LINE",
"128 500 LINE",
"250 0 LINE",
"354 0 LINE",
"476 500 LINE",
"439 500 LINE"
);
}
);
width = 600;
},
{
anchors = (
{
name = bottom;
position = "{225, 0}";
},
{
name = top;
position = "{225, 500}";
}
);
layerId = "2E286313-D5BF-4FB4-A4B7-BD9BC13B574E";
paths = (
{
closed = 1;
nodes = (
"242 32 LINE",
"211 32 LINE",
"136 500 LINE",
"100 500 LINE",
"183 0 LINE",
"271 0 LINE",
"353 500 LINE",
"317 500 LINE"
);
}
);
width = 450;
},
{
anchors = (
{
name = bottom;
position = "{525, 0}";
},
{
name = top;
position = "{525, 500}";
}
);
layerId = "E338D14E-1DA5-418D-88BC-8956EEA80AB9";
paths = (
{
closed = 1;
nodes = (
"593 32 LINE",
"464 32 LINE",
"277 500 LINE",
"234 500 LINE",
"438 0 LINE",
"620 0 LINE",
"823 500 LINE",
"780 500 LINE"
);
}
);
width = 1050;
}
);
leftKerningGroup = v;
rightKerningGroup = v;
unicode = 0076;
},
{
glyphname = w;
lastChange = "2018-05-31 14:26:15 +0000";
layers = (
{
anchors = (
{
name = bottom;
position = "{300, 0}";
},
{
name = top;
position = "{300, 500}";
}
);
layerId = "5521DC30-183F-421A-91F3-644B5E24AFE6";
paths = (
{
closed = 1;
nodes = (
"65 0 LINE",
"195 0 LINE",
"158 500 LINE",
"2 500 LINE"
);
},
{
closed = 1;
nodes = (
"405 0 LINE",
"535 0 LINE",
"598 500 LINE",
"442 500 LINE"
);
},
{
closed = 1;
nodes = (
"340 500 LINE",
"250 500 LINE",
"145 0 LINE",
"227 0 LINE"
);
},
{
closed = 1;
nodes = (
"455 0 LINE",
"350 500 LINE",
"260 500 LINE",
"373 0 LINE"
);
}
);
width = 600;
},
{
anchors = (
{
name = bottom;
position = "{300, 0}";
},
{
name = top;
position = "{300, 500}";
}
);
layerId = "BE68D89F-AB3F-4BDF-B332-ED50D7C47704";
paths = (
{
closed = 1;
nodes = (
"138 0 LINE",
"169 0 LINE",
"108 500 LINE",
"75 500 LINE"
);
},
{
closed = 1;
nodes = (
"427 0 LINE",
"458 0 LINE",
"521 500 LINE",
"488 500 LINE"
);
},
{
closed = 1;
nodes = (
"308 500 LINE",
"277 500 LINE",
"159 0 LINE",
"190 0 LINE"
);
},
{
closed = 1;
nodes = (
"437 0 LINE",
"319 500 LINE",
"288 500 LINE",
"406 0 LINE"
);
}
);
width = 600;
},
{
anchors = (
{
name = bottom;
position = "{227, 0}";
},
{
name = top;
position = "{227, 500}";
}
);
layerId = "2E286313-D5BF-4FB4-A4B7-BD9BC13B574E";
paths = (
{
closed = 1;
nodes = (
"87 0 LINE",
"119 0 LINE",
"82 500 LINE",
"48 500 LINE"
);
},
{
closed = 1;
nodes = (
"332 0 LINE",
"365 0 LINE",
"403 500 LINE",
"369 500 LINE"
);
},
{
closed = 1;
nodes = (
"233 500 LINE",
"200 500 LINE",
"113 0 LINE",
"143 0 LINE"
);
},
{
closed = 1;
nodes = (
"338 0 LINE",
"251 500 LINE",
"218 500 LINE",
"309 0 LINE"
);
}
);
width = 450;
},
{
anchors = (
{
name = bottom;
position = "{525, 0}";
},
{
name = top;
position = "{525, 500}";
}
);
layerId = "E338D14E-1DA5-418D-88BC-8956EEA80AB9";
paths = (
{
closed = 1;
nodes = (
"273 0 LINE",
"307 0 LINE",
"199 500 LINE",
"162 500 LINE"
);
},
{
closed = 1;
nodes = (
"736 0 LINE",
"771 0 LINE",
"881 500 LINE",
"844 500 LINE"
);
},
{
closed = 1;
nodes = (
"531 500 LINE",
"495 500 LINE",
"288 0 LINE",
"323 0 LINE"
);
},
{
closed = 1;
nodes = (
"755 0 LINE",
"548 500 LINE",
"512 500 LINE",
"720 0 LINE"
);
}
);
width = 1050;
}
);
leftKerningGroup = w;
rightKerningGroup = w;
unicode = 0077;
},
{
glyphname = x;
lastChange = "2018-05-31 14:16:11 +0000";
layers = (
{
anchors = (
{
name = bottom;
position = "{300, 0}";
},
{
name = top;
position = "{300, 500}";
}
);
layerId = "5521DC30-183F-421A-91F3-644B5E24AFE6";
paths = (
{
closed = 1;
nodes = (
"414 500 LINE",
"306 309 LINE",
"284 309 LINE",
"176 500 LINE",
"19 500 LINE",
"167 252 LINE",
"19 0 LINE",
"176 0 LINE",
"286 197 LINE",
"304 197 LINE",
"414 0 LINE",
"571 0 LINE",
"423 252 LINE",
"571 500 LINE"
);
}
);
width = 600;
},
{
anchors = (
{
name = bottom;
position = "{300, 0}";
},
{
name = top;
position = "{300, 500}";
}
);
layerId = "BE68D89F-AB3F-4BDF-B332-ED50D7C47704";
paths = (
{
closed = 1;
nodes = (
"467 500 LINE",
"320 269 LINE",
"270 269 LINE",
"123 500 LINE",
"81 500 LINE",
"242 253 LINE",
"81 0 LINE",
"123 0 LINE",
"270 237 LINE",
"320 237 LINE",
"467 0 LINE",
"509 0 LINE",
"348 253 LINE",
"509 500 LINE"
);
}
);
width = 600;
},
{
anchors = (
{
name = bottom;
position = "{222, 0}";
},
{
name = top;
position = "{222, 500}";
}
);
layerId = "2E286313-D5BF-4FB4-A4B7-BD9BC13B574E";
paths = (
{
closed = 1;
nodes = (
"339 500 LINE",
"235 269 LINE",
"210 269 LINE",
"105 500 LINE",
"67 500 LINE",
"183 253 LINE",
"67 0 LINE",
"104 0 LINE",
"210 237 LINE",
"235 237 LINE",
"340 0 LINE",
"377 0 LINE",
"261 253 LINE",
"377 500 LINE"
);
}
);
width = 450;
},
{
anchors = (
{
name = bottom;
position = "{525, 0}";
},
{
name = top;
position = "{525, 500}";
}
);
layerId = "E338D14E-1DA5-418D-88BC-8956EEA80AB9";
paths = (
{
closed = 1;
nodes = (
"773 500 LINE",
"575 269 LINE",
"467 269 LINE",
"269 500 LINE",
"224 500 LINE",
"435 254 LINE",
"224 0 LINE",
"269 0 LINE",
"463 237 LINE",
"577 237 LINE",
"773 0 LINE",
"818 0 LINE",
"605 252 LINE",
"818 500 LINE"
);
}
);
width = 1050;
}
);
leftKerningGroup = x;
rightKerningGroup = x;
unicode = 0078;
},
